<?xml version="1.0" standalone="no"?>
<!DOCTYPE svg PUBLIC "-//W3C//DTD SVG 1.1//EN" "http://www.w3.org/Graphics/SVG/1.1/DTD/svg11.dtd" >
<svg xmlns="http://www.w3.org/2000/svg" xmlns:xlink="http://www.w3.org/1999/xlink" version="1.1">
<metadata>
Created by FontForge 20201107 at Tue Jan 15 10:50:34 2019
 By 
Copyright (c) 2019 Tristan Grimmer
Copyright (c) 2018 Source Foundry Authors
Copyright (c) 2003 by Bitstream, Inc. All Rights Reserved.

</metadata>
<defs>
<font id="ProggyCrossed" horiz-adv-x="616" >
  <font-face 
    font-family="ProggyCrossed"
    font-weight="400"
    font-stretch="normal"
    units-per-em="1024"
    panose-1="0 0 0 0 0 0 0 0 0 0"
    ascent="819"
    descent="-205"
    x-height="525"
    cap-height="701"
    bbox="-477 -285 678 952"
    underline-thickness="35"
    underline-position="-118"
    unicode-range="U+000D-FEFF"
  />
<missing-glyph horiz-adv-x="543" 
d="M50 100h300v485h-300v-485zM0 635h400v-585h-400v585z" />
    <glyph glyph-name=".notdef" horiz-adv-x="543" 
d="M50 100h300v485h-300v-485zM0 635h400v-585h-400v585z" />
    <glyph glyph-name=".null" horiz-adv-x="0" 
 />
    <glyph glyph-name=".null" horiz-adv-x="0" 
 />
    <glyph glyph-name="nonmarkingreturn" unicode="&#xd;" horiz-adv-x="0" 
 />
    <glyph glyph-name="space" unicode=" " 
 />
    <glyph glyph-name="exclam" unicode="!" 
d="M267 265h80q1 23 3 53q1 30 2 64q3 62 6 127q2 65 4 108v123h-113v-123q1 -23 3 -53t3 -64q3 -62 7 -127q3 -65 5 -108zM360 18q11 10 16 23q6 13 6 28q0 16 -6 29q-5 13 -16 23t-23 14q-13 5 -28 5t-28 -5q-13 -4 -23 -14q-11 -10 -16 -23t-5 -29q0 -15 5 -28t16 -23
q10 -10 23 -14q13 -5 28 -5t28 5q12 4 23 14z" />
    <glyph glyph-name="quotedbl" unicode="&#x22;" 
d="M169 441h87v260h-87v-260zM360 441h87v260h-87v-260z" />
    <glyph glyph-name="numbersign" unicode="#" 
d="M78 5h80q10 37 26 97q16 61 26 98h123q-10 -37 -26 -98q-16 -60 -26 -97h79q10 37 27 97q16 61 26 98h144v71h-125q8 30 21 79t21 78h140v73h-121q10 37 26 97t26 97h-80q-10 -37 -26 -97t-26 -97h-123q10 37 26 97t26 97h-80q-10 -37 -26 -97t-26 -97h-152v-73h133
q-7 -29 -21 -78q-13 -49 -20 -79h-149v-71h129q-10 -37 -26 -98q-16 -60 -26 -97zM229 266q8 29 21 79q14 50 21 79h123q-7 -29 -21 -79q-13 -50 -21 -79h-123z" />
    <glyph glyph-name="dollar" unicode="$" 
d="M279 -19h79v58q38 2 72 15q34 14 65 38q29 25 43 55q15 31 15 67q0 35 -14 65q-13 29 -40 52q-21 21 -56 36t-85 23v202q8 -1 16 -1l16 -2l16 -4t17 -4q7 -2 16 -4q9 -3 21 -8q11 -4 23 -9l22 -10v81q-11 3 -21 6t-20 5t-21 5q-10 2 -20 3q-9 2 -20 4l-22 4q-12 3 -17 4
q-6 2 -6 3v57h-82v-57q-37 -3 -70 -18q-33 -14 -62 -38q-26 -22 -40 -51q-13 -30 -13 -66t13 -64q12 -29 37 -50q13 -11 28 -20t31 -16t35 -12t41 -8v-217q-23 1 -44 5t-41 12q-13 4 -24 8q-12 5 -25 10l-24 12q-13 7 -27 15v-85q26 -10 51 -18q25 -7 48 -12q14 -2 27 -5
q13 -2 27 -4t21 -2q8 -1 11 -2q1 -11 2 -29q0 -19 1 -29zM276 401q-20 4 -38 12t-33 20q-12 15 -19 31q-6 16 -5 33q2 16 8 31t16 30q12 16 30 25q18 10 41 12v-194zM358 310q26 0 46 -6q21 -5 36 -15q16 -15 23 -32q8 -17 8 -36q0 -24 -8 -45q-7 -22 -23 -41
q-13 -10 -33 -17q-21 -8 -49 -13v205z" />
    <glyph glyph-name="percent" unicode="%" 
d="M209 437q12 6 23 12q12 6 21 15q20 18 29 41q10 23 10 51q0 13 -3 25q-2 13 -7 24q-6 12 -13 22t-17 19t-21 16t-23 12q-12 4 -25 7q-14 3 -27 3q-20 0 -37 -4q-18 -4 -33 -12q-15 -9 -28 -20q-12 -12 -21 -26q-9 -15 -13 -32q-5 -17 -5 -35q0 -28 10 -50q9 -23 29 -41
q10 -9 20 -15q11 -7 23 -12q13 -4 26 -7t28 -3q14 0 28 2q14 3 26 8zM127 497q-6 2 -11 6q-5 3 -8 7q-10 9 -15 20t-5 25t5 25t15 20t21 13q12 4 26 4q13 0 25 -4q12 -5 22 -14t15 -20t5 -24q0 -7 -1 -14q-2 -6 -5 -12q-3 -5 -7 -10q-3 -5 -7 -9q-10 -9 -22 -14
q-12 -4 -25 -4q-8 0 -15 1t-13 4zM514 28q12 5 23 12t20 15q20 19 29 41q10 23 10 50q0 13 -2 26q-3 12 -8 24q-6 11 -13 21t-17 20q-10 9 -21 16t-23 11q-12 5 -25 8q-13 2 -27 2q-19 0 -37 -4q-17 -4 -33 -12q-15 -8 -27 -20q-12 -11 -21 -26t-14 -31q-4 -17 -4 -36
q0 -27 9 -50q10 -22 29 -41q10 -8 20 -15q11 -7 24 -11q12 -5 25 -8q14 -3 29 -3q14 0 28 3q14 2 26 8zM431 87q-6 2 -11 6t-8 7q-10 10 -15 21t-5 24q0 14 5 25t15 20q10 10 21 14q12 4 26 4q13 0 25 -5q12 -4 22 -14q10 -9 15 -20t5 -24q0 -7 -1 -13q-2 -7 -5 -12
q-3 -6 -7 -11q-3 -5 -7 -9q-10 -9 -22 -13q-11 -5 -25 -5q-8 0 -15 1q-7 2 -13 4zM63 18h96q48 82 120 204t142 240q38 64 71 121q34 57 60 101h-95q-48 -81 -121 -204q-72 -122 -142 -240q-37 -63 -71 -121q-34 -57 -60 -101z" />
    <glyph glyph-name="ampersand" unicode="&#x26;" 
d="M400 603v-27q0 -13 -4 -28q-6 -26 -30 -58q-24 -31 -83 -72q33 -42 59 -77q27 -34 47 -60q20 -27 43 -55q23 -29 49 -62q15 18 23 40q9 21 12 46q3 24 3 51q1 26 -1 53q0 3 1 3h2h79q0 -54 -5 -94t-15 -66q-10 -27 -24 -49t-31 -40q16 -20 40 -51q24 -30 45 -57
q-43 0 -67 -1h-28t-17 13q-13 13 -33 39q-39 -31 -85 -47q-47 -17 -100 -17h-8q-51 0 -94 16t-79 47q-35 32 -53 69q-17 37 -17 80v20q1 10 3 21q10 56 44 103q33 48 91 87q-43 33 -65 66q-21 33 -21 66q1 49 20 83t57 53q22 12 46 17q23 6 48 6q16 0 33 -3q18 -2 34 -7
q46 -13 64 -43q17 -30 17 -65zM222 72q16 -6 34 -10t37 -4q11 0 22 2q11 1 23 5q13 3 24 7q12 4 21 9l12 6q5 3 11 6q5 3 8 5l3 3q0 1 1 2q2 0 4 1q-26 34 -46 60q-21 25 -36 45q-14 18 -25 33q-11 14 -21 25q-21 28 -38 50q-17 21 -44 57q-24 -18 -42 -35t-31 -34
q-11 -19 -17 -40q-5 -21 -5 -43q0 -35 12 -64t37 -53q11 -10 26 -19q14 -8 30 -14zM293 517q31 27 31 70q0 44 -32 55q-27 9 -51 6t-46 -20q-16 -14 -21 -33q-4 -19 1 -42t25 -41q19 -17 37 -35q12 7 26 17q15 10 30 23z" />
    <glyph glyph-name="quotesingle" unicode="'" 
d="M266 442h92v261h-92v-261z" />
    <glyph glyph-name="parenleft" unicode="(" 
d="M397 -82q-66 108 -99 215t-33 214q0 53 9 107t25 108q8 26 18 52q10 27 22 53q11 26 26 53t32 55h-80q-19 -28 -35 -55q-16 -28 -30 -54q-14 -27 -26 -54t-21 -54q-19 -54 -28 -107q-9 -52 -9 -104t9 -105q9 -52 28 -106q17 -52 46 -107q28 -54 66 -111h80z" />
    <glyph glyph-name="parenright" unicode=")" 
d="M285 -77q37 55 66 110q28 54 46 107q19 54 28 107t9 105t-9 105q-9 52 -28 106q-17 53 -46 107q-28 54 -66 110h-80q17 -27 32 -55q15 -27 27 -54t22 -53t18 -52q16 -53 25 -106q8 -54 8 -108q0 -27 -2 -55q-2 -27 -6 -54q-5 -27 -11 -53t-14 -52q-17 -54 -41 -107
q-25 -54 -58 -108h80z" />
    <glyph glyph-name="asterisk" unicode="*" 
d="M46 452q32 -18 87 -48q54 -30 86 -48q-32 -17 -86 -47q-55 -30 -87 -48q8 -13 21 -34q13 -20 21 -33q33 17 82 43q48 26 92 49v-115v-81h43h13h31v196q33 -18 88 -47q54 -30 87 -48q9 14 22 34q14 21 22 34q-33 19 -87 49l-88 48l88 48l88 48q-8 13 -22 34q-13 22 -22 35
q-33 -17 -88 -47l-88 -48v186h-87v-186q-43 24 -172 94q-8 -13 -22 -34q-13 -21 -22 -34z" />
    <glyph glyph-name="plus" unicode="+" 
d="M264 100h84v208h225v80h-225v209h-84v-209h-223v-80h223v-208z" />
    <glyph glyph-name="comma" unicode="," 
d="M265 -59q-8 -12 -23 -27q-15 -16 -37 -35q5 -7 9 -13t8 -11q4 -6 9 -12q4 -6 10 -14q16 10 33 26t36 37q19 22 35 47q15 26 26 55q2 6 4 14q1 8 3 18q1 8 2 18t1 21v6q0 15 -5 28q-6 13 -17 23q-10 10 -23 15q-12 4 -28 4q-15 0 -28 -4q-12 -5 -23 -15t-16 -23
q-4 -13 -4 -28q0 -16 4 -29q5 -13 15 -23t20 -14q10 -5 19 -5q-7 -18 -14 -33t-16 -26z" />
    <glyph glyph-name="hyphen" unicode="-" 
d="M83 308h452q0 16 -1 41v40h-451v-81z" />
    <glyph glyph-name="period" unicode="." 
d="M360 18q11 10 17 23q5 13 5 29q0 15 -5 28q-6 13 -17 23q-10 10 -23 15q-12 5 -28 5q-15 0 -28 -5q-12 -5 -23 -15t-16 -23t-5 -28q0 -16 5 -29t16 -23t23 -14q13 -5 28 -5q16 0 28 5q13 4 23 14z" />
    <glyph glyph-name="slash" unicode="/" 
d="M65 -48h95q98 198 393 790h-95q-99 -197 -393 -790z" />
    <glyph glyph-name="zero" unicode="0" 
d="M489 79q16 22 27 50t19 61q7 34 11 74t4 86t-4 86t-11 74q-8 34 -19 62t-27 51q-30 46 -76 69q-45 23 -105 23t-105 -23t-75 -69q-31 -46 -46 -115q-15 -68 -15 -158t15 -157q15 -68 46 -114q30 -46 75 -69t105 -23t105 23q46 23 76 69zM167 247q-4 23 -6 47t-2 48
q0 38 2 70q3 33 8 60t11 49q7 22 16 39q18 37 46 54q28 18 66 18t66 -18q28 -17 45 -54l-126 -156t-126 -157zM452 456q4 -23 6 -47q2 -23 2 -47q0 -38 -2 -70q-2 -33 -7 -60t-12 -49q-7 -21 -16 -39q-18 -37 -46 -54q-28 -18 -65 -18q-38 0 -67 18q-28 17 -46 54
q64 78 127 155q63 78 126 157z" />
    <glyph glyph-name="one" unicode="1" 
d="M129 0h378v82h-142v619h-94q-13 -10 -41 -31t-55 -40q-15 -11 -27 -20t-19 -15q0 -36 2 -109q13 10 41 31q28 22 55 42q14 11 26 20l20 15v-512h-144v-82z" />
    <glyph glyph-name="two" unicode="2" 
d="M76 0h459v82h-349l31 31q14 13 24 24t19 20q10 9 20 17l17 17l16 16l18 16q9 9 18 19l25 25q11 12 21 23t19 20t16 17q14 15 25 28t19 25q9 11 16 22t13 23q11 23 16 47q5 23 5 46q0 22 -4 43q-4 20 -13 38t-21 33t-27 27q-17 14 -37 25t-43 17q-23 7 -47 11q-24 3 -50 3
q-25 -2 -50 -6q-24 -5 -49 -12q-37 -15 -60 -26q-24 -12 -43 -22q0 -29 1 -87q56 31 106 51q50 19 96 22q32 0 57 -9q26 -8 44 -25q18 -16 28 -39q9 -23 9 -52q0 -18 -5 -37q-4 -18 -13 -37q-5 -10 -11 -20t-14 -21q-8 -10 -18 -23q-11 -13 -24 -28q-5 -5 -9 -11
q-5 -6 -10 -10q-8 -9 -26 -27l-22 -22q-12 -13 -29 -30q-23 -23 -44 -45l-40 -40q-20 -19 -36 -36q-17 -17 -32 -31q-6 -6 -9 -13t-3 -16v-63z" />
    <glyph glyph-name="three" unicode="3" 
d="M394 0q24 7 45 18q21 10 38 24q35 28 52 66t17 86q0 16 -3 32q-2 16 -6 31q-5 15 -13 28q-7 13 -17 25q-19 23 -48 40q-28 17 -65 26q33 8 58 22q25 13 42 32q8 9 14 20q7 11 11 23q5 12 7 26q2 13 2 28q0 43 -16 77t-48 60q-16 13 -36 22t-42 15q-22 7 -46 10
q-24 4 -50 4q-20 0 -42 -2q-21 -3 -43 -6q-24 -4 -51 -10q-26 -5 -57 -13v-87q26 10 51 17q25 6 49 11q24 4 47 7q22 3 43 3q35 0 61 -7q27 -7 44 -22q18 -14 27 -35q9 -20 9 -47t-10 -47q-10 -21 -29 -35t-46 -21t-62 -7h-77v-78h77q38 0 68 -9t52 -27q23 -18 34 -42
q10 -25 10 -56q0 -33 -10 -58q-11 -25 -34 -43q-22 -17 -54 -26q-32 -8 -74 -8h-24q-12 1 -25 3q-12 1 -24 3q-13 3 -25 6q-13 3 -25 7q-13 5 -25 9q-12 5 -25 10q-12 6 -25 12v-95q14 -5 27 -9t27 -7t26 -6q13 -4 24 -5q14 -2 27 -4l26 -2q14 -1 26 -2h25q31 0 59 3t52 10z
" />
    <glyph glyph-name="four" unicode="4" 
d="M367 0h90v167h119v78h-119v456h-135q-19 -28 -43 -66q-24 -37 -51 -79q-50 -77 -102 -157q-51 -80 -86 -134v-98h327v-167zM136 245q10 14 22 33t26 41q25 39 51 80t44 68q18 28 49 74q31 47 50 74v-370h-242z" />
    <glyph glyph-name="five" unicode="5" 
d="M380 3q24 9 46 20q21 12 38 27q35 32 53 76t18 100q0 55 -17 98t-51 75q-16 15 -36 27q-19 12 -42 20q-23 9 -50 13q-26 5 -56 5q-13 0 -24 -1t-20 -2q-11 -2 -22 -5t-21 -6v172h298v79h-391v-352q17 9 36 15q19 7 38 12q19 4 39 6q19 2 38 2q23 0 43 -3t36 -8
q16 -6 29 -13q13 -8 24 -17q11 -10 20 -22q9 -13 15 -27q6 -15 9 -32t3 -38q0 -37 -11 -67q-12 -29 -34 -49q-22 -21 -55 -31t-77 -10q-23 0 -46 2q-23 3 -46 9q-23 5 -46 14t-46 21v-97q10 -3 20 -7q10 -3 21 -6q10 -3 22 -5q12 -3 25 -4q12 -2 25 -3t27 -2t26 -2h24
q34 0 64 4q29 4 54 12z" />
    <glyph glyph-name="six" unicode="6" 
d="M489 50q30 31 46 75q15 44 15 101q0 56 -15 100t-45 75q-29 32 -70 47q-41 16 -92 16q-30 0 -55 -6t-47 -19q-21 -13 -38 -31q-16 -18 -28 -41q1 59 15 106q13 47 38 82q34 35 69 54q36 18 73 19q9 0 18 -1h19t18 -2q10 -1 18 -3q18 -5 35 -11q16 -7 33 -16v88
q-8 3 -17 5q-8 2 -17 4q-9 3 -19 5q-9 2 -19 3q-7 2 -15 3h-16h-6h-20q-9 -1 -18 -1q-51 0 -100 -22t-93 -65q-45 -42 -67 -111t-22 -164q0 -43 3 -81q3 -39 11 -72t19 -61q12 -28 28 -51q15 -22 33 -37q19 -16 42 -27q23 -10 51 -16q28 -5 62 -5q56 0 100 15q44 14 73 45z
M256 76q-13 5 -23 13q-11 9 -19 19t-16 22q-7 12 -12 27q-4 14 -7 31q-2 17 -2 37t2 37q3 18 7 33q5 15 12 28q8 13 16 23t19 18q10 8 23 14q13 5 28 8q16 3 33 3q16 0 30 -2t27 -7t24 -13q10 -8 19 -19q17 -21 25 -51q9 -31 9 -72q0 -38 -9 -68q-8 -30 -25 -51
q-17 -20 -42 -31q-26 -10 -59 -10q-16 0 -32 2q-15 3 -28 9z" />
    <glyph glyph-name="seven" unicode="7" 
d="M155 0h90q34 81 136 325h104h82q-1 21 0 40v36h-156l108 261v39h-465v-79h361q-20 -49 -45 -106q-24 -57 -47 -112h-85h-86h-36h-23v-38t-1 -39h49h73h42h38q-46 -109 -139 -327z" />
    <glyph glyph-name="eight" unicode="8" 
d="M486 40q16 13 28 28q12 16 21 34q8 19 12 41t4 46q0 37 -8 67q-7 30 -23 54q-15 24 -42 40q-28 15 -65 23q33 7 56 22q23 14 37 35t21 47t7 57q0 41 -16 74q-15 33 -45 58q-30 24 -71 36q-42 13 -94 13q-27 0 -50 -4q-23 -3 -44 -10q-21 -6 -38 -14q-18 -9 -33 -21
q-30 -25 -45 -58t-15 -73q0 -15 2 -29q3 -15 7 -28q5 -13 12 -25t16 -23t18 -20q8 -9 18 -16q9 -7 21 -12q11 -5 27 -9q-38 -8 -62 -23q-25 -16 -37 -40q-19 -24 -29 -54t-10 -68q0 -48 16 -85q16 -38 48 -64t76 -39t101 -13t102 13t77 40zM215 437q-16 15 -24 36
q-8 22 -8 50q0 29 8 51t24 37q16 16 40 23q23 7 53 7q31 0 54 -7t39 -23q17 -15 24 -37q8 -22 8 -51q0 -28 -8 -50q-7 -21 -24 -36q-16 -14 -39 -22q-23 -7 -54 -7q-30 0 -53 7q-24 8 -40 22zM204 97q-19 19 -28 44q-9 24 -9 57q0 32 9 57t28 43q18 18 44 26q26 9 60 9
t60 -9q26 -8 45 -26q8 -8 15 -19t11 -23q5 -12 8 -27t3 -32q0 -33 -10 -58q-9 -25 -27 -43q-19 -17 -45 -26q-26 -10 -59 -10q-34 0 -60 10q-26 9 -45 27z" />
    <glyph glyph-name="nine" unicode="9" 
d="M465 82q18 24 33 52q15 29 26 64q12 34 17 75q6 41 6 87q0 43 -4 80q-4 38 -11 72q-6 34 -18 62q-11 28 -28 52q-14 21 -33 37q-19 17 -42 28q-23 12 -51 18t-63 6q-57 0 -99 -16q-43 -15 -73 -46q-16 -16 -28 -35q-11 -19 -19 -43q-8 -23 -11 -47q-4 -25 -4 -53
q0 -56 15 -100q15 -45 45 -76t70 -47q41 -15 92 -15q30 0 56 6q25 7 46 19q10 6 20 13q10 8 18 17t16 19q7 11 13 23q-6 -65 -20 -113q-15 -49 -40 -84q-24 -34 -59 -51q-34 -18 -77 -19q-18 0 -36 1t-37 2q-15 3 -32 9q-18 5 -35 12v-78q17 -4 37 -8q19 -4 40 -8
q10 -1 19 -1q8 -1 15 -1h20q12 -1 30 -2q63 4 110 26q47 23 76 63zM197 352q-17 21 -26 52q-8 30 -8 71t8 72q9 31 26 52q8 11 19 18q11 8 24 13q13 4 27 7q15 3 30 3q18 0 32 -3q15 -3 28 -8q13 -6 24 -14q10 -8 18 -18q19 -22 28 -52q9 -31 9 -70t-9 -69t-28 -52
q-8 -10 -18 -18q-11 -8 -24 -13q-13 -6 -28 -9q-14 -3 -32 -3q-33 0 -59 10q-25 11 -41 31z" />
    <glyph glyph-name="colon" unicode=":" 
d="M357 130q11 10 17 23q5 13 5 28q0 16 -5 29q-5 12 -16 22q-10 10 -23 15t-29 5q-15 0 -28 -5q-12 -5 -23 -15t-16 -22q-5 -13 -5 -29q0 -15 6 -28q5 -13 15 -23t22 -15q13 -4 28 -4q16 0 29 4q13 5 23 15zM358 456q11 9 17 22q5 13 5 29t-5 29q-6 12 -17 22
q-10 10 -23 15q-12 5 -28 5q-15 0 -28 -5t-23 -15q-11 -10 -16 -23q-4 -13 -4 -28q0 -16 4 -29q5 -13 16 -22q10 -10 23 -15t28 -5q16 0 28 5q13 5 23 15z" />
    <glyph glyph-name="semicolon" unicode=";" 
d="M358 456q11 9 17 22q5 13 5 29t-5 29q-6 12 -17 22q-10 10 -23 15q-12 5 -28 5q-15 0 -28 -5t-23 -15q-11 -10 -16 -23q-4 -13 -4 -28q0 -16 4 -29q5 -13 16 -22q10 -10 23 -15t28 -5q16 0 28 5q13 5 23 15zM264 52q-8 -11 -23 -27q-15 -15 -37 -34q5 -7 9 -13l8 -12
q4 -5 9 -11q4 -7 10 -14q16 10 33 26t36 37q19 22 35 47q15 25 26 54q2 7 4 15q1 8 3 17q1 9 2 19q1 9 1 20v6q0 16 -5 29q-6 12 -17 22q-10 10 -23 15q-12 5 -28 5q-15 0 -28 -5q-12 -5 -23 -15t-16 -22q-4 -13 -4 -29q0 -15 4 -28q5 -13 15 -23t19 -15q10 -4 19 -4
q-7 -19 -14 -34q-6 -14 -15 -26z" />
    <glyph glyph-name="less" unicode="&#x3c;" 
d="M569 116v86l-130 45t-153 54q-40 14 -77 27t-65 22q52 19 130 46q78 28 154 55q40 14 77 27q36 13 64 23v86q-132 -49 -528 -197v-78z" />
    <glyph glyph-name="equal" unicode="=" 
d="M45 421h528v80h-528v-80zM45 205h528v81h-528v-81z" />
    <glyph glyph-name="greater" unicode="&#x3e;" 
d="M572 310v78q-132 49 -528 197v-85q28 -10 65 -23q36 -13 77 -27q75 -27 153 -55q78 -27 130 -46l-130 -45q-78 -28 -153 -55q-41 -14 -77 -27q-37 -13 -65 -22v-86z" />
    <glyph glyph-name="question" unicode="?" 
d="M257 263h96v27v28q0 25 16 44q15 19 38 36q15 12 31 23q17 11 32 23q30 24 52 54t23 74v4q0 73 -58 115q-59 44 -165 44q-78 0 -143 -42q-65 -43 -98 -95q25 -16 36 -23q10 -6 36 -23q28 48 72 75q45 27 87 30q14 0 31 -1t34 -4q31 -7 56 -25q24 -19 24 -55q0 -16 -8 -30
q-7 -14 -19 -26q-22 -24 -55 -45t-61 -47q-24 -21 -40 -47t-17 -60v-54zM360 18q11 10 16 23q6 13 6 28q0 16 -6 29q-5 13 -16 23t-23 14q-13 5 -28 5t-28 -5q-13 -4 -23 -14q-11 -10 -16 -23t-5 -29q0 -15 5 -28t16 -23q10 -10 23 -14q13 -5 28 -5t28 5q12 4 23 14z" />
    <glyph glyph-name="at" unicode="@" 
d="M561 0q52 25 76 46q25 22 37 32q-12 14 -26 30t-27 32q-52 -49 -111 -70q-58 -20 -139 -21q-36 1 -66 8q-29 7 -53 19t-45 28q-22 16 -40 35q-40 49 -60 102q-20 54 -22 113q-2 53 13 104q16 51 49 100q14 20 32 36q18 17 40 31q22 13 49 23q26 9 56 14q46 3 82 -2
q35 -6 76 -25q26 -12 44 -28q17 -15 26 -31q18 -30 5 -53q-12 -24 -57 -21q-12 13 -21 22q-8 9 -14 14q-7 4 -15 9q-9 5 -20 11q-16 8 -31 11q-14 4 -27 3q-19 0 -37 -4q-17 -4 -34 -12t-32 -21q-15 -12 -30 -28q-13 -15 -24 -33q-10 -18 -17 -38q-6 -20 -9 -41
q-3 -22 -3 -45q0 -25 4 -46t10 -39q7 -17 17 -33t22 -30q33 -29 56 -43q23 -13 64 -17q12 -1 27 1q14 3 31 11q19 8 33 20q15 13 25 30v-45q18 0 74 -1v270q19 0 33 7q15 6 26 17q19 19 27 45t8 44q0 20 -5 47q-6 26 -26 50q-44 49 -112 74q-69 24 -172 24q-26 0 -56 -7
q-30 -6 -62 -19t-60 -32t-52 -44q-25 -27 -44 -57t-32 -63q-14 -33 -20 -73q-7 -40 -7 -88q0 -51 7 -91t22 -69q14 -30 34 -58q20 -29 46 -57q28 -30 61 -51t72 -33q38 -12 79 -19q41 -6 83 -6q44 0 89 9t73 22zM299 261q-11 16 -18 40t-10 56q2 31 8 54q7 23 18 38
q15 19 32 28q18 9 38 8q18 0 35 -8t32 -24q16 -18 23 -41q7 -24 7 -55q0 -29 -7 -52q-7 -24 -22 -41q-14 -17 -31 -26t-36 -9t-36 8t-33 24z" />
    <glyph glyph-name="A" unicode="A" 
d="M18 0h105q10 35 27 92t27 91h261q10 -34 28 -91t28 -92h104q-15 46 -35 106q-19 60 -41 127q-41 125 -82 254q-42 129 -70 214h-123q-15 -46 -35 -106t-41 -127q-41 -124 -83 -254q-42 -129 -70 -214zM202 259q7 24 16 55q9 30 19 65q19 63 39 129q19 67 32 110
q7 -23 16 -54t20 -65q19 -64 38 -130q20 -66 33 -110h-213z" />
    <glyph glyph-name="B" unicode="B" 
d="M79 0h227q65 0 114 12q50 13 84 37q33 25 49 60q17 36 17 84q0 38 -10 68q-10 31 -31 55q-14 20 -41 34q-28 15 -69 26q17 7 30 12q13 4 18 8t11 10q6 7 14 16q7 9 13 20t11 23t6 27q2 15 2 31q-1 43 -17 76q-15 33 -45 56q-32 23 -76 35q-43 11 -100 11h-207v-701z
M175 413v211h127q35 0 61 -6q25 -6 41 -18q17 -11 25 -31q8 -19 8 -47t-8 -49t-25 -34q-16 -13 -41 -20q-26 -6 -61 -6h-127zM175 78v257h149q40 0 70 -8t50 -24t30 -41q10 -26 10 -60q0 -33 -10 -57q-9 -23 -28 -37q-18 -15 -49 -23q-30 -7 -73 -7h-149z" />
    <glyph glyph-name="C" unicode="C" 
d="M458 -4q20 5 39 12q20 7 40 17v97q-19 -15 -39 -25t-40 -18q-22 -8 -43 -12q-22 -4 -43 -4q-99 0 -148 72t-49 215q0 72 12 126q13 54 37 90q25 36 62 54q36 17 85 17q21 0 43 -3q21 -4 43 -11q21 -8 41 -19t39 -25v97q-20 10 -40 17q-19 8 -38 13q-19 4 -42 6
q-22 3 -46 3q-47 0 -88 -12q-40 -11 -74 -32q-34 -22 -60 -53q-26 -32 -44 -72q-17 -41 -26 -90t-9 -107q0 -86 19 -152q20 -67 59 -115q20 -25 44 -42q24 -18 53 -30q28 -11 59 -17t67 -6q23 0 45 2t42 7z" />
    <glyph glyph-name="D" unicode="D" 
d="M69 0h189q71 0 126 22q55 21 95 64q38 43 57 109q20 65 20 155q0 91 -16 157t-47 109q-32 43 -91 64t-144 21h-189v-701zM170 78v546h86q31 0 54 -4t38 -11q16 -7 29 -18q14 -10 27 -26q26 -29 38 -83q12 -53 12 -131q0 -77 -13 -131q-12 -54 -38 -83q-24 -30 -61 -44
q-37 -15 -86 -15h-86z" />
    <glyph glyph-name="E" unicode="E" 
d="M94 0h453v80h-352v254h309v80h-309v208h351v79h-452v-701z" />
    <glyph glyph-name="F" unicode="F" 
d="M117 0h98v328h246v76h-246v222h338v76h-134h-157h-79q-38 -1 -66 -1v-701z" />
    <glyph glyph-name="G" unicode="G" 
d="M461 5q25 9 48 22q22 13 43 30v303h-230v-78h134v-189q-6 -4 -12 -7q-5 -3 -11 -6q-5 -3 -11 -6q-6 -2 -12 -3q-13 -4 -28 -6t-31 -2q-50 0 -86 18t-60 53q-12 18 -21 40t-15 48t-9 58t-3 69q0 73 12 127t37 90q24 36 62 54q37 17 85 17q12 0 23 -1t22 -3q12 -2 23 -5
q12 -3 22 -7t20 -10q10 -5 20 -12l22 -14q11 -8 21 -18v98q-19 12 -40 21q-20 10 -43 16q-21 7 -44 10t-48 3q-70 0 -125 -25q-55 -24 -95 -72q-40 -47 -60 -115q-20 -67 -20 -154q0 -85 20 -152q19 -67 58 -115q19 -24 43 -41t51 -30q28 -12 59 -18q32 -6 68 -6q30 0 58 4
q27 5 53 14z" />
    <glyph glyph-name="H" unicode="H" 
d="M69 0h101v334h276v-334h102v701h-102v-287h-276v287h-101v-701z" />
    <glyph glyph-name="I" unicode="I" 
d="M100 0h415v80h-157v542h157v79h-415v-79h157v-542h-157v-80z" />
    <glyph glyph-name="J" unicode="J" 
d="M382 10q25 13 43 31q18 19 30 46q11 27 17 62q6 36 6 80v472h-292v-79h191v-393q0 -47 -7 -80t-21 -51q-7 -9 -17 -15q-11 -6 -25 -9t-29 -5q-15 -1 -32 -1h-103h-82v-77h93h112q41 0 70 5q28 4 46 14z" />
    <glyph glyph-name="K" unicode="K" 
d="M69 0h101v274q19 20 77 77q16 -23 37 -53t44 -64q43 -62 88 -127q45 -64 74 -107h122q-19 27 -45 63t-54 75q-53 74 -108 150t-92 127q97 95 291 286h-119q-20 -20 -48 -47q-27 -27 -57 -56l-114 -114q-58 -57 -96 -95v312h-101v-701z" />
    <glyph glyph-name="L" unicode="L" 
d="M108 0h461v80h-360v621h-101v-701z" />
    <glyph glyph-name="M" unicode="M" 
d="M38 0h88v614q17 -44 44 -113q27 -68 52 -134q14 -35 27 -67l21 -56h77q10 24 22 56t26 67q26 66 52 134q27 69 45 113v-614h88v701h-136q-8 -22 -20 -52q-12 -29 -25 -62q-24 -61 -49 -124q-25 -64 -42 -106q-45 115 -135 344h-135v-701z" />
    <glyph glyph-name="N" unicode="N" 
d="M70 0h97v571q17 -37 38 -86q22 -49 46 -104q44 -101 91 -206q46 -105 77 -175h128v701h-97v-571q-17 38 -39 87q-21 49 -45 103q-45 102 -91 207t-77 174h-128v-701z" />
    <glyph glyph-name="O" unicode="O" 
d="M417 12q24 11 44 28t36 41q30 45 46 113q15 67 15 156q0 90 -15 157q-16 67 -46 113q-16 23 -36 40t-44 28t-51 16q-27 6 -58 6q-62 0 -109 -23q-47 -22 -78 -67t-47 -112q-16 -68 -16 -158t16 -157q15 -68 46 -112q31 -45 78 -67q47 -23 110 -23q31 0 58 5q27 6 51 16z
M198 134q-17 34 -26 88q-8 54 -8 128q0 75 8 129q9 53 26 87q17 33 45 50t65 17q39 0 66 -17q28 -17 45 -50q17 -32 25 -86q9 -55 9 -130t-9 -129q-8 -55 -25 -87q-17 -33 -45 -49q-27 -16 -66 -16q-37 0 -65 16t-45 49z" />
    <glyph glyph-name="P" unicode="P" 
d="M86 0h101v282h117q63 0 111 13q47 13 79 40t48 66t16 91q0 24 -4 47t-11 43q-8 20 -20 36q-13 16 -29 30q-33 27 -81 40q-47 13 -109 13h-218v-701zM187 360v264h117q36 0 63 -9q27 -8 47 -25q19 -18 29 -42t10 -55q0 -32 -10 -56t-29 -42q-10 -7 -21 -14t-24 -11
q-14 -5 -30 -7q-16 -3 -35 -3h-117z" />
    <glyph glyph-name="Q" unicode="Q" 
d="M417 13q24 11 44 28t36 41q30 45 46 112q15 67 15 156q0 90 -15 157q-16 67 -46 113q-16 23 -36 40t-44 28t-51 16q-27 6 -58 6q-62 0 -109 -23q-47 -22 -78 -67t-47 -112q-16 -68 -16 -158t16 -157q15 -68 46 -112q31 -45 78 -67t110 -22q31 0 58 5q27 6 51 16zM198 135
q-17 34 -26 88q-8 53 -8 127q0 75 8 129q9 53 26 87q17 33 45 50t65 17q39 0 66 -17q28 -17 45 -50q17 -32 25 -86q9 -55 9 -130t-9 -129q-8 -54 -25 -86q-17 -33 -45 -50q-27 -16 -66 -16q-37 0 -65 16q-28 17 -45 50zM429 43q31 -35 61 -70l62 -70h64v59l-60 70t-60 69
q-17 -14 -34 -29q-16 -14 -33 -29z" />
    <glyph glyph-name="R" unicode="R" 
d="M72 0h101v296h49q12 0 24 -1h22h37q9 -18 17 -32q7 -15 13 -25q5 -11 13 -26q8 -16 18 -35q16 -33 44 -88q28 -56 45 -89h107q-19 36 -47 90q-29 54 -54 101q-10 19 -16 31q-7 12 -10 19q-3 6 -12 23q-10 17 -26 46q26 13 49 27q22 15 41 33q24 26 35 56q12 30 12 75
q0 44 -17 81q-16 37 -49 67q-27 26 -71 39q-45 13 -106 13h-219v-701zM173 375v249h118q18 0 34 -2t29 -7q13 -4 24 -10q10 -5 19 -13q19 -16 28 -40q10 -24 10 -54q0 -31 -9 -54t-27 -38q-17 -16 -46 -24q-29 -7 -69 -7h-111z" />
    <glyph glyph-name="S" unicode="S" 
d="M483 39q16 12 28 28q12 15 20 34q9 20 13 42q5 23 5 50q0 42 -12 75q-12 34 -36 59q-25 25 -63 43t-90 28q-27 6 -33 7q-7 2 -20 5q-37 7 -62 18t-39 24q-7 6 -12 12q-5 7 -9 15q-4 9 -5 18q-2 10 -2 22q0 28 11 49q10 22 31 38t49 24q27 7 64 7q23 0 46 -3q24 -3 47 -10
l22 -8t23 -10q11 -5 23 -11t24 -13v96q-13 4 -26 9q-13 4 -25 7q-13 3 -25 6q-13 3 -24 6q-24 4 -47 6q-22 3 -44 3q-28 0 -53 -4q-26 -5 -48 -12t-41 -17q-20 -11 -36 -24q-34 -27 -50 -65q-17 -39 -17 -86q0 -38 11 -68q12 -30 36 -52q12 -12 28 -22q15 -10 34 -18t41 -14
q22 -7 47 -12q27 -7 34 -8t21 -4q18 -4 33 -9q16 -5 28 -9q12 -5 23 -11q10 -7 18 -15q15 -14 22 -32q7 -19 7 -45q0 -30 -11 -53q-11 -24 -32 -40q-22 -16 -51 -24q-30 -8 -68 -8q-26 0 -52 5q-25 4 -51 12t-53 21q-28 12 -56 29v-101q27 -10 53 -19q26 -8 53 -13t54 -8
q26 -2 53 -2q63 0 111 13q47 13 80 39z" />
    <glyph glyph-name="T" unicode="T" 
d="M258 0h101v622h234v79h-569v-79h234v-622z" />
    <glyph glyph-name="U" unicode="U" 
d="M368 -10q14 1 26 4q13 3 22 6q10 3 20 8q10 4 20 9q10 6 19 11q9 6 18 13q17 15 29 34t19 42q3 10 5 25q3 14 5 31t3 41q1 25 1 55v432h-101v-476q0 -25 -1 -43q0 -19 -1 -29q-2 -10 -5 -18t-7 -15q-7 -13 -19 -24q-11 -10 -27 -18q-15 -7 -36 -11t-50 -4q-27 0 -49 4
q-21 4 -37 11q-15 7 -27 17q-11 11 -19 25q-4 6 -7 14q-3 9 -4 20q-2 10 -2 29v43v475h-103v-432q0 -29 2 -52q1 -23 3 -41q1 -18 4 -33t7 -26q4 -13 9 -24t11 -20q6 -10 13 -17q7 -8 15 -15t17 -13q9 -5 20 -11q11 -5 20 -9q10 -5 20 -8q32 -7 59 -10q28 -3 49 -3h29
q15 1 30 3z" />
    <glyph glyph-name="V" unicode="V" 
d="M247 0h123q14 46 33 106q18 61 39 127q39 125 79 254t67 214h-99q-11 -40 -27 -93q-15 -53 -33 -111q-32 -110 -65 -223q-34 -113 -56 -188q-22 75 -55 188q-34 113 -66 223q-17 58 -33 111q-15 53 -27 93h-98q14 -46 33 -106q18 -60 39 -127q39 -125 79 -254t67 -214z
" />
    <glyph glyph-name="W" unicode="W" 
d="M112 0h98q4 22 9 52q5 29 10 64q11 64 23 140q12 75 24 146q9 59 18 109q8 51 14 85l15 -85q8 -51 18 -110q11 -70 24 -146q12 -75 22 -139q6 -35 11 -64q4 -30 8 -52h99q13 85 33 214t40 254q10 67 20 127q9 60 16 106h-86q-19 -140 -77 -561q-6 32 -13 80
q-8 48 -16 103q-16 103 -32 211q-17 108 -26 167h-112q-5 -32 -13 -79q-7 -48 -15 -103q-16 -103 -32 -211t-26 -167q-5 37 -12 85t-14 102q-14 99 -28 202t-24 171h-86q7 -46 17 -106q9 -60 20 -127q19 -125 39 -254t34 -214z" />
    <glyph glyph-name="X" unicode="X" 
d="M9 0h109q13 20 30 46t36 55q35 53 71 109q36 55 60 92q23 -37 56 -92q34 -56 67 -109q17 -29 33 -55t28 -46h108q-15 24 -36 56t-43 68q-43 66 -87 134t-73 114q14 22 34 50q19 28 40 60q40 58 81 119q40 60 68 100h-109q-11 -17 -25 -40t-30 -48q-30 -47 -61 -95
q-30 -48 -51 -81q-20 33 -50 81q-30 49 -59 95q-16 26 -30 48q-14 23 -24 40h-109q27 -40 66 -101q40 -60 78 -118q21 -32 39 -60q19 -29 33 -50q-30 -46 -76 -114t-91 -134q-23 -36 -45 -68q-21 -32 -38 -56z" />
    <glyph glyph-name="Y" unicode="Y" 
d="M257 0h101v315q16 26 37 59q20 33 43 70q43 68 87 139q44 72 73 118h-109q-11 -20 -27 -46q-15 -27 -33 -57q-32 -54 -65 -111q-34 -57 -56 -95q-12 21 -27 47q-16 27 -33 56q-33 55 -66 112q-34 56 -56 94h-108q16 -25 37 -58q20 -33 43 -70q42 -69 86 -140t73 -118
v-315z" />
    <glyph glyph-name="Z" unicode="Z" 
d="M55 0h506v80q-103 -1 -411 -2q43 58 175 233h235q0 20 -1 78h-187l188 236v76h-506v-79h411q-44 -57 -178 -228h-232q1 -19 2 -77h187q-47 -61 -189 -244v-73z" />
    <glyph glyph-name="bracketleft" unicode="[" 
d="M148 -90h313v75h-220v733h220v74h-313v-882z" />
    <glyph glyph-name="backslash" unicode="\" 
d="M158 745h-96q32 -62 74 -148q43 -85 89 -178l50 -102t50 -100q37 -75 71 -143l60 -120h96l-60 120t-71 143q-25 50 -50 101q-26 50 -50 101q-47 93 -90 178q-42 86 -73 148z" />
    <glyph glyph-name="bracketright" unicode="]" 
d="M154 -89h312v881h-312v-74h220v-732h-220v-75z" />
    <glyph glyph-name="asciicircum" unicode="^" 
d="M61 433h111q9 13 21 29q11 16 24 34q25 34 50 70q25 35 41 58q17 -23 42 -58q25 -36 49 -70q13 -18 25 -34t20 -29h111q-13 18 -31 41q-17 23 -36 48q-37 48 -74 98q-37 49 -62 81h-88q-13 -17 -30 -40q-18 -23 -37 -49q-36 -48 -74 -97q-37 -49 -62 -82z" />
    <glyph glyph-name="underscore" unicode="_" 
d="M-9 -89h635v76h-635v-76z" />
    <glyph glyph-name="grave" unicode="`" 
d="M425 563q-18 25 -45 63t-53 75q-14 20 -27 38t-22 31h-111q10 -13 22 -31q13 -18 27 -38q25 -36 52 -75q27 -38 45 -63h112z" />
    <glyph glyph-name="a" unicode="a" 
d="M366 4q26 9 46 26q21 16 35 40q0 -11 1 -19q1 -7 1 -12t-1 -15q0 -9 -1 -24q42 -1 52 -1h31q1 21 1 45v51v98v107q0 35 -2 62q-2 26 -6 44q-5 24 -17 43q-12 20 -29 34q-17 15 -37 26q-21 11 -45 17t-48 10q-24 3 -49 3t-45 -1h-36q-16 -1 -35 -1h-40v-73q20 1 39 1
q18 1 35 1h84q33 0 59 -7q25 -7 43 -20q19 -13 28 -36q8 -23 8 -57v-13h-123q-32 0 -62 -5q-30 -4 -58 -12q-29 -7 -51 -20q-23 -14 -41 -33q-17 -19 -26 -46t-9 -60q0 -42 13 -73q14 -31 40 -53q26 -23 60 -33q33 -11 74 -11q29 0 57 4q27 4 54 13zM193 83q-17 12 -25 31
t-8 44q0 22 6 39t18 28q13 12 28 19q15 8 34 12q18 4 37 6t39 2h116v-18q0 -25 -4 -48t-12 -44q-9 -22 -22 -39t-30 -30q-18 -13 -41 -20t-51 -7q-27 0 -48 7q-21 6 -37 18z" />
    <glyph glyph-name="b" unicode="b" 
d="M443 11q21 13 37 29q17 16 29 36t21 42t15 47q5 24 8 49t3 49q0 25 -3 49q-3 25 -8 49q-6 25 -14 47q-9 23 -21 43t-29 36q-16 16 -37 28q-20 12 -46 18q-25 6 -55 6q-25 0 -48 -5t-43 -15t-36 -25t-28 -35v298h-92v-757h83q2 12 4 31q3 19 5 36q24 -40 63 -60
q38 -20 91 -20q30 0 55 6q26 6 46 18zM263 79q-14 10 -25 22q-11 13 -19 28q-7 15 -13 32q-5 17 -7 35q-3 17 -4 34q-2 17 -2 33t2 33q1 17 4 35q2 17 7 34q6 16 13 31q8 16 19 28t25 22t32 15q19 5 42 5t42 -5t33 -15t25 -22t18 -28q8 -15 13 -32t7 -34q2 -18 4 -34
q1 -17 1 -33t-1 -33l-4 -34q-2 -18 -7 -35t-13 -32q-7 -15 -18 -28q-11 -12 -25 -22t-33 -15t-42 -5t-42 5q-18 5 -32 15z" />
    <glyph glyph-name="c" unicode="c" 
d="M515 27v90q-16 -15 -34 -26q-17 -10 -37 -17q-19 -7 -39 -11t-43 -4q-33 0 -60 7t-47 21t-35 32q-14 19 -23 42q-10 23 -14 49t-4 53q0 29 5 54q4 26 13 49t23 41q15 17 35 31t47 21t60 7q24 0 44 -4t37 -10q18 -7 36 -19q18 -11 36 -25v91q-19 10 -39 17q-19 8 -38 13
q-18 6 -39 8q-22 2 -45 2q-44 0 -82 -9q-37 -9 -67 -26q-30 -18 -54 -42q-23 -24 -38 -55q-16 -32 -23 -68q-8 -35 -8 -76t8 -77q7 -36 23 -67q15 -32 38 -56t53 -41q30 -18 67 -27q37 -8 81 -8q46 0 86 10q41 10 77 30z" />
    <glyph glyph-name="d" unicode="d" 
d="M429 67q2 -13 5 -34t4 -33h83v757h-92v-298q-11 20 -27 35t-35 25q-20 10 -42 15t-46 5q-50 0 -90 -18t-69 -55t-44 -87t-15 -113q0 -25 3 -50t9 -49q5 -25 14 -48q8 -22 21 -43q12 -21 29 -37q16 -15 37 -28q21 -12 47 -18t57 -6q51 0 89 20q37 20 62 60zM223 79
q-13 10 -23 22q-11 13 -18 28t-11 32q-5 17 -7 35l-4 34q-1 17 -1 33t1 33q2 17 4 35q2 17 7 34q4 16 11 31q7 16 18 28q10 12 23 22t31 15t40 5q21 0 39 -5q17 -5 31 -15q13 -10 23 -22q11 -12 17 -28q7 -15 13 -31q5 -17 7 -34q2 -18 4 -35q1 -17 1 -33t-1 -33l-4 -34
q-2 -18 -7 -35q-6 -17 -13 -32q-6 -15 -17 -28q-10 -12 -23 -22q-14 -10 -31 -15q-18 -5 -39 -5q-22 0 -40 5t-31 15z" />
    <glyph glyph-name="e" unicode="e" 
d="M438 -3q25 5 49 13q24 7 48 17v86q-24 -11 -47 -21t-48 -17q-24 -8 -49 -12t-51 -4q-45 0 -79 13q-34 12 -57 37q-23 24 -35 57q-11 32 -11 74v3h398v42q0 60 -15 106q-16 47 -46 81q-31 34 -75 50q-43 17 -99 17q-43 0 -78 -10q-36 -9 -65 -27q-28 -19 -50 -44t-37 -57
q-14 -31 -21 -67q-8 -36 -8 -75q0 -63 19 -113q18 -50 55 -87q37 -36 88 -54q50 -18 115 -18q25 0 50 2q25 3 49 8zM162 310q2 22 8 42q6 19 15 37q10 18 24 31q14 14 31 24q17 11 38 17q21 5 47 5q25 0 45 -5q20 -6 36 -16q15 -10 26 -24q12 -14 19 -32q6 -18 10 -37
q4 -20 4 -42h-303z" />
    <glyph glyph-name="f" unicode="f" 
d="M231 0h93v401h169v76h-169v102q0 24 4 41q5 17 15 26t27 14t42 5h140v71h-146q-45 0 -78 -10q-32 -10 -54 -31l-1 -1l-2 -2q-20 -21 -30 -51q-10 -31 -10 -73v-91h-165v-76h165v-401z" />
    <glyph glyph-name="g" unicode="g" 
d="M478 -187q37 39 46 88q8 50 8 99q1 64 1 160q0 97 1 190v95t1 79h-83v-24q1 -15 1 -28q-14 17 -31 29q-17 13 -38 21q-21 9 -43 13q-23 4 -48 4q-30 0 -55 -6q-26 -6 -47 -18q-20 -12 -37 -28q-17 -15 -30 -35t-22 -43q-10 -22 -15 -45q-5 -24 -8 -48t-3 -48t3 -48t8 -48
t15 -46t22 -42q13 -20 29 -36q17 -15 37 -28q21 -12 47 -18q25 -6 55 -6q26 0 48 3q21 3 40 8q18 6 36 18q18 13 35 33v-36v-41q-1 -60 -34 -106q-34 -46 -100 -48q-36 -1 -89 -2h-102v-78q56 0 119 1q64 1 103 1q45 0 75 18q30 19 55 46zM206 120q-19 26 -29 63
q-9 37 -9 86t10 85q9 37 28 62q18 24 44 37t59 13q22 0 39 -5q18 -5 31 -15q13 -9 23 -21q10 -11 17 -27q7 -14 12 -31q5 -16 7 -33q3 -17 4 -33q1 -17 1 -33q0 -49 -8 -86q-9 -37 -25 -62q-17 -26 -42 -38q-25 -13 -58 -13t-59 12q-26 13 -45 39z" />
    <glyph glyph-name="h" unicode="h" 
d="M97 0h92v298q0 21 4 41q3 20 9 39t17 34t27 27q16 13 36 19q21 6 47 6q27 0 47 -9q20 -8 33 -25q12 -17 18 -42q6 -26 6 -61v-327h92v327q0 27 -3 53t-10 50q-7 25 -20 45t-31 36q-19 16 -45 24t-61 8q-57 2 -99 -18q-41 -20 -67 -62v294h-92v-757z" />
    <glyph glyph-name="i" unicode="i" 
d="M361 622q8 0 11 3q4 4 4 11v81q0 7 -4 10q-3 4 -11 4h-71q-8 0 -12 -4q-4 -3 -4 -10v-81q0 -7 4 -11q4 -3 12 -3h71zM376 0v39q1 19 1 35v45v18q0 21 -1 37v27q0 36 -1 47v26v44v72v39q1 17 1 33v64h-218v-77h127v-262q0 -45 -1 -73v-37v-77h92z" />
    <glyph glyph-name="j" unicode="j" 
d="M420 622q8 0 11 3q3 4 3 11v81q0 7 -3 10q-3 4 -11 4h-73q-8 0 -11 -4q-3 -3 -3 -10v-81q0 -7 3 -11q3 -3 11 -3h73zM118 -252h151q41 0 73 13t54 38q23 25 34 73t11 94v560h-236v-77h144v-483q0 -58 -22 -98t-68 -40h-141v-80z" />
    <glyph glyph-name="k" unicode="k" 
d="M113 0h95v211q13 11 34 30t34 30q14 -17 32 -41q18 -23 37 -49q37 -48 75 -98t63 -83h113q-17 22 -39 50t-46 59q-45 58 -92 119q-47 60 -78 100q14 13 33 30t40 36q39 35 80 72q40 36 67 60h-111q-16 -14 -37 -33q-21 -18 -44 -39q-43 -39 -87 -79q-45 -40 -74 -67v423
h-95v-731z" />
    <glyph glyph-name="l" unicode="l" 
d="M317 0h51v135v145v86v67v77q0 36 1 96t1 96h-234v-77h139q1 -63 1 -104v-59v-77v-178v-207h41z" />
    <glyph glyph-name="m" unicode="m" 
d="M41 0h84v301q0 28 1 51q1 22 3 38t5 29q2 13 6 20q7 14 23 21t41 7q18 0 31 -7q12 -7 19 -20q4 -7 7 -20q3 -12 4 -29q2 -17 3 -39v-51v-301h84v301q0 29 2 51q1 22 2 38q2 16 4 28q3 12 8 20q12 14 28 22q16 7 35 7q20 0 33 -6q12 -7 18 -20q4 -7 7 -19q2 -13 4 -29
q1 -16 2 -39q2 -23 2 -53v-301h84v305q0 69 -7 115q-7 47 -21 72q-14 23 -38 35q-23 12 -57 12q-43 0 -75 -17q-33 -16 -56 -49q-14 33 -36 49q-22 17 -52 17q-44 -1 -75 -15q-30 -15 -47 -44v23q1 15 1 23h-77v-526z" />
    <glyph glyph-name="n" unicode="n" 
d="M97 0h92v298q0 40 9 71q9 30 26 52q18 21 43 32q26 11 59 11q27 0 47 -9q20 -8 34 -25q13 -17 19 -42q7 -26 7 -61v-327h92v327q0 106 -42 159q-43 53 -129 53q-57 0 -98 -23q-41 -22 -67 -69q-1 15 -4 40t-5 39h-83v-526z" />
    <glyph glyph-name="o" unicode="o" 
d="M486 57q31 36 46 87q16 51 16 118q0 68 -16 119q-15 52 -46 87q-30 35 -75 53q-44 18 -103 18q-58 0 -103 -18q-44 -17 -75 -53t-46 -88q-15 -51 -15 -118t15 -118t46 -87q31 -35 76 -53q45 -17 103 -17q59 0 103 17q44 18 74 53zM203 113q-19 26 -28 63q-9 38 -9 87
t9 87t28 64q18 26 44 39q27 13 61 13q35 0 61 -13t45 -39q18 -26 27 -64q10 -38 10 -87t-10 -87q-9 -37 -27 -63q-19 -26 -45 -40t-61 -14q-34 0 -61 14q-26 14 -44 40z" />
    <glyph glyph-name="p" unicode="p" 
d="M95 -253h92v320q23 -40 61 -60t90 -20q50 0 89 18q39 19 69 55q29 37 43 88q15 51 15 115t-14 114q-14 51 -43 88q-30 37 -69 55q-40 19 -90 19q-52 0 -89 -20q-38 -20 -62 -60q-1 12 -4 34q-3 21 -5 33h-83v-779zM235 113q-17 26 -26 63q-9 38 -9 87t9 86q9 38 26 64
q18 26 44 39q25 14 59 14q66 0 99 -51q33 -50 33 -152q0 -101 -33 -152q-33 -52 -99 -52q-34 0 -59 14q-26 14 -44 40z" />
    <glyph glyph-name="q" unicode="q" 
d="M435 -252h92v776h-83q-1 -12 -4 -31q-2 -18 -5 -35q-24 40 -61 60t-88 20q-50 0 -90 -19q-40 -20 -69 -57q-29 -38 -44 -89q-14 -50 -14 -115q0 -25 3 -49q2 -24 8 -48q5 -24 14 -46t22 -42q12 -20 28 -36q17 -17 37 -29q21 -12 46 -18q26 -5 56 -5q53 0 91 20
q37 20 61 61v-318zM190 111q-18 26 -27 64q-8 38 -8 86q0 49 8 87q9 38 27 64q17 26 42 39t57 13t57 -13q26 -13 43 -39q18 -26 26 -64q9 -38 9 -87t-9 -87q-8 -37 -26 -63q-17 -27 -43 -40q-25 -14 -57 -14t-57 14q-25 13 -42 40z" />
    <glyph glyph-name="r" unicode="r" 
d="M129 0h92q0 31 -1 94v121q-1 39 -1 69v42q0 23 12 45t35 45q23 22 56 33t75 10q43 -1 78 -13t62 -35v88q-26 20 -59 29q-33 10 -72 11h-5q-31 0 -58 -5t-50 -15q-24 -11 -43 -27q-18 -16 -32 -37q0 13 1 35v36h-90v-526z" />
    <glyph glyph-name="s" unicode="s" 
d="M456 32q29 22 44 53q15 30 15 70q0 58 -35 93q-35 36 -104 49q-12 2 -37 6q-28 5 -50 11q-23 5 -37 10q-15 5 -25 11q-10 7 -15 14q-5 8 -8 17q-2 10 -2 23q0 39 30 58q30 20 91 20q43 0 83 -11q41 -11 80 -32v84q-40 15 -82 23t-85 8q-50 0 -89 -10t-66 -30
q-28 -21 -42 -50q-13 -29 -13 -67q0 -30 9 -54q9 -23 27 -40q19 -17 48 -30t68 -20q19 -4 24 -5q4 -1 14 -3q32 -6 56 -14t38 -18q15 -10 22 -24t7 -31q0 -19 -9 -34q-8 -16 -26 -27q-18 -12 -41 -18t-52 -6q-41 0 -88 13t-100 38v-90q54 -16 102 -24q47 -8 87 -8
q51 0 91 11t70 34z" />
    <glyph glyph-name="t" unicode="t" 
d="M486 -2v79h-160q-29 0 -50 4q-20 5 -32 14q-11 9 -17 29q-6 19 -6 48v275h219v79h-219v161h-36h-15h-41v-441v-74q0 -48 10 -81q11 -34 33 -54q21 -20 57 -30q37 -9 88 -9h169z" />
    <glyph glyph-name="u" unicode="u" 
d="M286 -14q61 0 101 17q40 18 59 54v-57h86v80v95v190q-1 97 -1 160h-92q0 -60 -1 -151q-1 -92 -2 -172q0 -29 -8 -53q-9 -24 -26 -44q-16 -19 -42 -30q-26 -10 -61 -14q-61 0 -93 35q-31 35 -31 104v325h-91v-325q0 -107 46 -160t138 -53q5 0 9 -1h9z" />
    <glyph glyph-name="v" unicode="v" 
d="M249 0h119q13 35 30 80t36 95q35 93 71 190q37 97 61 161h-95l-50 -135t-59 -159q-15 -42 -29 -80t-25 -67q-11 29 -25 67t-29 80q-29 78 -59 159l-50 135h-95q13 -34 30 -80q17 -45 36 -95q36 -93 72 -190t61 -161z" />
    <glyph glyph-name="w" unicode="w" 
d="M131 0h88q6 19 14 44q7 24 16 52q16 51 32 104q16 54 27 89q6 -19 14 -44q7 -25 16 -52q16 -51 32 -105q16 -53 27 -88h88q9 35 20 80t24 95q23 93 47 190t40 161h-91q-5 -27 -13 -62q-7 -35 -15 -74q-15 -73 -31 -149q-15 -75 -26 -125q-5 17 -12 39t-15 47
q-14 46 -30 94l-25 80h-102q-9 -32 -22 -80t-26 -94q-7 -25 -13 -47t-11 -39q-6 27 -14 62t-17 74q-16 73 -33 149q-17 75 -29 125h-91q9 -34 20 -80q11 -45 24 -95q23 -93 47 -190t40 -161z" />
    <glyph glyph-name="x" unicode="x" 
d="M38 0h106q11 14 25 32t30 38q29 38 59 76l50 65q11 -14 25 -32t30 -38q29 -38 59 -76l50 -65h107q-27 33 -68 84q-40 50 -79 99q-21 26 -40 50q-19 23 -34 41q14 17 31 39q17 21 36 45q36 45 73 91t61 77h-103q-10 -12 -23 -28q-12 -17 -26 -35q-26 -34 -54 -69
q-27 -35 -45 -58q-9 12 -22 29q-13 16 -27 34q-26 34 -54 69q-27 35 -45 58h-103q14 -16 31 -38t36 -46q36 -44 73 -90q37 -47 61 -78q-14 -18 -33 -41q-19 -24 -40 -50q-39 -49 -80 -99q-40 -51 -67 -84z" />
    <glyph glyph-name="y" unicode="y" 
d="M119 -175q0 -20 -1 -39q0 -20 1 -41h264q25 0 61 23q36 22 62 62q14 21 22 46q9 25 9 53v2q0 61 -1 118v146q0 42 -1 88v84q0 36 -1 77v83q-47 0 -58 -1h-35q1 -52 2 -106v-109v-229h-69h-100q-32 0 -53 7q-22 7 -34 21q-11 14 -18 37q-6 23 -6 57v166v157h-46
q-29 -1 -46 -1v-50q-1 -28 -1 -60v-124v-120q0 -71 50 -120q50 -50 134 -51h189q1 -30 -2 -71q-3 -40 -20 -69q-9 -15 -23 -25q-15 -9 -36 -10h-41h-50h-93q-44 -1 -59 -1z" />
    <glyph glyph-name="z" unicode="z" 
d="M95 0h427v74h-334q7 8 31 35q25 26 53 56q16 16 31 32t27 30h107h86v34v36h-139q46 54 138 163v67h-427v-73h337q-34 -38 -135 -152h-38h-42h-74h-48q0 -23 -1 -70h67h84q-25 -26 -56 -60q-32 -33 -57 -60q-13 -15 -23 -25q-10 -11 -14 -16v-71z" />
    <glyph glyph-name="braceleft" unicode="{" 
d="M515 -105v83h-36q-35 0 -57 4t-33 11q-11 10 -16 29q-5 20 -5 53v117q0 37 -6 63q-5 27 -17 44q-11 16 -29 31q-18 14 -45 20q27 6 45 20t29 31q12 17 17 44q6 26 6 63v117q0 34 5 53q5 20 16 30q11 7 33 10q22 4 57 4h36v84h-33q-63 0 -104 -9t-62 -26t-32 -54
q-11 -38 -11 -90v-114q0 -34 -6 -59q-7 -24 -20 -38q-13 -11 -37 -16t-59 -5h-59v-88h59q35 0 58 -6q24 -5 38 -17q13 -14 20 -38q6 -25 6 -60v-113q0 -52 11 -89q11 -38 32 -55q22 -17 63 -26q42 -8 103 -8h33z" />
    <glyph glyph-name="bar" unicode="|" 
d="M262 -75h86v852h-86v-852z" />
    <glyph glyph-name="braceright" unicode="}" 
d="M102 -105h31q62 0 104 8q42 9 63 26q21 18 31 56q11 37 11 89v112q0 18 2 34q3 15 8 26q6 12 13 22q8 9 19 16q19 12 47 17q28 6 65 6h32v88h-32q-17 0 -33 1q-15 0 -30 3q-14 2 -27 7q-12 4 -22 11q-11 7 -19 16q-7 10 -13 21q-5 12 -8 27q-2 15 -2 33v113q0 52 -11 90
q-10 37 -31 54t-62 26q-42 9 -105 9h-31v-84h34q36 0 59 -3q23 -4 33 -11q11 -10 16 -30q6 -20 6 -53v-117q0 -20 1 -36q2 -16 5 -29t8 -23q4 -10 9 -18q12 -16 29 -30q16 -15 44 -21q-28 -6 -45 -20q-17 -15 -29 -31q-11 -17 -17 -44q-5 -27 -5 -64v-116q0 -33 -6 -52
q-5 -20 -16 -30q-10 -8 -33 -12t-59 -4h-34v-83z" />
    <glyph glyph-name="asciitilde" unicode="~" 
d="M496 436q-3 -27 -8 -49q-4 -22 -13 -39q-8 -17 -22 -25q-14 -9 -34 -9q-12 0 -23 6q-10 5 -21 15q-13 11 -26 26t-26 32q-8 11 -17 20l-17 17q-9 8 -16 14q-8 6 -16 11q-15 8 -31 12q-17 4 -36 4q-37 0 -66 -17q-30 -17 -50 -51q-11 -19 -19 -46q-9 -28 -15 -63
q39 -9 49 -11t29 -7q2 17 8 39t13 49q8 16 22 25q13 8 33 8q9 0 19 -3q9 -3 19 -10q10 -6 24 -22t34 -43q18 -23 34 -39q15 -15 28 -23q15 -8 32 -12t37 -4q41 0 71 17t48 51q9 16 15 30q6 15 10 29q4 13 6 26t2 25q-39 8 -48 11q-10 2 -29 6z" />
    <glyph glyph-name="nonbreakingspace" unicode="&#xa0;" 
 />
    <glyph glyph-name="exclamdown" unicode="&#xa1;" 
d="M255 682q-12 -11 -17 -26q-6 -15 -6 -33q0 -19 6 -33q5 -15 17 -26q11 -11 26 -16t32 -5t32 5q14 5 26 16q11 11 17 26q6 14 6 33q0 18 -6 33t-17 26q-12 12 -26 17q-14 6 -32 6q-17 0 -32 -6q-15 -5 -26 -17zM284 447q-5 -32 -12 -81t-14 -96q-3 -25 -7 -48
q-3 -23 -5 -41v-210h132v210q-2 18 -5 41t-6 48q-6 47 -13 96q-6 49 -10 81h-60z" />
    <glyph glyph-name="cent" unicode="&#xa2;" 
d="M349 -147h51v135q14 0 30 3q15 2 32 6q8 1 15 4l16 4q7 2 17 6q9 4 20 8v81q-7 -4 -16 -9l-16 -8q-9 -4 -17 -7t-16 -5q-9 -3 -17 -5l-16 -4l-16 -2q-8 -2 -16 -3v410l16 -2q7 -1 15 -2q8 -2 17 -3q8 -2 17 -5q17 -6 33 -13q16 -8 32 -17v81q-19 8 -36 14t-32 9
q-16 3 -31 6q-15 2 -31 4v134h-51v-134q-29 -3 -55 -10t-47 -18q-22 -11 -41 -25t-34 -31q-15 -18 -28 -39q-12 -22 -21 -46q-9 -25 -13 -52q-5 -27 -5 -56q0 -28 5 -55q4 -26 13 -50q9 -25 21 -46t28 -39q16 -20 35 -34q20 -15 42 -25t47 -16q26 -7 53 -9v-135zM349 59
q-33 3 -60 19q-26 15 -46 43q-20 27 -30 63t-10 79t10 79q10 35 30 62q20 28 46 43q27 16 60 19v-407z" />
    <glyph glyph-name="sterling" unicode="&#xa3;" 
d="M70 0h486v80h-268v218h185v68h-185v102q0 45 8 78q7 33 23 54q17 21 41 31q25 11 59 11q17 0 33 -2q16 -3 31 -8q6 -2 14 -6l16 -6q8 -4 16 -9t17 -10v86q-10 4 -20 7q-9 3 -19 6t-18 5q-8 1 -14 3q-17 3 -34 5t-35 2q-54 0 -95 -15t-68 -45q-28 -29 -42 -73
q-14 -45 -14 -105v-111h-99v-68h99v-218h-117v-80z" />
    <glyph glyph-name="currency" unicode="&#xa4;" 
d="M148 92q16 15 39 36t43 40q24 -13 48 -20t48 -7q12 0 25 2q12 2 24 5q11 4 22 10q11 5 23 12q15 -15 41 -39t42 -39q8 9 23 22q15 14 24 22q-16 15 -40 37q-23 22 -44 41q8 10 14 21t9 22q4 11 6 22t2 22q0 12 -2 23t-6 22q-3 9 -8 20q-6 11 -14 24q15 15 41 40
q27 24 42 39q-9 8 -23 21l-22 22q-16 -15 -39 -37t-44 -41q-25 14 -49 21t-47 7q-13 0 -24 -2q-12 -2 -23 -5q-12 -4 -24 -10q-11 -5 -23 -12q-15 15 -41 40q-26 24 -41 39q-9 -8 -24 -22t-24 -22q17 -15 40 -37q24 -23 44 -42q-7 -10 -12 -20q-6 -10 -10 -22q-4 -11 -6 -22
t-2 -23q0 -11 1 -23q2 -11 5 -21t9 -21q6 -12 14 -25q-15 -15 -41 -39t-42 -39q9 -8 23 -21q15 -13 23 -21zM250 229q-16 16 -23 34q-8 18 -8 39q0 22 8 40t24 32q15 14 34 21t42 7t42 -7t34 -21q16 -15 23 -33q8 -17 8 -39q0 -21 -8 -39q-7 -18 -23 -34q-15 -14 -34 -21
t-42 -7t-42 7t-35 21z" />
    <glyph glyph-name="yen" unicode="&#xa5;" 
d="M257 0h101v247h201v51h-201v17q8 13 22 36q14 22 21 35h158v52h-126q11 17 25 40t30 48q29 47 60 95l50 80h-109q-11 -20 -27 -46q-15 -27 -33 -57q-32 -54 -65 -111q-34 -57 -56 -95q-12 21 -27 47q-16 27 -33 56q-33 55 -66 112q-34 56 -56 94h-108q11 -17 25 -39
q13 -23 29 -48q28 -47 58 -95q30 -49 49 -81h-122v-52h155q8 -13 22 -35q15 -23 23 -36v-17h-200v-51h200v-247z" />
    <glyph glyph-name="brokenbar" unicode="&#xa6;" 
d="M266 414h86v356h-86v-356zM266 -68h86v357h-86v-357z" />
    <glyph glyph-name="section" unicode="&#xa7;" 
d="M434 -52q26 20 38 46q13 26 13 58q0 9 -1 17t-3 15q-1 7 -4 13q-2 6 -6 13q-8 13 -19 25t-26 25q23 12 41 27q17 14 29 31q11 17 17 35q5 18 5 39q0 24 -8 45t-25 40q-7 8 -19 18t-28 21q-15 10 -38 24t-53 29l-12 6q-3 1 -8 4q-27 15 -47 28q-21 14 -32 25
q-12 12 -18 24q-6 11 -6 23q0 6 2 12q2 7 5 14t9 13q5 5 12 10q6 4 13 8t17 6q9 2 20 4q11 1 24 1q30 0 65 -9t77 -28v77q-22 7 -41 12q-19 6 -37 9q-8 1 -17 3l-20 2q-10 0 -20 1q-9 1 -19 1q-18 0 -36 -3q-18 -2 -35 -6q-17 -5 -32 -12q-16 -6 -29 -16q-25 -19 -37 -43
q-13 -25 -13 -56q0 -17 4 -31q4 -15 11 -28t18 -25t26 -22q-22 -11 -39 -25q-18 -14 -29 -31q-12 -18 -18 -37t-6 -40q0 -25 8 -45q8 -21 24 -39q11 -12 25 -22q13 -11 30 -22t38 -23q21 -11 46 -25q6 -3 8 -5q2 -1 5 -2q28 -16 49 -30q22 -13 35 -26q13 -12 19 -25
q7 -14 7 -28q0 -16 -7 -29q-8 -13 -21 -23q-14 -10 -34 -15q-19 -5 -44 -5q-30 0 -67 9t-81 27v-77q11 -3 43 -12q11 -3 21 -5q10 -1 19 -3q8 -2 17 -3t19 -2l20 -2h20q43 0 77 10t59 30zM272 248q-17 11 -31 20q-14 10 -24 19q-18 16 -27 33t-9 34q0 7 1 13q1 5 3 11
q3 5 5 10q3 5 7 9q7 10 18 21q12 12 28 22q60 -30 100 -54q39 -24 57 -40q8 -7 15 -14q6 -8 11 -17q5 -8 7 -17q3 -9 3 -19q0 -11 -4 -22q-3 -12 -11 -23q-7 -9 -19 -20q-11 -11 -27 -21q-34 16 -59 30q-26 14 -44 25z" />
    <glyph glyph-name="dieresis" unicode="&#xa8;" 
d="M174 729q-8 0 -11 -3t-3 -10v-68q0 -7 3 -10t11 -3h72q7 0 11 3t4 10v68q0 7 -4 10t-11 3h-72zM371 729q-8 0 -12 -3t-4 -10v-68q0 -7 4 -10t12 -3h70q8 0 12 3t4 10v68q0 7 -4 10t-12 3h-70z" />
    <glyph glyph-name="copyright" unicode="&#xa9;" 
d="M426 80q15 5 27 13q13 7 26 16q13 8 25 17q12 8 22 18q12 11 21 22q10 11 18 23q9 13 16 25q8 12 13 25q11 24 17 52q5 28 5 58t-5 57q-6 27 -17 53q-5 11 -12 23t-16 24q-8 12 -18 24t-23 24q-10 10 -22 19q-11 8 -24 17q-12 8 -25 15t-28 12q-28 11 -57 16t-61 5
q-31 0 -61 -5t-57 -16q-28 -10 -53 -26q-24 -16 -46 -37t-39 -45t-29 -50t-17 -53q-6 -28 -6 -58t6 -57q5 -27 17 -52q12 -27 29 -51q17 -23 38 -44q45 -43 100 -64q55 -22 118 -22q32 0 62 6q29 5 56 16zM211 125q-23 9 -44 22q-22 14 -40 31q-7 7 -14 15l-16 18
q-7 9 -14 21q-6 12 -12 25q-10 22 -15 45t-5 47q0 25 5 48t15 44q9 22 23 42t33 37q18 18 39 31q21 12 44 21q21 9 46 13q25 5 52 5t52 -5q24 -4 47 -13q22 -8 43 -21t39 -31q19 -17 33 -37q15 -20 24 -42q9 -21 14 -45q5 -23 5 -48t-4 -48q-5 -22 -14 -43q-5 -11 -11 -22
t-14 -21q-7 -10 -16 -20q-8 -9 -17 -17q-18 -17 -39 -29q-21 -13 -44 -23q-24 -9 -48 -14t-50 -5t-50 5t-47 14zM432 195v49q-24 -13 -49 -19q-26 -6 -54 -6q-33 0 -59 9q-25 8 -43 25q-17 17 -26 41q-8 23 -8 53q0 31 8 55q8 25 25 42q9 10 19 16q11 6 23 10q13 4 25 6
q13 2 28 2h12q7 0 14 -1l14 -2q8 -1 15 -3q14 -3 28 -8q14 -4 28 -11v51q-14 5 -28 9q-13 4 -26 6q-16 2 -30 4q-15 1 -29 1q-44 0 -80 -11q-36 -12 -62 -36t-39 -56t-13 -73t12 -72q13 -32 39 -56t62 -35q36 -12 81 -12q30 0 59 5q28 6 54 17z" />
    <glyph glyph-name="ordfeminine" unicode="&#xaa;" 
d="M348 344q16 8 31 19q14 11 27 26q1 -10 3 -26t4 -26h64v211q0 44 -11 75t-33 51t-55 30q-33 11 -77 11q-9 0 -18 -1t-17 -1q-7 -1 -15 -2q-8 -2 -17 -3q-16 -3 -34 -8q-17 -5 -34 -12v-59q16 7 33 13q16 6 32 10t31 6q14 2 30 2q11 0 22 -1t22 -4q11 -2 21 -6t19 -10
q15 -11 22 -27q8 -16 8 -38v-1h-92q-43 0 -76 -8q-33 -9 -57 -25q-23 -17 -34 -40q-12 -24 -12 -54q0 -26 9 -48q10 -21 28 -38q19 -16 45 -24q25 -8 56 -8q22 0 40 4q19 4 35 12zM230 402q-5 4 -9 9q-4 6 -7 11t-5 13q-1 7 -1 16q0 18 8 31q7 12 23 21q15 7 41 12
q26 4 62 4h64v-14q0 -27 -9 -49q-8 -21 -24 -38t-38 -26q-21 -8 -47 -8q-18 0 -32 5q-15 4 -26 13zM146 220h334v59h-334v-59z" />
    <glyph glyph-name="guillemotleft" unicode="&#xab;" 
d="M274 67v89q-28 23 -75 63q-47 39 -75 63q28 23 75 63q47 39 75 63v90q-15 -13 -35 -30t-43 -36q-41 -35 -84 -71q-44 -36 -72 -60v-38q28 -24 72 -60q43 -36 84 -71q23 -19 43 -36t35 -29zM501 67v89q-29 23 -76 63q-46 39 -75 63q29 23 75 63q47 39 76 63v90
q-16 -13 -36 -30t-42 -36q-42 -35 -85 -71t-72 -60v-38q16 -13 36 -30q20 -16 42 -35q42 -35 85 -71t72 -60z" />
    <glyph glyph-name="logicalnot" unicode="&#xac;" 
d="M488 174h84v232h-528v-81h444v-151z" />
    <glyph glyph-name="uni00ad" unicode="&#xad;" 
d="M178 225h260v77h-260v-77z" />
    <glyph glyph-name="registered" unicode="&#xae;" 
d="M426 80q15 5 27 13q13 7 26 16q13 8 25 17q12 8 22 18q12 11 21 22q10 11 18 23q9 13 16 25q8 12 13 25q11 24 17 52q5 28 5 58t-5 57q-6 27 -17 53q-5 11 -12 23t-16 24q-8 12 -18 24t-23 24q-10 10 -22 19q-11 8 -24 17q-12 8 -25 15t-28 12q-28 11 -57 16t-61 5
q-31 0 -61 -5t-57 -16q-28 -10 -53 -26q-24 -16 -46 -37t-39 -45t-29 -50t-17 -53q-6 -28 -6 -58t6 -57q5 -27 17 -52q12 -27 29 -51q17 -23 38 -44q45 -43 100 -64q55 -22 118 -22q32 0 62 6q29 5 56 16zM211 125q-23 9 -44 22q-22 14 -40 31q-7 7 -14 15l-16 18
q-7 9 -14 21q-6 12 -12 25q-10 22 -15 45t-5 47q0 25 5 48t15 44q9 22 23 42t33 37q18 18 39 31q21 12 44 21q21 9 46 13q25 5 52 5t52 -5q24 -4 47 -13q22 -8 43 -21t39 -31q19 -17 33 -37q15 -20 24 -42q9 -21 14 -45q5 -23 5 -48t-4 -48q-5 -22 -14 -43q-5 -11 -11 -22
t-14 -21q-7 -10 -16 -20q-8 -9 -17 -17q-18 -17 -39 -29q-21 -13 -44 -23q-24 -9 -48 -14t-50 -5t-50 5t-47 14zM181 190h65v140h27q12 0 22 -3q9 -2 16 -6q7 -5 18 -17q10 -12 22 -32q18 -27 53 -82h72q-11 17 -27 42t-30 47l-8 10q-4 6 -10 12q-5 6 -9 11q-4 6 -7 10
q-8 7 -13 12q-6 5 -11 6q20 3 36 10q16 8 27 19q11 10 16 24t5 31q0 23 -9 41q-9 17 -26 29q-18 11 -45 17t-65 6h-119v-327zM246 369v108h51q22 0 38 -3t25 -9q6 -3 9 -8q3 -4 6 -10q2 -5 3 -11t1 -13q0 -15 -5 -25q-4 -11 -14 -17q-9 -6 -25 -9t-38 -3h-51z" />
    <glyph glyph-name="macron" unicode="&#xaf;" 
d="M458 717h-299v-70h299v70z" />
    <glyph glyph-name="degree" unicode="&#xb0;" 
d="M370 427q14 5 27 14q13 8 24 18q23 20 34 47q12 27 12 59q0 15 -3 29q-3 15 -8 28q-3 5 -6 11q-3 5 -8 12q-4 7 -9 13t-11 12q-5 4 -11 9t-13 9q-7 5 -14 9l-14 6q-8 4 -15 5l-16 4q-9 1 -16 2q-8 1 -16 1q-34 0 -62 -12q-28 -11 -50 -32q-23 -22 -34 -49t-11 -59
q0 -16 3 -31t9 -28t14 -25q8 -11 18 -20q11 -11 24 -19t28 -13q14 -5 29 -8t31 -3q17 0 33 3t31 8zM241 501q-14 13 -21 28q-7 16 -7 34q0 19 7 36t21 30q13 13 30 19q17 5 37 5q11 0 20 -1q10 -2 18 -6q9 -4 16 -8q8 -5 14 -10q14 -13 21 -29q6 -16 6 -35q0 -8 -1 -16
q-2 -8 -5 -17q-3 -8 -9 -15q-5 -7 -12 -14q-6 -6 -14 -11t-17 -9t-18 -5q-10 -2 -20 -2q-19 0 -36 7q-17 6 -30 19z" />
    <glyph glyph-name="plusminus" unicode="&#xb1;" 
d="M266 160h84v155h222v80h-222v155h-84v-155h-222v-80h222v-155zM44 0h528v80h-528v-80z" />
    <glyph glyph-name="twosuperior" unicode="&#xb2;" 
d="M161 526h285v54h-204q20 18 49 45q30 27 56 51q28 25 47 46q19 22 31 38q5 6 8 13q3 6 5 12q3 7 4 14q1 8 1 16q0 12 -2 23t-8 21q-5 10 -14 20q-8 9 -19 17q-21 15 -49 23t-63 8q-16 0 -30 -2q-15 -1 -31 -4q-14 -3 -30 -9q-16 -5 -33 -12v-58q16 8 31 14q15 7 29 11
q14 5 27 7t27 2q19 0 36 -5q16 -4 28 -13t19 -21q7 -11 7 -25q0 -12 -6 -25q-5 -14 -15 -28q-4 -7 -11 -15q-6 -8 -13 -16q-8 -8 -20 -19q-11 -11 -27 -25q-21 -20 -57 -53q-37 -32 -58 -52v-53z" />
    <glyph glyph-name="threesuperior" unicode="&#xb3;" 
d="M415 553q24 16 35 38q12 23 12 51q0 20 -6 36q-6 15 -19 28q-12 13 -30 21q-18 9 -41 13q20 5 36 13t27 19t17 25q6 13 6 30q0 23 -11 42q-11 18 -31 32q-22 14 -50 21q-29 7 -64 7q-13 0 -27 -1t-28 -3q-7 -2 -15 -3q-7 -1 -15 -2q-8 -2 -17 -4q-8 -2 -17 -4v-57
q8 2 15 5t14 5q7 3 14 4q8 1 14 2q14 3 27 5q12 2 25 2q21 0 38 -4t28 -11q13 -7 18 -18q6 -11 6 -24q0 -14 -6 -24q-6 -11 -19 -18q-12 -7 -30 -11q-17 -4 -40 -4h-37v-51h32q27 0 48 -4t34 -14q14 -9 21 -22t7 -29q0 -9 -2 -16q-2 -8 -6 -15t-9 -12t-12 -9
q-15 -10 -35 -15t-44 -5q-14 0 -26 2q-13 1 -26 5q-7 1 -15 3t-15 5l-16 4q-9 3 -17 6v-56q7 -3 15 -5q7 -2 13 -4q7 -1 15 -3q8 -1 15 -3q7 -1 15 -2l14 -2t14 -1h17q43 0 76 8q34 8 58 24z" />
    <glyph glyph-name="acute" unicode="&#xb4;" 
d="M477 770h-99q-9 -12 -21 -27t-26 -32q-25 -31 -51 -64q-25 -33 -42 -54h76q20 21 50 54t59 64q15 17 29 32t25 27z" />
    <glyph glyph-name="mu" unicode="&#xb5;" 
d="M83 -201h83v260q21 -36 54 -54t77 -18q23 0 43 4q20 5 36 14t30 23q14 13 25 32q3 -18 10 -31q6 -14 16 -24q9 -9 21 -14q12 -4 28 -4q8 0 16 1q8 2 18 4q8 3 18 6q9 4 19 9v70q-7 -3 -13 -5q-5 -3 -9 -3q-5 -2 -8 -2h-5q-8 0 -14 3t-10 10t-5 16q-2 10 -2 24v406h-93
v-307q0 -39 -8 -68q-8 -30 -24 -50t-40 -30t-55 -10q-29 0 -50 10q-21 9 -36 26q-7 9 -13 19t-10 22q-4 13 -6 28t-2 34v326h-91v-727z" />
    <glyph glyph-name="paragraph" unicode="&#xb6;" 
d="M279 -92h70v736h95v-736h71v793h-224q-54 0 -97 -13q-42 -14 -75 -41t-49 -63q-17 -37 -17 -81q0 -22 4 -42t12 -37q7 -17 18 -31q10 -14 25 -27q29 -27 71 -42t96 -19v-397z" />
    <glyph glyph-name="periodcentered" unicode="&#xb7;" 
d="M366 293q11 11 17 25q6 15 6 32q0 18 -6 32q-6 15 -17 26q-12 10 -26 16q-15 6 -32 6t-31 -6q-15 -6 -26 -16q-12 -11 -18 -26q-6 -14 -6 -32q0 -17 6 -32q6 -14 18 -25q11 -11 26 -17q14 -6 31 -6t32 6q14 6 26 17z" />
    <glyph glyph-name="cedilla" unicode="&#xb8;" 
d="M291 0q11 -15 19 -27t14 -22q5 -10 8 -19t3 -17q0 -21 -16 -32q-15 -11 -46 -11q-20 0 -39 4t-36 11v-61q10 -3 21 -5q11 -3 23 -4q10 -2 21 -2h22q15 0 29 1q13 1 24 4t20 6q10 4 17 9q15 11 22 26q7 16 7 36q0 6 -1 13t-3 13q-1 6 -3 12q-3 5 -6 11q-7 13 -17 26
q-10 14 -24 28h-59z" />
    <glyph glyph-name="onesuperior" unicode="&#xb9;" 
d="M181 526h277v53h-103v340h-68q-22 -4 -58 -10q-35 -6 -57 -9v-54q21 4 56 10q35 5 56 9v-286h-103v-53z" />
    <glyph glyph-name="ordmasculine" unicode="&#xba;" 
d="M387 342q17 7 31 17q15 10 26 22q26 26 38 61q13 35 13 79t-13 79q-12 35 -38 62q-11 12 -26 22q-14 10 -31 16q-17 7 -37 11t-42 4q-23 0 -42 -4q-20 -4 -37 -11q-17 -6 -31 -16t-26 -22q-25 -27 -38 -62q-12 -35 -12 -79q0 -23 3 -43q3 -21 10 -39q7 -17 16 -32
q10 -15 21 -27q12 -12 26 -21t30 -16t36 -11t44 -4q23 0 43 3q19 4 36 11zM228 419q-14 18 -21 44q-7 25 -7 58t7 59q7 25 21 44q15 18 35 27q19 8 45 8q14 0 26 -2q11 -2 21 -7q10 -4 18 -12q8 -7 15 -15q15 -19 22 -44q7 -26 7 -58q0 -17 -2 -31q-2 -15 -5 -28
q-4 -13 -10 -23q-5 -11 -12 -19q-14 -19 -34 -28t-46 -9q-25 0 -45 9t-35 27zM138 220h338v59h-338v-59z" />
    <glyph glyph-name="guillemotright" unicode="&#xbb;" 
d="M116 67q28 24 71 60q44 36 85 71q23 19 43 35q20 17 35 30v38q-15 13 -35 30t-43 36q-41 34 -85 70q-43 37 -71 61v-90q28 -24 75 -63q47 -40 75 -63q-28 -24 -75 -63q-47 -40 -75 -63v-89zM342 67q15 12 35 29q21 17 43 36q42 35 85 71t72 60v38q-16 13 -36 30t-43 36
q-41 34 -84 70q-43 37 -72 61v-90q28 -24 75 -63q47 -40 76 -63q-29 -24 -76 -63q-47 -40 -75 -63v-89z" />
    <glyph glyph-name="onequarter" unicode="&#xbc;" 
d="M52 387h277v52h-103v340h-68q-22 -3 -58 -8q-35 -6 -57 -9v-55q21 3 56 9t56 10v-287h-103v-52zM26 237q35 8 80 18q46 11 97 23q94 22 191 45q98 22 163 37q-2 10 -7 26q-4 15 -6 25q-35 -8 -81 -19q-45 -11 -96 -22q-94 -22 -192 -45q-97 -22 -162 -37q3 -9 6 -26
q4 -16 7 -25zM420 -127h68v87h59v52h-59v253h-80q-12 -16 -28 -38q-16 -21 -33 -44q-32 -44 -65 -90q-34 -45 -56 -76v-57h194v-87zM283 12q16 24 42 60q25 36 49 70q13 19 25 36q12 16 21 29v-195h-137z" />
    <glyph glyph-name="onehalf" unicode="&#xbd;" 
d="M52 387h277v52h-103v340h-68q-22 -3 -58 -8q-35 -6 -57 -9v-55q21 3 56 9t56 10v-287h-103v-52zM26 237q35 8 80 18q46 11 97 23q94 22 191 45q98 22 163 37q-2 10 -7 26q-4 15 -6 25q-35 -8 -81 -19q-45 -11 -96 -22q-94 -22 -192 -45q-97 -22 -162 -37q3 -9 6 -26
q4 -16 7 -25zM261 -127h286v53h-205q20 19 50 46q29 27 55 51q28 25 47 46q20 21 31 37q5 7 8 13q3 7 6 13q2 6 3 14q2 7 2 16q0 11 -3 23q-2 11 -7 21q-6 10 -14 19q-9 10 -19 18q-22 15 -50 23q-28 7 -63 7q-15 0 -30 -1q-15 -2 -30 -5t-31 -8t-33 -12v-59q16 9 31 15
t30 11q13 5 27 6q13 2 26 2q20 0 36 -4q17 -4 29 -13q13 -9 19 -21q6 -11 6 -25q0 -13 -5 -26t-14 -28q-6 -6 -12 -15q-6 -8 -14 -15l-19 -19q-12 -11 -27 -25q-22 -20 -58 -53t-58 -53v-52z" />
    <glyph glyph-name="threequarters" unicode="&#xbe;" 
d="M301 412q24 16 36 38q11 22 11 51q0 20 -6 35q-6 16 -18 28q-13 13 -30 22q-18 9 -42 14q21 5 37 12q17 8 27 19q11 11 17 24q5 14 5 31q0 23 -11 42q-10 18 -31 32q-22 14 -50 21q-28 6 -64 6h-26q-13 -1 -28 -4q-7 -1 -15 -2t-16 -3q-7 -1 -16 -3l-18 -4v-56l16 4
q7 3 14 5l14 4t14 3q14 3 27 4t24 1q22 0 38 -3q17 -4 29 -11q12 -8 18 -18q5 -11 5 -24q0 -14 -6 -25q-6 -10 -18 -17q-13 -8 -30 -12q-18 -3 -41 -3h-37v-51h33q27 0 47 -4q21 -5 35 -14t20 -22q7 -12 7 -28q0 -9 -2 -17t-6 -15t-9 -12t-11 -9q-16 -10 -35 -15
q-20 -5 -44 -5q-13 0 -26 2q-13 1 -26 4q-7 2 -15 4q-7 2 -15 4q-8 3 -17 6q-8 3 -17 6v-58q8 -2 15 -4l14 -4q7 -1 14 -3q8 -1 16 -3q6 -2 14 -2q7 0 14 -1t15 -1q8 -1 17 -1q43 0 76 8t57 24zM26 237q35 8 80 18q46 11 97 23q94 22 191 45q98 22 163 37q-2 10 -7 26
q-4 15 -6 25q-35 -8 -81 -19q-45 -11 -96 -22q-94 -22 -192 -45q-97 -22 -162 -37q3 -9 6 -26q4 -16 7 -25zM420 -127h68v87h59v52h-59v253h-80q-12 -16 -28 -38q-16 -21 -33 -44q-32 -44 -65 -90q-34 -45 -56 -76v-57h194v-87zM283 12q16 24 42 60q25 36 49 70q13 19 25 36
q12 16 21 29v-195h-137z" />
    <glyph glyph-name="questiondown" unicode="&#xbf;" 
d="M380 608q11 10 16 23q4 13 4 29q0 17 -4 29q-5 13 -16 23t-24 14q-13 5 -28 5q-9 0 -16 -1q-8 -2 -15 -5t-12 -6t-10 -7q-10 -10 -15 -23q-5 -12 -5 -29q0 -16 5 -29q6 -13 16 -23q11 -10 24 -14q12 -5 28 -5q15 0 28 5q13 4 24 14zM351 -9q13 1 25 4q12 2 24 5
q11 3 22 7q11 5 23 9q13 5 25 11t25 13v89q-25 -16 -48 -28t-46 -20q-11 -4 -22 -7t-21 -5q-10 -3 -20 -4h-22q-26 0 -48 6q-21 6 -38 19q-7 5 -13 13q-6 7 -10 16q-5 8 -7 17q-2 10 -2 20v10t2 12q1 6 4 12q2 6 5 12q4 6 9 12t11 13q7 7 12 13q6 5 11 10q22 21 28 26
q5 5 17 16q21 19 35 37q15 17 22 33q8 17 12 36q4 20 4 43v72h-96v-57v-11v-5q-1 -2 -1 -5v-2q0 -15 -2 -27q-2 -13 -7 -22q-3 -6 -7 -12q-5 -5 -10 -12l-12 -12q-6 -7 -14 -14q-22 -20 -28 -25q-5 -5 -16 -15q-16 -15 -28 -28q-13 -14 -21 -24q-8 -11 -15 -22t-10 -21
q-3 -11 -5 -22t-2 -24q0 -38 14 -68t42 -53q27 -23 65 -33q37 -11 84 -11h25q13 1 25 3z" />
    <glyph glyph-name="Agrave" unicode="&#xc0;" 
d="M293 744h77q-19 23 -49 63q-31 39 -50 62h-92q22 -23 57 -62q35 -40 57 -63zM18 0h105q10 35 27 92t27 91h261q10 -34 28 -91t28 -92h104q-15 46 -35 106q-19 60 -41 127q-41 125 -82 254q-42 129 -70 214h-123q-15 -46 -35 -106t-41 -127q-41 -124 -83 -254
q-42 -129 -70 -214zM202 259q7 24 16 55q9 30 19 65q19 63 39 129q19 67 32 110q7 -23 16 -54t20 -65q19 -64 38 -130q20 -66 33 -110h-213z" />
    <glyph glyph-name="Aacute" unicode="&#xc1;" 
d="M247 749h77q21 23 57 61q36 39 57 62h-93q-18 -23 -49 -62q-31 -38 -49 -61zM18 0h105q10 35 27 92t27 91h261q10 -34 28 -91t28 -92h104q-15 46 -35 106q-19 60 -41 127q-41 125 -82 254q-42 129 -70 214h-123q-15 -46 -35 -106t-41 -127q-41 -124 -83 -254
q-42 -129 -70 -214zM202 259q7 24 16 55q9 30 19 65q19 63 39 129q19 67 32 110q7 -23 16 -54t20 -65q19 -64 38 -130q20 -66 33 -110h-213z" />
    <glyph glyph-name="Acircumflex" unicode="&#xc2;" 
d="M156 745h69l42 42q26 27 41 42q16 -15 42 -42q26 -26 41 -42h70q-20 24 -53 63t-53 62h-94q-20 -23 -53 -62q-32 -39 -52 -63zM18 0h105q10 35 27 92t27 91h261q10 -34 28 -91t28 -92h104q-15 46 -35 106q-19 60 -41 127q-41 125 -82 254q-42 129 -70 214h-123
q-15 -46 -35 -106t-41 -127q-41 -124 -83 -254q-42 -129 -70 -214zM202 259q7 24 16 55q9 30 19 65q19 63 39 129q19 67 32 110q7 -23 16 -54t20 -65q19 -64 38 -130q20 -66 33 -110h-213z" />
    <glyph glyph-name="Atilde" unicode="&#xc3;" 
d="M206 745v4q0 10 2 18q3 8 8 14t11 10q7 3 16 3q4 0 7 -1t7 -2q3 -1 9 -4q3 0 5 -2q3 -2 7 -4l18 -9q3 -2 10 -6l14 -7t11 -4q4 -2 8 -3q4 -2 8 -2q9 -2 17 -3q8 -2 15 -2q21 0 38 8q16 7 29 21q14 14 20 33q6 18 7 42h-62v-3q0 -9 -3 -17q-2 -8 -8 -14q-5 -6 -11 -9
q-7 -3 -14 -3q-4 0 -8 1q-4 0 -8 2q-5 1 -10 3t-10 5q-15 7 -18 9q-4 2 -11 5q-13 7 -22 11q-10 4 -17 6q-9 1 -18 3q-9 1 -15 1q-22 0 -38 -7q-17 -7 -30 -21q-7 -7 -12 -16q-5 -8 -8 -18q-4 -9 -5 -19q-2 -11 -2 -23h63zM18 0h105q10 35 27 92t27 91h261q10 -34 28 -91
t28 -92h104q-15 46 -35 106q-19 60 -41 127q-41 125 -82 254q-42 129 -70 214h-123q-15 -46 -35 -106t-41 -127q-41 -124 -83 -254q-42 -129 -70 -214zM202 259q7 24 16 55q9 30 19 65q19 63 39 129q19 67 32 110q7 -23 16 -54t20 -65q19 -64 38 -130q20 -66 33 -110h-213z
" />
    <glyph glyph-name="Adieresis" unicode="&#xc4;" 
d="M246 774q7 0 11 4t4 10v67q0 7 -4 11q-4 3 -11 3h-72q-8 0 -11 -3q-3 -4 -3 -11v-67q0 -6 3 -10t11 -4h72zM441 774q8 0 12 4t4 10v67q0 7 -4 11q-4 3 -12 3h-70q-8 0 -12 -3q-4 -4 -4 -11v-67q0 -6 4 -10t12 -4h70zM18 0h105q10 35 27 92t27 91h261q10 -34 28 -91
t28 -92h104q-15 46 -35 106q-19 60 -41 127q-41 125 -82 254q-42 129 -70 214h-123q-15 -46 -35 -106t-41 -127q-41 -124 -83 -254q-42 -129 -70 -214zM202 259q7 24 16 55q9 30 19 65q19 63 39 129q19 67 32 110q7 -23 16 -54t20 -65q19 -64 38 -130q20 -66 33 -110h-213z
" />
    <glyph glyph-name="Aring" unicode="&#xc5;" 
d="M18 0h105q10 35 27 92t27 91h261q10 -34 28 -91t28 -92h104q-14 43 -31 96q-17 52 -36 110q-35 108 -73 226q-39 119 -74 225q15 10 26 21t19 24q8 14 12 30q4 15 4 32q0 14 -3 28q-2 13 -8 24q-5 12 -13 22q-7 10 -15 18q-10 9 -20 15q-11 7 -24 13q-12 5 -25 8
q-14 2 -29 2q-19 0 -37 -5q-17 -4 -32 -12q-16 -9 -28 -20q-12 -12 -22 -27q-9 -14 -13 -31q-5 -17 -5 -35t4 -33q4 -16 12 -30q8 -13 19 -25q12 -11 26 -19q-26 -80 -65 -201t-77 -237q-21 -63 -39 -119q-19 -57 -33 -100zM255 714q-11 10 -17 23q-6 12 -6 27t6 28t17 23
t23 15q13 6 29 6q7 0 15 -2q7 -1 14 -4q7 -2 14 -6t12 -9q11 -10 17 -23q5 -13 5 -28t-5 -27q-6 -13 -17 -23q-10 -10 -24 -16q-14 -5 -30 -5t-29 5q-13 6 -24 16zM202 259q7 23 16 54t19 65q19 63 39 129q19 66 32 109q13 -43 33 -109q19 -66 38 -129q10 -34 20 -65
q9 -31 16 -54h-213z" />
    <glyph glyph-name="AE" unicode="&#xc6;" 
d="M0 0h92q9 34 25 90t25 90h176v-180h272v80h-178v254h153v80h-153v208h169v79h-376q-14 -46 -31 -106q-18 -60 -37 -127q-37 -125 -74 -254q-38 -129 -63 -214zM164 259q7 24 15 55q9 31 19 66q17 64 36 130q19 67 31 112h53v-363h-154z" />
    <glyph glyph-name="Ccedilla" unicode="&#xc7;" 
d="M457 623q21 -8 41 -19t39 -25v97q-20 10 -40 17q-19 7 -39 12q-20 4 -42 7t-45 3q-71 0 -126 -25q-56 -24 -95 -72q-20 -24 -36 -53q-15 -28 -25 -62t-15 -73q-4 -39 -4 -81q0 -86 19 -152q20 -67 59 -115q37 -44 87 -68q51 -23 115 -27q4 -6 8 -10q3 -5 7 -10q3 -4 5 -8
q1 -4 4 -8q5 -10 8 -19t3 -17q0 -21 -16 -32t-46 -11q-21 0 -40 4q-18 4 -35 11v-61q11 -3 21 -5q11 -3 23 -4q11 -2 21 -2h22q15 0 29 1q13 1 24 4t20 6q10 4 17 9q15 11 22 26q8 16 8 36q0 6 -2 13q-1 7 -2 13l-4 12q-3 5 -6 11q-4 9 -12 20q-8 10 -18 23l24 3q6 1 12 1
q5 1 11 3q20 5 39 12q20 7 40 17v97q-19 -15 -39 -25t-40 -18q-22 -8 -44 -12t-43 -4q-26 0 -47 5q-22 5 -40 14q-19 9 -34 23q-14 13 -26 30q-24 36 -37 90q-12 53 -12 125t12 126q13 54 37 90q25 36 62 54q36 17 85 17q21 0 43 -3q21 -4 43 -11z" />
    <glyph glyph-name="Egrave" unicode="&#xc8;" 
d="M311 749h77q-18 23 -49 61q-31 39 -49 62h-92q21 -23 56 -62q36 -38 57 -61zM98 0h453v80h-351v254h326v80h-326v208h342v79h-444v-701z" />
    <glyph glyph-name="Eacute" unicode="&#xc9;" 
d="M247 749h77q21 23 57 61q36 39 57 62h-93q-18 -23 -49 -62q-31 -38 -49 -61zM98 0h453v80h-351v254h326v80h-326v208h342v79h-444v-701z" />
    <glyph glyph-name="Ecircumflex" unicode="&#xca;" 
d="M165 745h69l42 42q26 27 41 42q16 -15 42 -42q26 -26 41 -42h70q-20 24 -53 63q-32 39 -52 62h-95q-20 -23 -52 -62q-33 -39 -53 -63zM98 0h453v80h-351v254h326v80h-326v208h342v79h-444v-701z" />
    <glyph glyph-name="Edieresis" unicode="&#xcb;" 
d="M255 774q8 0 11 4q4 4 4 10v67q0 7 -4 11q-3 3 -11 3h-72q-7 0 -11 -3q-3 -4 -3 -11v-67q0 -6 3 -10q4 -4 11 -4h72zM451 774q7 0 11 4t4 10v67q0 7 -4 11q-4 3 -11 3h-71q-8 0 -12 -3q-3 -4 -3 -11v-67q0 -6 3 -10q4 -4 12 -4h71zM98 0h453v80h-351v254h326v80h-326v208
h342v79h-444v-701z" />
    <glyph glyph-name="Igrave" unicode="&#xcc;" 
d="M299 749h78q-19 23 -50 61q-31 39 -49 62h-92q22 -23 57 -62q35 -38 56 -61zM100 0h415v80h-157v542h157v79h-415v-79h157v-542h-157v-80z" />
    <glyph glyph-name="Iacute" unicode="&#xcd;" 
d="M247 749h77q21 23 57 61q36 39 57 62h-93q-18 -23 -49 -62q-31 -38 -49 -61zM100 0h415v80h-157v542h157v79h-415v-79h157v-542h-157v-80z" />
    <glyph glyph-name="Icircumflex" unicode="&#xce;" 
d="M155 745h70q16 16 41 42q26 27 41 42q16 -15 42 -42q26 -26 41 -42h71q-20 24 -53 63t-53 62h-95q-20 -23 -53 -62q-32 -39 -52 -63zM100 0h415v80h-157v542h157v79h-415v-79h157v-542h-157v-80z" />
    <glyph glyph-name="Idieresis" unicode="&#xcf;" 
d="M246 774q7 0 11 4t4 10v67q0 7 -4 11q-4 3 -11 3h-72q-8 0 -11 -3q-3 -4 -3 -11v-67q0 -6 3 -10t11 -4h72zM441 774q8 0 12 4t4 10v67q0 7 -4 11q-4 3 -12 3h-70q-8 0 -12 -3q-4 -4 -4 -11v-67q0 -6 4 -10t12 -4h70zM100 0h415v80h-157v542h157v79h-415v-79h157v-542
h-157v-80z" />
    <glyph glyph-name="Eth" unicode="&#xd0;" 
d="M67 0h151q42 0 79 5t69 15q31 11 57 28t47 38q41 43 61 109q20 65 20 155t-20 157q-20 66 -61 109t-104 64t-148 21h-151v-298h-63v-70h63v-333zM170 78v255h132v70h-132v221h48q32 0 60 -4q27 -4 49 -11q21 -7 39 -18q17 -11 30 -27q13 -15 22 -35q10 -20 16 -45
q6 -24 9 -58q3 -33 3 -75q0 -40 -3 -72q-3 -33 -9 -59t-16 -47q-10 -20 -23 -36q-12 -14 -29 -25t-37 -19q-21 -7 -49 -11q-27 -4 -62 -4h-48z" />
    <glyph glyph-name="Ntilde" unicode="&#xd1;" 
d="M206 768v2q0 10 2 18q3 9 8 15t11 9q7 3 16 3h7t7 -2q2 -1 5 -2l4 -2q3 -1 5 -3q3 -2 7 -3q14 -8 18 -10q3 -2 10 -6q8 -3 14 -6t11 -5q4 -1 8 -3l8 -2q9 -1 17 -2t15 -1q21 0 38 7q16 7 29 21q14 13 20 32t7 42h-62v-3q0 -9 -3 -17q-2 -7 -8 -13q-5 -7 -11 -10
q-7 -3 -14 -3q-4 0 -8 1l-8 2l-10 4l-10 6q-15 7 -18 8q-4 1 -11 5q-13 7 -22 11q-10 4 -17 5q-9 2 -18 3t-15 1q-22 0 -38 -7q-17 -6 -30 -20q-7 -8 -12 -16q-5 -9 -8 -18q-4 -9 -5 -19q-2 -10 -2 -22h63zM70 0h97v578q17 -38 38 -88q22 -49 46 -105q44 -102 91 -208
q46 -107 77 -177h128v701h-97v-577q-31 70 -78 177q-46 106 -90 208q-24 55 -46 105t-38 87h-128v-701z" />
    <glyph glyph-name="Ograve" unicode="&#xd2;" 
d="M304 749h78q-18 23 -50 61q-31 39 -49 62h-92q22 -23 57 -62q35 -38 56 -61zM417 8q24 11 44 28t36 41q30 45 46 113q15 69 15 160q0 92 -15 161q-16 68 -46 114q-16 23 -36 40t-44 28t-51 16q-27 6 -58 6q-62 0 -109 -23q-47 -22 -78 -67t-47 -114t-16 -161t16 -161
q15 -69 46 -113q31 -45 78 -67t110 -22q31 0 58 5t51 16zM198 130q-17 34 -26 89q-8 55 -8 131q0 77 8 132q9 56 26 89t45 50q28 16 65 16q39 0 66 -16q28 -17 45 -50q17 -32 25 -87q9 -55 9 -134q0 -78 -9 -133q-8 -55 -25 -87q-17 -33 -45 -50q-27 -17 -66 -17
q-37 0 -65 17t-45 50z" />
    <glyph glyph-name="Oacute" unicode="&#xd3;" 
d="M252 749h77q21 23 57 61q36 39 57 62h-93q-18 -23 -49 -62q-31 -38 -49 -61zM417 8q24 11 44 28t36 41q30 45 46 113q15 69 15 160q0 92 -15 161q-16 68 -46 114q-16 23 -36 40t-44 28t-51 16q-27 6 -58 6q-62 0 -109 -23q-47 -22 -78 -67t-47 -114t-16 -161t16 -161
q15 -69 46 -113q31 -45 78 -67t110 -22q31 0 58 5t51 16zM198 130q-17 34 -26 89q-8 55 -8 131q0 77 8 132q9 56 26 89t45 50q28 16 65 16q39 0 66 -16q28 -17 45 -50q17 -32 25 -87q9 -55 9 -134q0 -78 -9 -133q-8 -55 -25 -87q-17 -33 -45 -50q-27 -17 -66 -17
q-37 0 -65 17t-45 50z" />
    <glyph glyph-name="Ocircumflex" unicode="&#xd4;" 
d="M165 745h69l42 42q26 27 41 42q16 -15 42 -42q26 -26 41 -42h70q-20 24 -53 63q-32 39 -52 62h-95q-20 -23 -52 -62q-33 -39 -53 -63zM417 8q24 11 44 28t36 41q30 45 46 113q15 69 15 160q0 92 -15 161q-16 68 -46 114q-16 23 -36 40t-44 28t-51 16q-27 6 -58 6
q-62 0 -109 -23q-47 -22 -78 -67t-47 -114t-16 -161t16 -161q15 -69 46 -113q31 -45 78 -67t110 -22q31 0 58 5t51 16zM198 130q-17 34 -26 89q-8 55 -8 131q0 77 8 132q9 56 26 89t45 50q28 16 65 16q39 0 66 -16q28 -17 45 -50q17 -32 25 -87q9 -55 9 -134q0 -78 -9 -133
q-8 -55 -25 -87q-17 -33 -45 -50q-27 -17 -66 -17q-37 0 -65 17t-45 50z" />
    <glyph glyph-name="Otilde" unicode="&#xd5;" 
d="M206 768v2q0 10 2 18q3 9 8 15t11 9q7 3 16 3h7t7 -2q2 -1 5 -2l4 -2q3 -1 5 -3q3 -2 7 -3q14 -8 18 -10q3 -2 10 -6q8 -3 14 -6t11 -5q4 -1 8 -3l8 -2q9 -1 17 -2t15 -1q21 0 38 7q16 7 29 21q14 13 20 32t7 42h-62v-3q0 -9 -3 -17q-2 -7 -8 -13q-5 -7 -11 -10
q-7 -3 -14 -3q-4 0 -8 1l-8 2l-10 4l-10 6q-15 7 -18 8q-4 1 -11 5q-13 7 -22 11q-10 4 -17 5q-9 2 -18 3t-15 1q-22 0 -38 -7q-17 -6 -30 -20q-7 -8 -12 -16q-5 -9 -8 -18q-4 -9 -5 -19q-2 -10 -2 -22h63zM417 8q24 11 44 28t36 41q30 45 46 113q15 69 15 160q0 92 -15 161
q-16 68 -46 114q-16 23 -36 40t-44 28t-51 16q-27 6 -58 6q-62 0 -109 -23q-47 -22 -78 -67t-47 -114t-16 -161t16 -161q15 -69 46 -113q31 -45 78 -67t110 -22q31 0 58 5t51 16zM198 130q-17 34 -26 89q-8 55 -8 131q0 77 8 132q9 56 26 89t45 50q28 16 65 16q39 0 66 -16
q28 -17 45 -50q17 -32 25 -87q9 -55 9 -134q0 -78 -9 -133q-8 -55 -25 -87q-17 -33 -45 -50q-27 -17 -66 -17q-37 0 -65 17t-45 50z" />
    <glyph glyph-name="Odieresis" unicode="&#xd6;" 
d="M246 774q7 0 11 4t4 10v67q0 7 -4 11q-4 3 -11 3h-72q-8 0 -11 -3q-3 -4 -3 -11v-67q0 -6 3 -10t11 -4h72zM441 774q8 0 12 4t4 10v67q0 7 -4 11q-4 3 -12 3h-70q-8 0 -12 -3q-4 -4 -4 -11v-67q0 -6 4 -10t12 -4h70zM417 8q24 11 44 28t36 41q30 45 46 113q15 69 15 160
q0 92 -15 161q-16 68 -46 114q-16 23 -36 40t-44 28t-51 16q-27 6 -58 6q-62 0 -109 -23q-47 -22 -78 -67t-47 -114t-16 -161t16 -161q15 -69 46 -113q31 -45 78 -67t110 -22q31 0 58 5t51 16zM198 130q-17 34 -26 89q-8 55 -8 131q0 77 8 132q9 56 26 89t45 50q28 16 65 16
q39 0 66 -16q28 -17 45 -50q17 -32 25 -87q9 -55 9 -134q0 -78 -9 -133q-8 -55 -25 -87q-17 -33 -45 -50q-27 -17 -66 -17q-37 0 -65 17t-45 50z" />
    <glyph glyph-name="multiply" unicode="&#xd7;" 
d="M134 82q21 20 53 50q32 31 63 60q17 16 32 30t26 25q22 -20 54 -51q31 -30 62 -59q17 -16 32 -30t26 -25q11 11 29 28q19 16 30 27q-21 20 -53 50l-64 60q-16 15 -31 29t-26 25q11 11 26 25t32 30q31 29 63 60q32 30 54 50q-11 10 -29 28q-19 17 -30 27q-21 -20 -53 -50
t-63 -60q-17 -16 -32 -30t-27 -25q-11 11 -26 25t-32 30q-31 30 -63 60t-54 50q-11 -10 -29 -27q-18 -18 -29 -28q11 -11 26 -25t32 -30q31 -29 63 -60q32 -30 54 -50q-12 -11 -27 -25t-31 -29l-64 -60t-53 -50q11 -11 29 -27q19 -17 30 -28z" />
    <glyph glyph-name="Oslash" unicode="&#xd8;" 
d="M55 -33q13 18 34 45q20 27 38 50q15 -19 34 -33t42 -23q12 -5 24 -9t25 -6q13 -3 26 -3q14 -1 28 -1q34 0 62 5q29 6 52 17q23 12 42 29t35 39q30 45 46 113q15 68 15 159q0 20 -1 39q0 19 -2 37t-3 33q-2 16 -4 29q-3 15 -6 28q-4 14 -7 27q-4 13 -9 23q-5 11 -10 21
q16 20 42 56t42 56q-9 7 -25 18t-25 17q-13 -17 -33 -44q-19 -27 -37 -51q-14 19 -32 34q-18 14 -39 23q-11 5 -23 9q-11 3 -24 6q-12 2 -26 3q-13 2 -29 2q-31 0 -58 -6t-50 -17t-43 -27q-19 -17 -35 -40t-28 -52q-12 -28 -19 -62q-8 -34 -12 -75q-4 -40 -4 -88
q0 -20 1 -38l2 -34q2 -16 3 -32q1 -15 4 -30q4 -31 11 -55t14 -40q-17 -22 -44 -60q-28 -37 -45 -59q10 -6 26 -16q15 -11 25 -17zM169 221q-2 9 -2 15q-1 6 -1 11v14q-1 8 -2 15v13v34q0 46 2 84t6 67t10 52q6 24 15 41q7 17 18 30q12 13 25 23q13 9 30 13q16 4 37 4
q22 0 41 -5q18 -5 32 -15q6 -4 12 -10t11 -13q6 -7 10 -16q5 -9 8 -19q-84 -113 -252 -338zM233 85q-16 11 -28 25t-20 32q32 43 57 76t44 59q17 23 30 41q14 18 25 33q26 36 47 63q21 28 54 73q2 -6 3 -12q2 -7 2 -13q1 -6 2 -13q0 -7 1 -15q0 -8 1 -17t1 -20v-22
q1 -11 1 -24q0 -43 -3 -77q-2 -34 -7 -60q-4 -26 -10 -47q-7 -22 -14 -37q-8 -16 -19 -28q-11 -13 -24 -21q-13 -9 -30 -13q-17 -5 -38 -5t-40 6q-18 5 -35 16z" />
    <glyph glyph-name="Ugrave" unicode="&#xd9;" 
d="M302 746h77q-19 24 -49 62q-31 39 -49 62h-93q22 -23 57 -62q36 -38 57 -62zM361 -10q12 1 23 4q10 3 19 6q10 3 20 8q9 4 19 9q10 6 20 11q9 6 17 13q18 15 30 34t19 42q3 10 6 25q2 14 5 31q2 17 3 41q1 25 1 55v432h-102v-476v-43q-1 -19 -3 -29q-1 -10 -4 -18
q-2 -8 -6 -15q-8 -13 -19 -24q-12 -10 -27 -18q-15 -7 -34 -11q-18 -4 -40 -4q-21 0 -40 4q-18 4 -34 11q-15 7 -26 17q-12 11 -20 25q-3 6 -6 14q-2 9 -4 20q-1 10 -2 29q-1 18 -1 43v475h-101v-432v-52q1 -23 3 -41q1 -18 4 -33t7 -26q5 -13 10 -24q4 -11 11 -20
q6 -10 13 -17q7 -8 14 -15q8 -7 17 -13q9 -5 20 -11q11 -5 20 -9q10 -5 20 -8q21 -7 45 -10t50 -3h28q14 1 25 3z" />
    <glyph glyph-name="Uacute" unicode="&#xda;" 
d="M238 749h76q22 23 58 61q36 39 57 62h-93q-19 -23 -49 -62q-31 -38 -49 -61zM361 -10q12 1 23 4q10 3 19 6q10 3 20 8q9 4 19 9q10 6 20 11q9 6 17 13q18 15 30 34t19 42q3 10 6 25q2 14 5 31q2 17 3 41q1 25 1 55v432h-102v-476v-43q-1 -19 -3 -29q-1 -10 -4 -18
q-2 -8 -6 -15q-8 -13 -19 -24q-12 -10 -27 -18q-15 -7 -34 -11q-18 -4 -40 -4q-21 0 -40 4q-18 4 -34 11q-15 7 -26 17q-12 11 -20 25q-3 6 -6 14q-2 9 -4 20q-1 10 -2 29q-1 18 -1 43v475h-101v-432v-52q1 -23 3 -41q1 -18 4 -33t7 -26q5 -13 10 -24q4 -11 11 -20
q6 -10 13 -17q7 -8 14 -15q8 -7 17 -13q9 -5 20 -11q11 -5 20 -9q10 -5 20 -8q21 -7 45 -10t50 -3h28q14 1 25 3z" />
    <glyph glyph-name="Ucircumflex" unicode="&#xdb;" 
d="M156 745h69l42 42q26 27 41 42q16 -15 42 -42q26 -26 41 -42h70q-20 24 -53 63t-53 62h-94q-20 -23 -53 -62q-32 -39 -52 -63zM361 -10q12 1 23 4q10 3 19 6q10 3 20 8q9 4 19 9q10 6 20 11q9 6 17 13q18 15 30 34t19 42q3 10 6 25q2 14 5 31q2 17 3 41q1 25 1 55v432
h-102v-476v-43q-1 -19 -3 -29q-1 -10 -4 -18q-2 -8 -6 -15q-8 -13 -19 -24q-12 -10 -27 -18q-15 -7 -34 -11q-18 -4 -40 -4q-21 0 -40 4q-18 4 -34 11q-15 7 -26 17q-12 11 -20 25q-3 6 -6 14q-2 9 -4 20q-1 10 -2 29q-1 18 -1 43v475h-101v-432v-52q1 -23 3 -41
q1 -18 4 -33t7 -26q5 -13 10 -24q4 -11 11 -20q6 -10 13 -17q7 -8 14 -15q8 -7 17 -13q9 -5 20 -11q11 -5 20 -9q10 -5 20 -8q21 -7 45 -10t50 -3h28q14 1 25 3z" />
    <glyph glyph-name="Udieresis" unicode="&#xdc;" 
d="M246 774q7 0 11 4t4 10v67q0 7 -4 11q-4 3 -11 3h-72q-8 0 -11 -3q-3 -4 -3 -11v-67q0 -6 3 -10t11 -4h72zM441 774q8 0 12 4t4 10v67q0 7 -4 11q-4 3 -12 3h-70q-8 0 -12 -3q-4 -4 -4 -11v-67q0 -6 4 -10t12 -4h70zM361 -10q12 1 23 4q10 3 19 6q10 3 20 8q9 4 19 9
q10 6 20 11q9 6 17 13q18 15 30 34t19 42q3 10 6 25q2 14 5 31q2 17 3 41q1 25 1 55v432h-102v-476v-43q-1 -19 -3 -29q-1 -10 -4 -18q-2 -8 -6 -15q-8 -13 -19 -24q-12 -10 -27 -18q-15 -7 -34 -11q-18 -4 -40 -4q-21 0 -40 4q-18 4 -34 11q-15 7 -26 17q-12 11 -20 25
q-3 6 -6 14q-2 9 -4 20q-1 10 -2 29q-1 18 -1 43v475h-101v-432v-52q1 -23 3 -41q1 -18 4 -33t7 -26q5 -13 10 -24q4 -11 11 -20q6 -10 13 -17q7 -8 14 -15q8 -7 17 -13q9 -5 20 -11q11 -5 20 -9q10 -5 20 -8q21 -7 45 -10t50 -3h28q14 1 25 3z" />
    <glyph glyph-name="Yacute" unicode="&#xdd;" 
d="M238 746h76q22 24 58 62q36 39 57 62h-93q-19 -23 -49 -62q-31 -38 -49 -62zM257 0h101v315q16 26 37 59q20 33 43 70q43 68 87 139q44 72 73 118h-109q-11 -20 -27 -46q-15 -27 -33 -57q-32 -54 -65 -111q-34 -57 -56 -95q-12 21 -27 47q-16 27 -33 56q-33 55 -66 112
q-34 56 -56 94h-108q16 -25 37 -58q20 -33 43 -70q42 -69 86 -140t73 -118v-315z" />
    <glyph glyph-name="Thorn" unicode="&#xde;" 
d="M100 0h102v172h127q64 0 112 13t79 37q16 12 27 28q12 15 19 34q8 18 12 40q5 23 5 49q0 51 -16 89q-16 39 -47 63q-31 25 -79 37t-112 12h-127v127h-102v-701zM202 250v247h116q21 0 39 -3q18 -2 32 -6q15 -3 27 -9t21 -13q10 -8 18 -18q7 -9 12 -21t7 -25q2 -14 2 -28
q0 -31 -10 -55q-10 -23 -29 -38q-20 -16 -50 -23q-29 -8 -69 -8h-116z" />
    <glyph glyph-name="germandbls" unicode="&#xdf;" 
d="M518 28q16 10 26 24q11 13 17 28q6 14 10 30q3 16 3 33q0 26 -6 50q-7 23 -21 43q-7 10 -17 20t-22 19q-12 10 -29 20q-16 11 -36 22q-14 9 -18 11q-3 2 -10 7q-8 4 -15 9q-8 5 -13 9l-10 10q-5 4 -9 10q-7 9 -11 20q-4 10 -4 22q0 23 11 42t31 33q22 15 52 24t68 12
q-1 51 -14 89q-13 39 -39 65t-65 39q-40 12 -92 12q-53 0 -92 -12q-40 -11 -67 -36q-26 -25 -39 -62t-13 -86v-535h93v532q0 34 7 57q7 24 22 40q15 15 37 23q22 7 52 7q28 0 50 -6q22 -7 37 -20q16 -13 23 -32q7 -20 8 -45q-39 -8 -69 -23q-30 -14 -50 -34q-10 -10 -17 -21
t-13 -24q-5 -13 -7 -27q-3 -13 -3 -27q0 -10 1 -20q1 -9 4 -18q3 -8 8 -16q4 -8 10 -15q5 -8 13 -16l15 -15q9 -8 19 -15q10 -6 21 -13q12 -6 34 -18q12 -7 23 -13q11 -7 21 -14t18 -14q8 -8 14 -16q8 -12 12 -24q4 -13 4 -28q0 -10 -1 -20q-2 -9 -6 -16q-4 -8 -10 -16
q-6 -7 -14 -13q-17 -12 -38 -17q-22 -6 -48 -6q-16 0 -31 2q-16 2 -32 6q-18 3 -36 9q-18 5 -36 12v-77q10 -3 19 -5q9 -3 18 -5l18 -4q8 -2 13 -3q16 -3 33 -4t36 -1q48 0 86 10t66 31z" />
    <glyph glyph-name="agrave" unicode="&#xe0;" 
d="M303 609h78q-17 22 -43 55q-26 32 -51 64q-14 17 -26 32t-21 26h-99q11 -11 25 -26q14 -16 29 -32q29 -32 59 -65q29 -32 49 -54zM365 9q10 6 22 13q11 7 23 16q11 9 20 20q10 10 16 22q1 -4 2 -9q1 -4 2 -10q0 -5 2 -10q1 -5 3 -10q3 -13 7 -24q3 -10 6 -17h92
q-1 2 -2 5q-1 4 -3 10l-4 14q-3 7 -4 14q-2 5 -3 11t-2 15q-2 8 -3 18q-2 10 -3 19q-2 10 -3 19t-1 19v23q0 12 -1 26v107q0 35 -2 61q-2 27 -6 43q-1 7 -4 15q-3 7 -6 15t-8 15q-4 7 -9 14q-7 9 -16 17q-8 9 -19 16t-22 13t-22 10q-26 10 -55 15q-28 5 -63 5q-24 0 -47 -2
t-45 -7q-13 -2 -26 -5q-12 -4 -25 -8t-25 -7t-22 -7v-87q22 12 45 21q24 9 49 16q24 6 47 9q24 4 48 4q37 0 64 -8q26 -7 42 -21q17 -14 26 -37q8 -22 8 -54v-13h-123q-60 0 -107 -12q-46 -11 -77 -34t-47 -56q-16 -34 -16 -77q0 -21 3 -39q4 -17 11 -32t16 -28
q8 -13 21 -23q25 -23 59 -34t78 -11q31 0 58 5q28 6 51 17zM225 66q-10 3 -19 8t-16 11q-15 13 -23 31q-7 19 -7 43q0 27 10 47t31 33q20 13 51 19q30 6 70 6h116v-18q0 -43 -11 -78q-10 -34 -33 -59q-21 -25 -51 -38t-68 -13q-14 0 -27 2q-12 2 -23 6z" />
    <glyph glyph-name="aacute" unicode="&#xe1;" 
d="M239 609h77q20 22 50 54q30 33 58 65q16 16 30 32q13 15 24 26h-98q-9 -11 -21 -26t-26 -32q-25 -32 -51 -64q-26 -33 -43 -55zM365 9q10 6 22 13q11 7 23 16q11 9 20 20q10 10 16 22q1 -4 2 -9q1 -4 2 -10q0 -5 2 -10q1 -5 3 -10q3 -13 7 -24q3 -10 6 -17h92q-1 2 -2 5
q-1 4 -3 10l-4 14q-3 7 -4 14q-2 5 -3 11t-2 15q-2 8 -3 18q-2 10 -3 19q-2 10 -3 19t-1 19v23q0 12 -1 26v107q0 35 -2 61q-2 27 -6 43q-1 7 -4 15q-3 7 -6 15t-8 15q-4 7 -9 14q-7 9 -16 17q-8 9 -19 16t-22 13t-22 10q-26 10 -55 15q-28 5 -63 5q-24 0 -47 -2t-45 -7
q-13 -2 -26 -5q-12 -4 -25 -8t-25 -7t-22 -7v-87q22 12 45 21q24 9 49 16q24 6 47 9q24 4 48 4q37 0 64 -8q26 -7 42 -21q17 -14 26 -37q8 -22 8 -54v-13h-123q-60 0 -107 -12q-46 -11 -77 -34t-47 -56q-16 -34 -16 -77q0 -21 3 -39q4 -17 11 -32t16 -28q8 -13 21 -23
q25 -23 59 -34t78 -11q31 0 58 5q28 6 51 17zM225 66q-10 3 -19 8t-16 11q-15 13 -23 31q-7 19 -7 43q0 27 10 47t31 33q20 13 51 19q30 6 70 6h116v-18q0 -43 -11 -78q-10 -34 -33 -59q-21 -25 -51 -38t-68 -13q-14 0 -27 2q-12 2 -23 6z" />
    <glyph glyph-name="acircumflex" unicode="&#xe2;" 
d="M150 609h69q17 22 45 58t45 58q17 -22 46 -58q28 -36 45 -58h69q-23 33 -61 89q-39 55 -62 88h-73q-23 -33 -62 -88q-38 -56 -61 -89zM365 9q10 6 22 13q11 7 23 16q11 9 20 20q10 10 16 22q1 -4 2 -9q1 -4 2 -10q0 -5 2 -10q1 -5 3 -10q3 -13 7 -24q3 -10 6 -17h92
q-1 2 -2 5q-1 4 -3 10l-4 14q-3 7 -4 14q-2 5 -3 11t-2 15q-2 8 -3 18q-2 10 -3 19q-2 10 -3 19t-1 19v23q0 12 -1 26v107q0 35 -2 61q-2 27 -6 43q-1 7 -4 15q-3 7 -6 15t-8 15q-4 7 -9 14q-7 9 -16 17q-8 9 -19 16t-22 13t-22 10q-26 10 -55 15q-28 5 -63 5q-24 0 -47 -2
t-45 -7q-13 -2 -26 -5q-12 -4 -25 -8t-25 -7t-22 -7v-87q22 12 45 21q24 9 49 16q24 6 47 9q24 4 48 4q37 0 64 -8q26 -7 42 -21q17 -14 26 -37q8 -22 8 -54v-13h-123q-60 0 -107 -12q-46 -11 -77 -34t-47 -56q-16 -34 -16 -77q0 -21 3 -39q4 -17 11 -32t16 -28
q8 -13 21 -23q25 -23 59 -34t78 -11q31 0 58 5q28 6 51 17zM225 66q-10 3 -19 8t-16 11q-15 13 -23 31q-7 19 -7 43q0 27 10 47t31 33q20 13 51 19q30 6 70 6h116v-18q0 -43 -11 -78q-10 -34 -33 -59q-21 -25 -51 -38t-68 -13q-14 0 -27 2q-12 2 -23 6z" />
    <glyph glyph-name="atilde" unicode="&#xe3;" 
d="M207 630q1 19 3 33t7 22q5 9 12 13t16 4h7q4 -1 8 -4q2 0 3 -2q2 -1 4 -3q3 -1 6 -4q2 -2 6 -5q14 -13 18 -16l10 -10q9 -7 18 -13q9 -5 17 -9q8 -3 18 -5q9 -1 18 -1q22 0 40 8q17 9 31 27q13 17 19 41t6 56h-62q0 -19 -3 -32q-2 -14 -7 -23q-4 -9 -11 -13q-7 -5 -16 -5
q-4 0 -8 1t-8 3q-3 3 -8 6q-5 4 -10 9q-15 13 -18 16q-4 3 -11 9q-9 8 -18 13q-9 6 -16 10q-9 3 -18 4q-9 2 -18 2q-23 0 -40 -9q-18 -8 -31 -26t-19 -42q-7 -24 -7 -55h62zM365 9q10 6 22 13q11 7 23 16q11 9 20 20q10 10 16 22q1 -4 2 -9q1 -4 2 -10q0 -5 2 -10
q1 -5 3 -10q3 -13 7 -24q3 -10 6 -17h92q-1 2 -2 5q-1 4 -3 10l-4 14q-3 7 -4 14q-2 5 -3 11t-2 15q-2 8 -3 18q-2 10 -3 19q-2 10 -3 19t-1 19v23q0 12 -1 26v107q0 35 -2 61q-2 27 -6 43q-1 7 -4 15q-3 7 -6 15t-8 15q-4 7 -9 14q-7 9 -16 17q-8 9 -19 16t-22 13t-22 10
q-26 10 -55 15q-28 5 -63 5q-24 0 -47 -2t-45 -7q-13 -2 -26 -5q-12 -4 -25 -8t-25 -7t-22 -7v-87q22 12 45 21q24 9 49 16q24 6 47 9q24 4 48 4q37 0 64 -8q26 -7 42 -21q17 -14 26 -37q8 -22 8 -54v-13h-123q-60 0 -107 -12q-46 -11 -77 -34t-47 -56q-16 -34 -16 -77
q0 -21 3 -39q4 -17 11 -32t16 -28q8 -13 21 -23q25 -23 59 -34t78 -11q31 0 58 5q28 6 51 17zM225 66q-10 3 -19 8t-16 11q-15 13 -23 31q-7 19 -7 43q0 27 10 47t31 33q20 13 51 19q30 6 70 6h116v-18q0 -43 -11 -78q-10 -34 -33 -59q-21 -25 -51 -38t-68 -13q-14 0 -27 2
q-12 2 -23 6z" />
    <glyph glyph-name="adieresis" unicode="&#xe4;" 
d="M248 635q7 0 11 3q3 3 3 10v68q0 7 -3 10q-4 3 -11 3h-72q-8 0 -11 -3q-4 -3 -4 -10v-68q0 -7 4 -10q3 -3 11 -3h72zM443 635q8 0 11 3q4 3 4 10v68q0 7 -4 10q-3 3 -11 3h-71q-8 0 -11 -3q-4 -3 -4 -10v-68q0 -7 4 -10q3 -3 11 -3h71zM365 9q10 6 22 13q11 7 23 16
q11 9 20 20q10 10 16 22q1 -4 2 -9q1 -4 2 -10q0 -5 2 -10q1 -5 3 -10q3 -13 7 -24q3 -10 6 -17h92q-1 2 -2 5q-1 4 -3 10l-4 14q-3 7 -4 14q-2 5 -3 11t-2 15q-2 8 -3 18q-2 10 -3 19q-2 10 -3 19t-1 19v23q0 12 -1 26v107q0 35 -2 61q-2 27 -6 43q-1 7 -4 15q-3 7 -6 15
t-8 15q-4 7 -9 14q-7 9 -16 17q-8 9 -19 16t-22 13t-22 10q-26 10 -55 15q-28 5 -63 5q-24 0 -47 -2t-45 -7q-13 -2 -26 -5q-12 -4 -25 -8t-25 -7t-22 -7v-87q22 12 45 21q24 9 49 16q24 6 47 9q24 4 48 4q37 0 64 -8q26 -7 42 -21q17 -14 26 -37q8 -22 8 -54v-13h-123
q-60 0 -107 -12q-46 -11 -77 -34t-47 -56q-16 -34 -16 -77q0 -21 3 -39q4 -17 11 -32t16 -28q8 -13 21 -23q25 -23 59 -34t78 -11q31 0 58 5q28 6 51 17zM225 66q-10 3 -19 8t-16 11q-15 13 -23 31q-7 19 -7 43q0 27 10 47t31 33q20 13 51 19q30 6 70 6h116v-18
q0 -43 -11 -78q-10 -34 -33 -59q-21 -25 -51 -38t-68 -13q-14 0 -27 2q-12 2 -23 6z" />
    <glyph glyph-name="aring" unicode="&#xe5;" 
d="M408 625q20 18 30 41q9 23 9 50t-9 50q-10 24 -30 42t-45 28q-25 9 -54 9q-28 0 -52 -9q-24 -10 -44 -28t-30 -42q-11 -23 -11 -50t11 -50q10 -23 30 -41q20 -19 44 -29q24 -9 52 -9q29 0 54 9q25 10 45 29zM256 666q-11 10 -16 22q-6 12 -6 28q0 15 6 28q5 13 16 23
t24 15t29 5t30 -5t25 -15q10 -10 16 -23q5 -14 5 -28q0 -16 -5 -28q-6 -12 -16 -22q-11 -10 -25 -16q-14 -5 -30 -5t-29 5q-13 6 -24 16zM365 9q10 6 22 13q11 7 23 16q11 9 20 20q10 10 16 22q1 -4 2 -9q1 -4 2 -10q0 -5 2 -10q1 -5 3 -10q3 -13 7 -24q3 -10 6 -17h92
q-1 2 -2 5q-1 4 -3 10l-4 14q-3 7 -4 14q-2 5 -3 11t-2 15q-2 8 -3 18q-2 10 -3 19q-2 10 -3 19t-1 19v23q0 12 -1 26v107q0 35 -2 61q-2 27 -6 43q-1 7 -4 15q-3 7 -6 15t-8 15q-4 7 -9 14q-7 9 -16 17q-8 9 -19 16t-22 13t-22 10q-26 10 -55 15q-28 5 -63 5q-24 0 -47 -2
t-45 -7q-13 -2 -26 -5q-12 -4 -25 -8t-25 -7t-22 -7v-87q22 12 45 21q24 9 49 16q24 6 47 9q24 4 48 4q37 0 64 -8q26 -7 42 -21q17 -14 26 -37q8 -22 8 -54v-13h-123q-60 0 -107 -12q-46 -11 -77 -34t-47 -56q-16 -34 -16 -77q0 -21 3 -39q4 -17 11 -32t16 -28
q8 -13 21 -23q25 -23 59 -34t78 -11q31 0 58 5q28 6 51 17zM225 66q-10 3 -19 8t-16 11q-15 13 -23 31q-7 19 -7 43q0 27 10 47t31 33q20 13 51 19q30 6 70 6h116v-18q0 -43 -11 -78q-10 -34 -33 -59q-21 -25 -51 -38t-68 -13q-14 0 -27 2q-12 2 -23 6z" />
    <glyph glyph-name="ae" unicode="&#xe6;" 
d="M262 5q16 10 29 24t23 32q8 -18 22 -31q13 -14 32 -24q18 -10 41 -15q23 -4 50 -4q20 0 37 2t32 7q16 5 31 12q14 8 30 18v80q-13 -12 -27 -20q-13 -9 -30 -15q-16 -6 -34 -10q-18 -3 -36 -3q-14 0 -27 3q-12 2 -22 6q-10 3 -19 10q-8 6 -15 15q-6 8 -11 19q-4 10 -8 24
q-3 14 -5 32t-2 41v14q0 2 1 3v1v8v8h246v42q0 72 -9 122t-27 77q-17 28 -48 42t-75 14q-47 0 -79 -15t-49 -45q-9 16 -21 27t-28 18q-15 7 -34 11t-42 4q-16 0 -31 -2q-16 -2 -32 -6q-9 -1 -17 -4l-18 -6t-18 -7q-10 -3 -19 -7v-79q8 5 16 9t16 7q8 4 16 7l16 6q16 4 31 7
t30 3q24 0 42 -8q18 -7 30 -23q12 -15 18 -36t6 -50v-41h-58q-48 0 -84 -10q-36 -11 -61 -32q-13 -10 -23 -24t-16 -29t-9 -33t-3 -38q0 -18 3 -34q3 -17 8 -31q4 -15 12 -28t18 -23q20 -20 50 -30t68 -10q25 0 46 4q20 5 37 14zM354 309v20q0 37 5 63q6 27 15 43t25 24
t37 8q12 0 22 -2q9 -2 17 -6q8 -5 13 -11q6 -6 11 -13q4 -7 8 -17t6 -23t4 -28q1 -16 1 -34v-24h-164zM125 82q-12 11 -17 28q-6 16 -6 37q0 26 8 44q7 18 22 29t44 16q29 6 71 6h24v-34q0 -24 -1 -43t-4 -33q-2 -14 -5 -24t-8 -18q-9 -16 -26 -24q-16 -8 -40 -8
q-20 0 -35 6q-16 6 -27 18z" />
    <glyph glyph-name="ccedilla" unicode="&#xe7;" 
d="M442 453q18 -7 36 -18t37 -27v91q-21 10 -40 18t-38 12q-17 5 -38 7q-20 3 -43 3q-63 0 -113 -19q-50 -18 -87 -54q-18 -18 -31 -39q-14 -21 -24 -46t-14 -55q-5 -29 -5 -63q0 -64 18 -116q18 -51 55 -88q33 -33 79 -51q45 -18 103 -21q4 -6 7 -10q4 -5 7 -10q3 -4 5 -8
l4 -8q6 -10 9 -19t3 -17q0 -21 -16 -32t-47 -11q-20 0 -39 4t-36 11v-61q11 -3 22 -5q10 -3 22 -4q10 -2 22 -2h22q15 0 28 1q14 1 25 4t20 6q9 4 16 9q15 11 23 26q7 16 7 36q0 6 -1 13t-3 13q-1 6 -4 12q-2 5 -5 11q-5 10 -13 21t-18 22q7 1 22 3q5 1 10 1q5 1 10 3
q10 2 19 6q10 3 20 7t19 9q10 4 18 9v90q-8 -7 -15 -13q-8 -6 -17 -12q-8 -5 -18 -10q-9 -4 -21 -8q-8 -3 -17 -6q-10 -3 -20 -5q-11 -1 -23 -2q-11 -2 -24 -2q-43 0 -77 14q-34 13 -58 40q-12 13 -21 30t-15 36q-5 19 -7 41q-3 21 -3 43q0 49 12 86q11 37 34 64
q23 26 57 39q34 14 77 14q23 0 43 -3q21 -3 40 -10z" />
    <glyph glyph-name="egrave" unicode="&#xe8;" 
d="M309 609h77q-17 22 -43 54q-26 33 -51 65q-13 16 -25 32q-12 15 -21 26h-99q11 -11 25 -26q14 -16 29 -32q29 -32 59 -65q29 -32 49 -54zM386 -11q12 1 24 3l24 4q10 2 22 5q11 3 25 7t27 9q13 4 27 10v86q-14 -7 -27 -13t-26 -11t-25 -9q-13 -4 -25 -7q-23 -7 -46 -10
q-23 -4 -46 -4t-42 3q-20 4 -36 10t-30 14q-15 9 -26 20q-24 24 -36 57q-12 34 -12 77v3h398v42q0 60 -15 106q-15 47 -45 81q-31 34 -74 50q-43 17 -97 17q-29 0 -55 -5t-51 -14q-24 -9 -46 -23q-21 -14 -40 -33q-17 -18 -30 -39t-22 -46t-14 -55q-5 -29 -5 -62
q0 -64 18 -115q18 -50 55 -87q37 -36 88 -55q51 -18 116 -18h23t24 2zM162 309q4 37 17 66q12 28 34 49q21 21 49 31q27 11 61 11q33 0 60 -10q26 -10 44 -30q8 -9 15 -20q6 -12 12 -26q5 -15 8 -32q2 -18 3 -38h-67h-51h-36h-30q-30 0 -55 -1h-64z" />
    <glyph glyph-name="eacute" unicode="&#xe9;" 
d="M245 609h77q19 22 49 54q30 33 59 65q16 16 30 32q14 15 24 26h-99q-9 -11 -21 -26q-12 -16 -26 -32q-25 -32 -50 -65q-26 -32 -43 -54zM386 -11q12 1 24 3l24 4q10 2 22 5q11 3 25 7t27 9q13 4 27 10v86q-14 -7 -27 -13t-26 -11t-25 -9q-13 -4 -25 -7q-23 -7 -46 -10
q-23 -4 -46 -4t-42 3q-20 4 -36 10t-30 14q-15 9 -26 20q-24 24 -36 57q-12 34 -12 77v3h398v42q0 60 -15 106q-15 47 -45 81q-31 34 -74 50q-43 17 -97 17q-29 0 -55 -5t-51 -14q-24 -9 -46 -23q-21 -14 -40 -33q-17 -18 -30 -39t-22 -46t-14 -55q-5 -29 -5 -62
q0 -64 18 -115q18 -50 55 -87q37 -36 88 -55q51 -18 116 -18h23t24 2zM162 309q4 37 17 66q12 28 34 49q21 21 49 31q27 11 61 11q33 0 60 -10q26 -10 44 -30q8 -9 15 -20q6 -12 12 -26q5 -15 8 -32q2 -18 3 -38h-67h-51h-36h-30q-30 0 -55 -1h-64z" />
    <glyph glyph-name="ecircumflex" unicode="&#xea;" 
d="M156 609h69q17 22 45 58t45 58q17 -22 45 -58q29 -36 46 -58h69q-23 33 -61 89q-39 55 -62 88h-73q-24 -33 -62 -88q-38 -56 -61 -89zM386 -11q12 1 24 3l24 4q10 2 22 5q11 3 25 7t27 9q13 4 27 10v86q-14 -7 -27 -13t-26 -11t-25 -9q-13 -4 -25 -7q-23 -7 -46 -10
q-23 -4 -46 -4t-42 3q-20 4 -36 10t-30 14q-15 9 -26 20q-24 24 -36 57q-12 34 -12 77v3h398v42q0 60 -15 106q-15 47 -45 81q-31 34 -74 50q-43 17 -97 17q-29 0 -55 -5t-51 -14q-24 -9 -46 -23q-21 -14 -40 -33q-17 -18 -30 -39t-22 -46t-14 -55q-5 -29 -5 -62
q0 -64 18 -115q18 -50 55 -87q37 -36 88 -55q51 -18 116 -18h23t24 2zM162 309q4 37 17 66q12 28 34 49q21 21 49 31q27 11 61 11q33 0 60 -10q26 -10 44 -30q8 -9 15 -20q6 -12 12 -26q5 -15 8 -32q2 -18 3 -38h-67h-51h-36h-30q-30 0 -55 -1h-64z" />
    <glyph glyph-name="edieresis" unicode="&#xeb;" 
d="M254 635q8 0 11 3t3 10v68q0 7 -3 10t-11 3h-72q-7 0 -11 -3t-4 -10v-68q0 -7 4 -10t11 -3h72zM449 635q7 0 11 3t4 10v68q0 7 -4 10t-11 3h-71q-8 0 -12 -3t-4 -10v-68q0 -7 4 -10t12 -3h71zM386 -11q12 1 24 3l24 4q10 2 22 5q11 3 25 7t27 9q13 4 27 10v86
q-14 -7 -27 -13t-26 -11t-25 -9q-13 -4 -25 -7q-23 -7 -46 -10q-23 -4 -46 -4t-42 3q-20 4 -36 10t-30 14q-15 9 -26 20q-24 24 -36 57q-12 34 -12 77v3h398v42q0 60 -15 106q-15 47 -45 81q-31 34 -74 50q-43 17 -97 17q-29 0 -55 -5t-51 -14q-24 -9 -46 -23
q-21 -14 -40 -33q-17 -18 -30 -39t-22 -46t-14 -55q-5 -29 -5 -62q0 -64 18 -115q18 -50 55 -87q37 -36 88 -55q51 -18 116 -18h23t24 2zM162 309q4 37 17 66q12 28 34 49q21 21 49 31q27 11 61 11q33 0 60 -10q26 -10 44 -30q8 -9 15 -20q6 -12 12 -26q5 -15 8 -32
q2 -18 3 -38h-67h-51h-36h-30q-30 0 -55 -1h-64z" />
    <glyph glyph-name="igrave" unicode="&#xec;" 
d="M271 597h77q-17 21 -43 54t-50 64q-14 17 -26 32q-12 16 -21 27h-99q10 -11 24 -27q14 -15 30 -32q29 -31 59 -64q29 -33 49 -54zM546 -4v74h-108q-22 0 -38 7q-17 8 -28 22q-12 15 -18 37q-6 21 -6 51v339h-214v-67h122v-272q0 -45 12 -81q11 -35 34 -60q12 -13 26 -22
q13 -10 29 -16q17 -6 34 -9q18 -3 38 -3h117z" />
    <glyph glyph-name="iacute" unicode="&#xed;" 
d="M256 597h78q20 21 49 54q30 33 59 64q15 17 29 32q14 16 25 27h-99q-9 -11 -21 -27q-12 -15 -26 -32q-25 -31 -51 -64q-26 -32 -43 -54zM546 -4v74h-108q-22 0 -38 7q-17 8 -28 22q-12 15 -18 37q-6 21 -6 51v339h-214v-67h122v-272q0 -45 12 -81q11 -35 34 -60
q12 -13 26 -22q13 -10 29 -16q17 -6 34 -9q18 -3 38 -3h117z" />
    <glyph glyph-name="icircumflex" unicode="&#xee;" 
d="M134 598h70q22 29 90 115q22 -29 90 -115h70q-31 44 -123 176h-74q-31 -44 -123 -176zM546 -4v74h-108q-22 0 -38 7q-17 8 -28 22q-12 15 -18 37q-6 21 -6 51v339h-214v-67h122v-272q0 -45 12 -81q11 -35 34 -60q12 -13 26 -22q13 -10 29 -16q17 -6 34 -9q18 -3 38 -3
h117z" />
    <glyph glyph-name="idieresis" unicode="&#xef;" 
d="M236 635q7 0 11 3t4 10v68q0 7 -4 10t-11 3h-72q-8 0 -11 -3t-3 -10v-68q0 -7 3 -10t11 -3h72zM431 635q8 0 12 3q3 3 3 10v68q0 7 -3 10q-4 3 -12 3h-71q-7 0 -11 -3t-4 -10v-68q0 -7 4 -10t11 -3h71zM546 -4v74h-108q-22 0 -38 7q-17 8 -28 22q-12 15 -18 37
q-6 21 -6 51v339h-214v-67h122v-272q0 -45 12 -81q11 -35 34 -60q12 -13 26 -22q13 -10 29 -16q17 -6 34 -9q18 -3 38 -3h117z" />
    <glyph glyph-name="eth" unicode="&#xf0;" 
d="M409 3q22 9 41 22q19 14 35 31q32 36 47 83q16 47 16 109q0 25 -3 49t-8 47q-6 23 -14 46q-9 23 -20 45q-23 45 -59 92t-86 97q24 7 63 19t62 19q-3 8 -8 23q-5 14 -8 23q-27 -9 -72 -22q-46 -14 -72 -22q-13 13 -32 33q-20 21 -32 34h-109q16 -18 45 -47t46 -47
q-40 -12 -119 -37q3 -8 8 -23q4 -15 7 -23q26 8 66 20q39 12 73 23l10 -10q4 -5 9 -10q5 -6 9 -11q5 -5 9 -10q5 -5 10 -12t11 -14q5 -6 9 -11q4 -4 5 -6q-4 1 -6 1t-1 0t-2 0q-2 0 -7 1h-4h-13q-61 0 -108 -17q-46 -18 -77 -53q-31 -34 -46 -83q-15 -48 -15 -111
q0 -62 15 -111q16 -48 47 -84q32 -34 76 -52q44 -17 101 -17q28 0 53 4t48 12zM203 110q-19 25 -28 60q-9 36 -9 81q0 47 10 83t29 60q19 25 48 37t66 12h20q9 0 19 -2q4 0 9 -1q4 -1 10 -3q5 -1 10 -3q5 -1 9 -3q13 -16 23 -36t17 -44q8 -24 11 -49q4 -25 4 -52
q0 -45 -10 -80q-9 -35 -27 -60q-19 -25 -45 -38t-61 -13q-34 0 -61 13q-26 13 -44 38z" />
    <glyph glyph-name="ntilde" unicode="&#xf1;" 
d="M206 604q1 19 3 33q1 14 6 22q5 9 12 13q7 5 17 5q4 0 7 -1t7 -3l4 -2q2 -2 4 -3q3 -2 5 -4q3 -2 7 -6q14 -13 18 -16q3 -3 10 -9q9 -8 18 -13t17 -9q8 -3 18 -5q9 -2 18 -2q22 0 40 9q17 8 30 26q14 18 20 42q6 25 6 56h-62q0 -18 -3 -32q-2 -14 -7 -23q-4 -8 -12 -13
q-7 -4 -16 -4h-7q-4 1 -8 4q-3 2 -9 5q-5 3 -10 8q-15 13 -18 17q-4 3 -11 10q-9 7 -17 12q-9 5 -17 9q-8 3 -18 5q-9 2 -18 2q-23 0 -40 -8q-17 -9 -30 -27q-13 -17 -20 -42q-7 -24 -7 -56h63zM97 0h92v298q0 41 9 71t26 52q17 21 42 32q24 11 57 11q28 0 49 -9
q21 -8 35 -25q13 -17 19 -42q7 -26 7 -61v-327h92v327q0 53 -10 93q-11 40 -32 66q-10 13 -23 23q-13 9 -29 16t-35 10q-18 4 -41 4q-57 0 -99 -23q-41 -22 -67 -69q-1 15 -4 40t-5 39h-83v-526z" />
    <glyph glyph-name="ograve" unicode="&#xf2;" 
d="M302 609h77q-17 22 -43 54q-26 33 -51 65q-13 16 -25 32q-12 15 -21 26h-100q11 -11 25 -26q14 -16 30 -32q28 -32 58 -65q30 -32 50 -54zM486 57q31 35 46 86q16 52 16 120q0 67 -16 118q-15 51 -46 87q-30 35 -75 53q-44 18 -103 18q-58 0 -103 -18q-44 -18 -75 -53
q-31 -36 -46 -87t-15 -118q0 -33 3 -62q4 -29 12 -56q8 -26 19 -47q11 -22 27 -41q31 -35 75 -53q45 -17 103 -17q59 0 104 17q44 18 74 53zM202 112q-18 25 -27 63t-9 88t9 88t27 64q17 25 44 38t62 13q36 0 62 -13q27 -13 45 -38q17 -26 26 -64q10 -38 10 -88t-10 -88
q-9 -38 -26 -63q-18 -26 -45 -40q-26 -13 -62 -13q-35 0 -62 13q-27 14 -44 40z" />
    <glyph glyph-name="oacute" unicode="&#xf3;" 
d="M238 609h76q20 22 50 54q30 33 59 65q15 16 29 32q14 15 25 26h-99q-9 -11 -21 -26q-12 -16 -26 -32q-25 -32 -51 -65q-25 -32 -42 -54zM486 57q31 35 46 86q16 52 16 120q0 67 -16 118q-15 51 -46 87q-30 35 -75 53q-44 18 -103 18q-58 0 -103 -18q-44 -18 -75 -53
q-31 -36 -46 -87t-15 -118q0 -33 3 -62q4 -29 12 -56q8 -26 19 -47q11 -22 27 -41q31 -35 75 -53q45 -17 103 -17q59 0 104 17q44 18 74 53zM202 112q-18 25 -27 63t-9 88t9 88t27 64q17 25 44 38t62 13q36 0 62 -13q27 -13 45 -38q17 -26 26 -64q10 -38 10 -88t-10 -88
q-9 -38 -26 -63q-18 -26 -45 -40q-26 -13 -62 -13q-35 0 -62 13q-27 14 -44 40z" />
    <glyph glyph-name="ocircumflex" unicode="&#xf4;" 
d="M148 609h70q17 22 45 58t45 58q17 -22 45 -58t45 -58h70q-23 33 -61 89q-39 55 -62 88h-74q-23 -33 -61 -88q-38 -56 -62 -89zM486 57q31 35 46 86q16 52 16 120q0 67 -16 118q-15 51 -46 87q-30 35 -75 53q-44 18 -103 18q-58 0 -103 -18q-44 -18 -75 -53
q-31 -36 -46 -87t-15 -118q0 -33 3 -62q4 -29 12 -56q8 -26 19 -47q11 -22 27 -41q31 -35 75 -53q45 -17 103 -17q59 0 104 17q44 18 74 53zM202 112q-18 25 -27 63t-9 88t9 88t27 64q17 25 44 38t62 13q36 0 62 -13q27 -13 45 -38q17 -26 26 -64q10 -38 10 -88t-10 -88
q-9 -38 -26 -63q-18 -26 -45 -40q-26 -13 -62 -13q-35 0 -62 13q-27 14 -44 40z" />
    <glyph glyph-name="otilde" unicode="&#xf5;" 
d="M206 604q1 19 3 33q1 14 6 22q5 9 12 13q7 5 17 5q4 0 7 -1t7 -3l4 -2q2 -2 4 -3q3 -2 5 -4q3 -2 7 -6q14 -13 18 -16q3 -3 10 -9q9 -8 18 -13t17 -9q8 -3 18 -5q9 -2 18 -2q22 0 40 9q17 8 30 26q14 18 20 42q6 25 6 56h-62q0 -18 -3 -32q-2 -14 -7 -23q-4 -8 -12 -13
q-7 -4 -16 -4h-7q-4 1 -8 4q-3 2 -9 5q-5 3 -10 8q-15 13 -18 17q-4 3 -11 10q-9 7 -17 12q-9 5 -17 9q-8 3 -18 5q-9 2 -18 2q-23 0 -40 -8q-17 -9 -30 -27q-13 -17 -20 -42q-7 -24 -7 -56h63zM486 57q31 35 46 86q16 52 16 120q0 67 -16 118q-15 51 -46 87q-30 35 -75 53
q-44 18 -103 18q-58 0 -103 -18q-44 -18 -75 -53q-31 -36 -46 -87t-15 -118q0 -33 3 -62q4 -29 12 -56q8 -26 19 -47q11 -22 27 -41q31 -35 75 -53q45 -17 103 -17q59 0 104 17q44 18 74 53zM202 112q-18 25 -27 63t-9 88t9 88t27 64q17 25 44 38t62 13q36 0 62 -13
q27 -13 45 -38q17 -26 26 -64q10 -38 10 -88t-10 -88q-9 -38 -26 -63q-18 -26 -45 -40q-26 -13 -62 -13q-35 0 -62 13q-27 14 -44 40z" />
    <glyph glyph-name="odieresis" unicode="&#xf6;" 
d="M246 635q7 0 11 3t4 10v68q0 7 -4 10t-11 3h-72q-8 0 -11 -3t-3 -10v-68q0 -7 3 -10t11 -3h72zM441 635q8 0 12 3t4 10v68q0 7 -4 10t-12 3h-70q-8 0 -12 -3t-4 -10v-68q0 -7 4 -10t12 -3h70zM486 57q31 35 46 86q16 52 16 120q0 67 -16 118q-15 51 -46 87q-30 35 -75 53
q-44 18 -103 18q-58 0 -103 -18q-44 -18 -75 -53q-31 -36 -46 -87t-15 -118q0 -33 3 -62q4 -29 12 -56q8 -26 19 -47q11 -22 27 -41q31 -35 75 -53q45 -17 103 -17q59 0 104 17q44 18 74 53zM202 112q-18 25 -27 63t-9 88t9 88t27 64q17 25 44 38t62 13q36 0 62 -13
q27 -13 45 -38q17 -26 26 -64q10 -38 10 -88t-10 -88q-9 -38 -26 -63q-18 -26 -45 -40q-26 -13 -62 -13q-35 0 -62 13q-27 14 -44 40z" />
    <glyph glyph-name="divide" unicode="&#xf7;" 
d="M354 418q8 0 12 4q4 3 4 10v87q0 7 -4 11t-12 4h-92q-8 0 -11 -4q-4 -4 -4 -11v-87q0 -7 4 -10q3 -4 11 -4h92zM44 262h528v80h-528v-80zM354 71q8 0 12 3q4 4 4 11v87q0 7 -4 10t-12 3h-92q-8 0 -11 -3q-4 -3 -4 -10v-87q0 -7 4 -11q3 -3 11 -3h92z" />
    <glyph glyph-name="oslash" unicode="&#xf8;" 
d="M70 -45q15 16 37 41q23 24 43 46q13 -14 30 -24q17 -11 37 -18q9 -3 20 -6q10 -3 21 -4q11 -2 23 -3h26q59 0 104 17q45 18 75 53q31 35 46 86q16 52 16 120q0 29 -3 54q-3 26 -8 49q-6 22 -14 41q-7 18 -18 34q15 17 41 46q25 30 41 47q-9 6 -23 17q-15 11 -23 18
q-14 -15 -35 -38t-39 -44q-8 7 -16 13q-8 5 -17 10t-18 9t-19 7q-9 3 -20 6q-10 2 -22 4q-11 1 -23 2q-13 1 -25 1q-58 0 -102 -18t-75 -53q-31 -36 -46 -87t-15 -118q0 -27 2 -52t8 -47q2 -11 5 -21q3 -11 6 -20t8 -19q5 -9 11 -19q-17 -18 -43 -47q-26 -30 -42 -47
q8 -7 23 -18q14 -11 23 -18zM178 160q-4 16 -6 31q-3 15 -4 29q-2 13 -3 26t-1 26q0 25 3 45q2 21 7 38q5 18 12 33t16 28q18 25 45 38q27 12 61 12q16 0 31 -3t28 -8q13 -6 23 -14t19 -19q-29 -33 -51 -58t-39 -44q-16 -18 -28 -32q-12 -13 -22 -25q-24 -27 -42 -48
q-19 -21 -49 -55zM276 62q-6 2 -13 4q-6 2 -12 5q-6 2 -12 5q-5 3 -11 7q-5 4 -10 9q-6 5 -11 11q29 33 51 59q22 25 39 44q16 17 28 31t22 26q24 26 42 48q19 21 49 56q3 -9 4 -16q2 -7 2 -14q1 -7 2 -13t1 -11q2 -13 3 -26t1 -26q0 -49 -10 -87q-9 -37 -26 -62
q-18 -26 -45 -40q-27 -13 -63 -13q-8 0 -16 1t-15 2z" />
    <glyph glyph-name="ugrave" unicode="&#xf9;" 
d="M302 596h77q-17 21 -43 54t-51 64q-13 17 -25 32q-12 16 -21 27h-100q11 -11 25 -27q14 -15 30 -32q28 -31 58 -64t50 -54zM367 10q20 12 37 29t29 40q2 -15 5 -40q3 -24 4 -39h83v525h-92v-297q0 -40 -9 -71t-26 -53q-17 -21 -42 -32t-57 -11q-15 0 -28 3q-12 2 -22 7
q-10 4 -18 10q-9 7 -15 14q-14 16 -20 42q-7 27 -7 63v325h-92v-325q0 -54 11 -94t31 -66q21 -27 53 -40t75 -13q29 0 53 6q25 6 47 17z" />
    <glyph glyph-name="uacute" unicode="&#xfa;" 
d="M238 596h76q11 12 25 27t30 32q28 31 58 64t50 54h-99q-17 -21 -43 -54t-51 -64q-13 -17 -25 -32t-21 -27zM367 10q20 12 37 29t29 40q2 -15 5 -40q3 -24 4 -39h83v525h-92v-297q0 -40 -9 -71t-26 -53q-17 -21 -42 -32t-57 -11q-15 0 -28 3q-12 2 -22 7q-10 4 -18 10
q-9 7 -15 14q-14 16 -20 42q-7 27 -7 63v325h-92v-325q0 -54 11 -94t31 -66q21 -27 53 -40t75 -13q29 0 53 6q25 6 47 17z" />
    <glyph glyph-name="ucircumflex" unicode="&#xfb;" 
d="M148 596h70q23 29 90 115q23 -29 90 -115h70q-23 33 -61 89q-39 55 -62 88h-74q-23 -33 -61 -88q-38 -56 -62 -89zM367 10q20 12 37 29t29 40q2 -15 5 -40q3 -24 4 -39h83v525h-92v-297q0 -40 -9 -71t-26 -53q-17 -21 -42 -32t-57 -11q-15 0 -28 3q-12 2 -22 7
q-10 4 -18 10q-9 7 -15 14q-14 16 -20 42q-7 27 -7 63v325h-92v-325q0 -54 11 -94t31 -66q21 -27 53 -40t75 -13q29 0 53 6q25 6 47 17z" />
    <glyph glyph-name="udieresis" unicode="&#xfc;" 
d="M246 635q7 0 11 3t4 10v68q0 7 -4 10t-11 3h-72q-8 0 -11 -3t-3 -10v-68q0 -7 3 -10t11 -3h72zM441 635q8 0 12 3t4 10v68q0 7 -4 10t-12 3h-70q-8 0 -12 -3t-4 -10v-68q0 -7 4 -10t12 -3h70zM367 10q20 12 37 29t29 40q2 -15 5 -40q3 -24 4 -39h83v525h-92v-297
q0 -40 -9 -71t-26 -53q-17 -21 -42 -32t-57 -11q-15 0 -28 3q-12 2 -22 7q-10 4 -18 10q-9 7 -15 14q-14 16 -20 42q-7 27 -7 63v325h-92v-325q0 -54 11 -94t31 -66q21 -27 53 -40t75 -13q29 0 53 6q25 6 47 17z" />
    <glyph glyph-name="yacute" unicode="&#xfd;" 
d="M238 597h76q11 12 25 27t30 32q28 31 58 63q30 33 50 54h-99q-17 -21 -43 -54q-26 -32 -51 -63q-13 -17 -25 -32t-21 -27zM92 -201h74q10 0 20 2q11 1 22 3q11 3 20 6q10 3 19 8l14 8q7 5 13 11q7 6 14 15t15 22q5 9 12 22q6 13 15 29q8 16 18 41q10 26 23 59q2 6 4 13
q3 6 5 13q3 7 7 17q4 9 9 22q6 13 14 33t19 46q10 23 22 54q13 31 27 65q26 63 53 129q28 66 46 109h-98q-11 -27 -25 -62t-29 -75q-29 -73 -59 -148q-31 -76 -51 -126q-11 27 -25 62q-14 36 -30 75q-29 73 -60 149l-50 125h-98q14 -34 32 -75q17 -41 36 -87q36 -84 74 -178
q39 -93 74 -178q-10 -25 -18 -44q-9 -20 -16 -33q-6 -13 -13 -22q-6 -9 -11 -14t-12 -9q-6 -5 -14 -8q-7 -3 -17 -4q-9 -2 -21 -2h-54v-73z" />
    <glyph glyph-name="thorn" unicode="&#xfe;" 
d="M95 -201h92v268q11 -20 26 -34q16 -15 35 -26q9 -4 19 -8t21 -7q10 -3 22 -4t27 -1q51 0 90 18t69 54q29 36 43 88q15 51 15 115q0 65 -14 115q-14 51 -43 88q-30 37 -69 55q-39 19 -90 19t-89 -20t-62 -60v277h-92v-937zM222 112q-17 25 -26 63t-9 88t9 88t26 64
q17 25 42 38q26 13 60 13q66 0 100 -51q34 -50 34 -152q0 -101 -34 -152q-34 -52 -100 -52q-34 0 -60 13q-25 14 -42 40z" />
    <glyph glyph-name="ydieresis" unicode="&#xff;" 
d="M246 621q7 0 11 3q4 4 4 11v66q0 7 -4 11t-11 4h-72q-8 0 -11 -4t-3 -11v-66q0 -7 3 -11q3 -3 11 -3h72zM441 621q8 0 12 3q4 4 4 11v66q0 7 -4 11t-12 4h-70q-8 0 -12 -4t-4 -11v-66q0 -7 4 -11q4 -3 12 -3h70zM92 -201h74q23 0 43 5q21 5 38 14q10 5 18 11t15 13
q6 7 13 15q6 8 11 17q4 8 12 25q4 7 10 19q6 11 12 26q6 14 14 35q9 20 19 46l7 21q4 9 6 14q2 7 4 11t3 7t3 7q2 3 3 7q2 4 4 11q3 6 7 15q3 8 9 21q5 12 12 30q10 23 22 54q13 31 27 65q26 63 53 129q28 66 46 109h-98q-11 -27 -25 -62t-29 -75q-29 -73 -59 -148
q-31 -76 -51 -126q-11 27 -25 62q-14 36 -30 75q-29 73 -60 149l-50 125h-98q14 -34 32 -75q17 -41 36 -87q36 -84 74 -178q39 -93 74 -178q-10 -25 -18 -44q-9 -20 -16 -33q-6 -13 -13 -22q-6 -9 -11 -14t-12 -9q-6 -5 -14 -8q-7 -3 -17 -4q-9 -2 -21 -2h-54v-73z" />
    <glyph glyph-name="uni0100" unicode="&#x100;" 
d="M159 776h299v70h-299v-70zM18 0h105q10 35 27 92t27 91h261q10 -34 28 -91t28 -92h104q-15 46 -35 106q-19 60 -41 127q-41 125 -82 254q-42 129 -70 214h-123q-15 -46 -35 -106t-41 -127q-41 -124 -83 -254q-42 -129 -70 -214zM202 259q7 24 16 55q9 30 19 65
q19 63 39 129q19 67 32 110q7 -23 16 -54t20 -65q19 -64 38 -130q20 -66 33 -110h-213z" />
    <glyph glyph-name="uni0101" unicode="&#x101;" 
d="M160 634h299v69h-299v-69zM365 9q10 6 22 13q11 7 23 16q11 9 20 20q10 10 16 22q1 -4 2 -9q1 -4 2 -10q0 -5 2 -10q1 -5 3 -10q3 -13 7 -24q3 -10 6 -17h92q-1 2 -2 5q-1 4 -3 10l-4 14q-3 7 -4 14q-2 5 -3 11t-2 15q-2 8 -3 18q-2 10 -3 19q-2 10 -3 19t-1 19v23
q0 12 -1 26v107q0 35 -2 61q-2 27 -6 43q-1 7 -4 15q-3 7 -6 15t-8 15q-4 7 -9 14q-7 9 -16 17q-8 9 -19 16t-22 13t-22 10q-26 10 -55 15q-28 5 -63 5q-24 0 -47 -2t-45 -7q-13 -2 -26 -5q-12 -4 -25 -8t-25 -7t-22 -7v-87q22 12 45 21q24 9 49 16q24 6 47 9q24 4 48 4
q37 0 64 -8q26 -7 42 -21q17 -14 26 -37q8 -22 8 -54v-13h-123q-60 0 -107 -12q-46 -11 -77 -34t-47 -56q-16 -34 -16 -77q0 -21 3 -39q4 -17 11 -32t16 -28q8 -13 21 -23q25 -23 59 -34t78 -11q31 0 58 5q28 6 51 17zM225 66q-10 3 -19 8t-16 11q-15 13 -23 31q-7 19 -7 43
q0 27 10 47t31 33q20 13 51 19q30 6 70 6h116v-18q0 -43 -11 -78q-10 -34 -33 -59q-21 -25 -51 -38t-68 -13q-14 0 -27 2q-12 2 -23 6z" />
    <glyph glyph-name="uni0102" unicode="&#x102;" 
d="M465 860h-59q-8 -26 -32 -39t-65 -13q-43 0 -67 13q-25 13 -31 39h-59q5 -57 44 -85q40 -29 112 -29q73 0 112 29q40 28 45 85zM18 0h105q10 35 27 92t27 91h261q10 -34 28 -91t28 -92h104q-15 46 -35 106q-19 60 -41 127q-41 125 -82 254q-42 129 -70 214h-123
q-15 -46 -35 -106t-41 -127q-41 -124 -83 -254q-42 -129 -70 -214zM202 259q7 24 16 55q9 30 19 65q19 63 39 129q19 67 32 110q7 -23 16 -54t20 -65q19 -64 38 -130q20 -66 33 -110h-213z" />
    <glyph glyph-name="uni0103" unicode="&#x103;" 
d="M467 744h-60q-7 -35 -31 -53q-25 -17 -67 -17q-23 0 -40 4q-17 5 -28 14q-12 9 -18 22q-7 14 -10 30h-60q5 -67 45 -101q39 -34 111 -34q73 0 113 34t45 101zM365 9q10 6 22 13q11 7 23 16q11 9 20 20q10 10 16 22q1 -4 2 -9q1 -4 2 -10q0 -5 2 -10q1 -5 3 -10
q3 -13 7 -24q3 -10 6 -17h92q-1 2 -2 5q-1 4 -3 10l-4 14q-3 7 -4 14q-2 5 -3 11t-2 15q-2 8 -3 18q-2 10 -3 19q-2 10 -3 19t-1 19v23q0 12 -1 26v107q0 35 -2 61q-2 27 -6 43q-1 7 -4 15q-3 7 -6 15t-8 15q-4 7 -9 14q-7 9 -16 17q-8 9 -19 16t-22 13t-22 10
q-26 10 -55 15q-28 5 -63 5q-24 0 -47 -2t-45 -7q-13 -2 -26 -5q-12 -4 -25 -8t-25 -7t-22 -7v-87q22 12 45 21q24 9 49 16q24 6 47 9q24 4 48 4q37 0 64 -8q26 -7 42 -21q17 -14 26 -37q8 -22 8 -54v-13h-123q-60 0 -107 -12q-46 -11 -77 -34t-47 -56q-16 -34 -16 -77
q0 -21 3 -39q4 -17 11 -32t16 -28q8 -13 21 -23q25 -23 59 -34t78 -11q31 0 58 5q28 6 51 17zM225 66q-10 3 -19 8t-16 11q-15 13 -23 31q-7 19 -7 43q0 27 10 47t31 33q20 13 51 19q30 6 70 6h116v-18q0 -43 -11 -78q-10 -34 -33 -59q-21 -25 -51 -38t-68 -13q-14 0 -27 2
q-12 2 -23 6z" />
    <glyph glyph-name="uni0104" unicode="&#x104;" 
d="M507 -86q0 8 2 17q3 9 8 19t14 22q8 13 20 28h47q-15 46 -35 106q-19 60 -41 127q-41 125 -82 254q-42 129 -70 214h-123q-15 -46 -35 -106t-41 -127q-41 -124 -83 -254q-42 -129 -70 -214h105q10 35 27 92t27 91h261q10 -34 28 -91t28 -92h-2q-16 -16 -26 -31
q-10 -14 -16 -26q-7 -13 -10 -24q-3 -12 -3 -23q0 -41 29 -61t87 -20h15l14 2q6 0 15 2t19 5v62q-7 -4 -14 -6t-13 -4q-6 -1 -13 -3q-6 -1 -14 -1q-27 0 -41 11q-14 10 -14 31zM202 259q7 24 16 55q9 30 19 65q19 63 39 129q19 67 32 110q7 -23 16 -54t20 -65
q19 -64 38 -130q20 -66 33 -110h-213z" />
    <glyph glyph-name="uni0105" unicode="&#x105;" 
d="M484 -85q0 8 3 16q2 9 7 19q4 10 13 22q9 13 20 28h33q-1 2 -2 5q-1 4 -3 10l-4 14q-3 7 -4 14q-2 5 -3 11t-2 15q-2 8 -3 18q-2 10 -3 19q-2 10 -3 19t-1 19v23q0 12 -1 26v107q0 35 -2 61q-2 27 -6 43q-1 7 -4 15q-3 7 -6 15t-8 15q-4 7 -9 14q-7 9 -16 17q-8 9 -19 16
t-22 13t-22 10q-26 10 -55 15q-28 5 -63 5q-24 0 -47 -2t-45 -7q-13 -2 -26 -5q-12 -4 -25 -8t-25 -7t-22 -7v-87q22 12 45 21q24 9 49 16q24 6 47 9q24 4 48 4q37 0 64 -8q26 -7 42 -21q17 -14 26 -37q8 -22 8 -54v-13h-123q-60 0 -107 -12q-46 -11 -77 -34t-47 -56
q-16 -34 -16 -77q0 -21 3 -39q4 -17 11 -32t16 -28q8 -13 21 -23q25 -23 59 -34t78 -11q31 0 58 5q28 6 51 17q10 6 22 13q11 7 23 16q11 9 20 20q10 10 16 22q1 -4 2 -9q1 -4 2 -10q0 -5 2 -10q1 -5 3 -10q3 -14 7 -24q3 -10 6 -17q-15 -16 -26 -30t-16 -25q-5 -12 -8 -24
t-3 -23q0 -21 7 -36q8 -16 22 -26q15 -10 36 -15q22 -5 49 -5h19q9 1 16 2q8 0 17 3q9 2 20 4v62q-15 -7 -31 -10t-31 -3q-28 0 -41 10q-14 10 -14 31zM438 246q0 -43 -11 -78q-10 -34 -33 -59q-21 -25 -51 -38t-68 -13q-14 0 -27 2q-12 2 -23 6q-10 3 -19 8t-16 11
q-15 13 -23 31q-7 19 -7 43q0 27 10 47t31 33q20 13 51 19q30 6 70 6h116v-18z" />
    <glyph glyph-name="Cacute" unicode="&#x106;" 
d="M283 746h76q22 24 58 62q36 39 57 62h-93q-19 -23 -49 -62q-31 -38 -49 -62zM458 -4q20 5 39 12q20 7 40 17v97q-19 -15 -39 -25t-40 -18q-22 -8 -44 -12t-43 -4q-26 0 -47 5q-22 5 -40 14q-19 9 -34 23q-14 13 -26 30q-24 36 -37 90q-12 53 -12 125t12 126q13 54 37 90
q25 36 62 54q36 17 85 17q21 0 43 -3q21 -4 43 -11q21 -8 41 -19t39 -25v97q-20 10 -40 17q-19 7 -39 12q-20 4 -42 7t-45 3q-71 0 -126 -25q-56 -24 -95 -72q-20 -24 -36 -53q-15 -28 -25 -62t-15 -73q-4 -39 -4 -81q0 -86 19 -152q20 -67 59 -115q40 -48 96 -72
q55 -23 127 -23q23 0 45 2t42 7z" />
    <glyph glyph-name="cacute" unicode="&#x107;" 
d="M267 609h77q20 22 50 54q30 33 59 65q15 16 29 32q14 15 25 26h-99q-10 -11 -22 -26q-12 -16 -25 -32q-25 -32 -51 -65q-26 -32 -43 -54zM400 -11q11 1 21 3t18 4q10 2 19 6q10 3 20 7t19 9q10 4 18 9v90q-8 -7 -15 -13q-8 -6 -17 -12q-8 -5 -18 -10q-9 -4 -21 -8
q-8 -3 -17 -6q-10 -3 -20 -5q-11 -1 -23 -2q-11 -2 -24 -2q-43 0 -77 14q-34 13 -58 40q-12 13 -21 30t-15 36q-5 19 -7 41q-3 21 -3 43q0 49 12 86q11 37 34 64q23 26 57 39q34 14 77 14q23 0 43 -3q21 -3 40 -10q18 -7 36 -18t37 -27v91q-21 10 -40 18t-38 12q-17 5 -38 7
q-20 3 -43 3q-63 0 -113 -19q-50 -18 -87 -54q-18 -18 -31 -39q-14 -21 -24 -46t-14 -55q-5 -29 -5 -63q0 -64 18 -115q19 -51 56 -88q37 -36 87 -55q50 -18 113 -18h23q11 0 21 2z" />
    <glyph glyph-name="uni0108" unicode="&#x108;" 
d="M185 745h71q15 16 41 42q26 27 41 42q15 -15 41 -42q27 -26 42 -42h69q-19 24 -52 63t-53 62h-94q-20 -23 -53 -62t-53 -63zM371 -13q23 0 44 2q22 2 42 7t40 12t40 17v97q-38 -29 -80 -44q-41 -15 -86 -15q-99 0 -147 72q-49 72 -49 215q0 144 49 215q49 72 147 72
q45 0 86 -15q42 -14 80 -43v97q-39 19 -80 29q-42 10 -86 10q-71 0 -126 -25q-56 -24 -95 -72q-40 -47 -60 -115q-20 -67 -20 -154q0 -85 19 -152q20 -67 59 -115q40 -48 96 -72q55 -23 127 -23z" />
    <glyph glyph-name="uni0109" unicode="&#x109;" 
d="M166 609h70q16 22 45 58q28 36 45 58q17 -22 45 -58t45 -58h69q-23 33 -61 89q-38 55 -62 88h-73q-23 -33 -62 -88q-38 -56 -61 -89zM356 -13q44 0 84 10t75 30v90q-8 -8 -17 -14q-8 -6 -17 -12q-8 -5 -17 -9l-20 -8q-18 -7 -39 -11t-45 -4q-43 0 -77 14q-33 14 -57 40
t-35 63q-12 38 -12 87t12 86q11 38 34 64t57 39q34 14 77 14q23 0 44 -3q20 -3 38 -10q19 -7 37 -19q19 -11 37 -26v91q-21 10 -40 18t-38 12q-18 5 -38 7q-20 3 -43 3q-63 0 -113 -18t-87 -55t-56 -88q-18 -50 -18 -115q0 -64 18 -116q18 -51 55 -88q36 -36 86 -54
q51 -18 115 -18z" />
    <glyph glyph-name="uni010a" unicode="&#x10a;" 
d="M382 774q8 0 11 4t3 10v68q0 7 -3 11q-3 3 -11 3h-73q-7 0 -11 -3q-4 -4 -4 -11v-68q0 -6 4 -10t11 -4h73zM537 25v97q-38 -29 -80 -44q-41 -15 -87 -15q-98 0 -146 72q-49 72 -49 215q0 144 49 215q48 72 146 72q23 0 45 -4q23 -4 44 -11q20 -8 40 -19q19 -11 38 -24v97
q-38 19 -79 29t-85 10q-72 0 -128 -24t-95 -73q-40 -48 -60 -115q-20 -68 -20 -154t19 -153q20 -66 59 -114q40 -48 96 -72q56 -23 128 -23q44 0 86 9q41 9 79 29z" />
    <glyph glyph-name="uni010b" unicode="&#x10b;" 
d="M366 634q7 0 11 3t4 10v69q0 7 -4 10t-11 3h-72q-8 0 -12 -3q-3 -3 -3 -10v-69q0 -7 3 -10q4 -3 12 -3h72zM515 27v90q-31 -29 -71 -43q-39 -15 -86 -15q-43 0 -76 14q-34 14 -57 40t-34 63q-12 38 -12 87t12 87q11 38 34 64t56 39q34 13 77 13q23 0 44 -3t39 -10
q19 -7 37 -19q19 -11 37 -26v91q-19 10 -39 18t-39 12q-19 5 -39 7q-20 3 -40 3q-65 0 -115 -18t-87 -55t-56 -88q-18 -50 -18 -115q0 -64 18 -116q19 -51 56 -88q37 -36 87 -54t115 -18q41 0 80 10t77 30z" />
    <glyph glyph-name="Ccaron" unicode="&#x10c;" 
d="M306 745h94q20 24 53 63t53 62h-70q-15 -15 -41 -42l-42 -42q-15 16 -41 42q-26 27 -42 42h-69q20 -23 52 -62q33 -39 53 -63zM458 -4q20 5 39 12q20 7 40 17v97q-19 -15 -39 -25t-40 -18q-22 -8 -44 -12t-43 -4q-26 0 -47 5q-22 5 -40 14q-19 9 -34 23q-14 13 -26 30
q-24 36 -37 90q-12 53 -12 125t12 126q13 54 37 90q25 36 62 54q36 17 85 17q21 0 43 -3q21 -4 43 -11q21 -8 41 -19t39 -25v97q-20 10 -40 17q-19 7 -39 12q-20 4 -42 7t-45 3q-71 0 -126 -25q-56 -24 -95 -72q-20 -24 -36 -53q-15 -28 -25 -62t-15 -73q-4 -39 -4 -81
q0 -86 19 -152q20 -67 59 -115q40 -48 96 -72q55 -23 127 -23q23 0 45 2t42 7z" />
    <glyph glyph-name="ccaron" unicode="&#x10d;" 
d="M301 609h74q23 33 61 89q39 55 62 88h-70q-17 -21 -45 -57q-28 -37 -45 -58q-17 21 -45 58q-28 36 -45 57h-70q23 -33 62 -88q38 -56 61 -89zM400 -11q11 1 21 3t18 4q10 2 19 6q10 3 20 7t19 9q10 4 18 9v90q-8 -7 -15 -13q-8 -6 -17 -12q-8 -5 -18 -10q-9 -4 -21 -8
q-8 -3 -17 -6q-10 -3 -20 -5q-11 -1 -23 -2q-11 -2 -24 -2q-43 0 -77 14q-34 13 -58 40q-12 13 -21 30t-15 36q-5 19 -7 41q-3 21 -3 43q0 49 12 86q11 37 34 64q23 26 57 39q34 14 77 14q23 0 43 -3q21 -3 40 -10q18 -7 36 -18t37 -27v91q-21 10 -40 18t-38 12q-17 5 -38 7
q-20 3 -43 3q-63 0 -113 -19q-50 -18 -87 -54q-18 -18 -31 -39q-14 -21 -24 -46t-14 -55q-5 -29 -5 -63q0 -64 18 -115q19 -51 56 -88q37 -36 87 -55q50 -18 113 -18h23q11 0 21 2z" />
    <glyph glyph-name="uni010e" unicode="&#x10e;" 
d="M222 745h94q20 24 53 63t53 62h-70q-15 -15 -41 -42l-42 -42q-15 16 -41 42q-26 27 -42 42h-69q20 -23 52 -62q33 -39 53 -63zM69 0h151q85 0 148 22q63 21 104 64t61 109t20 156t-20 156t-61 109t-104 64t-148 21h-151v-701zM170 78v546h48q42 0 76 -7q34 -6 59 -19
q26 -12 43 -33q18 -21 29 -51t16 -71t5 -93q0 -51 -5 -91q-5 -41 -16 -71t-29 -51q-17 -21 -43 -34q-25 -13 -59 -19t-76 -6h-48z" />
    <glyph glyph-name="uni010f" unicode="&#x10f;" 
d="M522 555h77q11 33 29 89q18 55 28 88h-99q-6 -33 -17 -88q-12 -56 -18 -89zM414 67q1 -13 4 -34t5 -33h83v731h-92v-272q-23 40 -61 60t-90 20q-50 0 -89 -18t-69 -55q-29 -37 -44 -88q-15 -50 -15 -115q0 -64 15 -115q14 -51 43 -88q30 -36 69 -55q40 -18 90 -18
q52 0 90 20t61 60zM143 263q0 102 34 152q33 51 101 51t102 -51q34 -50 34 -152q0 -101 -34 -152q-34 -52 -102 -52t-101 52q-34 51 -34 152z" />
    <glyph glyph-name="uni0110" unicode="&#x110;" 
d="M67 0h151q85 0 148 22q63 21 104 64t61 109q20 65 20 155t-20 157q-20 66 -61 109t-104 64t-148 21h-151v-298h-63v-70h63v-333zM170 78v255h132v70h-132v221h48q42 0 76 -7q34 -6 59 -19q26 -12 43 -33q18 -21 29 -51t16 -71t5 -93q0 -51 -5 -91q-5 -41 -16 -71t-29 -51
q-17 -21 -43 -34q-25 -13 -59 -19t-76 -6h-48z" />
    <glyph glyph-name="dcroat" unicode="&#x111;" 
d="M368 7q10 6 19 12q10 6 16 14q7 7 14 16q7 8 12 18q2 -13 5 -34t4 -33h83v604h95v58h-95v69h-92v-69h-153v-58h153v-145q-11 19 -26 35q-15 15 -34 25q-20 10 -42 15t-47 5q-50 0 -91 -18q-40 -18 -69 -55t-44 -88q-15 -50 -15 -114t15 -116q15 -51 44 -88q14 -17 30 -31
q16 -13 36 -23t44 -15q23 -4 50 -4q25 0 47 5q21 5 41 15zM236 72q-14 6 -24 16q-11 10 -19 23q-17 26 -26 64q-8 38 -8 88t8 88q9 38 26 64q16 25 41 38t59 13q18 0 33 -3t27 -10q13 -7 23 -17q11 -9 18 -21q17 -26 26 -64t9 -88t-9 -88t-26 -63q-17 -26 -42 -40
q-25 -13 -59 -13q-16 0 -30 3q-14 4 -27 10z" />
    <glyph glyph-name="uni0112" unicode="&#x112;" 
d="M168 776h299v70h-299v-70zM98 0h453v80h-351v254h326v80h-326v208h342v79h-444v-701z" />
    <glyph glyph-name="uni0113" unicode="&#x113;" 
d="M176 634h299v69h-299v-69zM434 -3q24 5 49 12q25 8 52 18v86q-54 -27 -103 -40q-48 -14 -92 -14q-43 0 -77 12q-33 12 -57 35q-24 24 -36 57q-12 34 -12 77v3h398v42q0 59 -15 106q-16 46 -46 80q-31 34 -74 51t-98 17q-40 0 -74 -9q-34 -8 -64 -25q-29 -17 -52 -41
t-39 -55q-16 -32 -24 -69t-8 -79q0 -64 18 -114t55 -87q37 -36 88 -55q51 -18 116 -18q24 0 48 2q23 3 47 8zM162 309q4 38 17 67q12 29 34 49q21 20 49 30q28 11 62 11q33 0 59 -10t44 -31t27 -49q10 -29 11 -66h-67h-51h-36h-30q-30 0 -55 -1h-64z" />
    <glyph glyph-name="uni0114" unicode="&#x114;" 
d="M485 874h-59q-8 -26 -32 -39q-25 -13 -65 -13q-43 0 -67 13t-31 39h-60q5 -56 45 -85q39 -28 112 -28t112 28q40 29 45 85zM98 0h453v80h-351v254h326v80h-326v208h342v79h-444v-701z" />
    <glyph glyph-name="uni0115" unicode="&#x115;" 
d="M434 644q20 17 31 42t14 58h-59q-4 -17 -12 -30t-20 -22q-11 -8 -28 -13q-17 -4 -38 -4q-23 0 -39 4q-17 5 -28 13q-12 9 -19 22q-8 13 -11 30h-59q5 -67 44 -100q39 -34 112 -34q36 0 64 9q28 8 48 25zM386 -11q12 1 24 3l24 4q25 5 50 13q24 8 51 18v86q-14 -7 -27 -13
t-26 -11t-25 -9q-13 -4 -25 -7q-23 -7 -46 -10q-23 -4 -46 -4t-42 3q-20 4 -36 10t-30 14q-15 9 -26 20q-24 24 -36 57q-12 34 -12 77v3h398v42q0 60 -15 106q-15 47 -45 81q-31 34 -74 50q-43 17 -97 17q-29 0 -55 -5t-51 -14q-24 -9 -46 -23q-21 -14 -40 -33
q-17 -18 -30 -39t-22 -46t-14 -55q-5 -29 -5 -62q0 -64 18 -115q18 -50 55 -87q37 -36 88 -55q51 -18 116 -18h23t24 2zM162 309q4 37 17 66q12 28 34 49q21 21 49 31q27 11 61 11q33 0 60 -10q26 -10 44 -30q8 -9 15 -20q6 -12 12 -26q5 -15 8 -32q2 -18 3 -38h-67h-51h-36
h-30q-30 0 -55 -1h-64z" />
    <glyph glyph-name="uni0116" unicode="&#x116;" 
d="M353 774q8 0 11 4q4 4 4 10v68q0 7 -4 11q-3 3 -11 3h-72q-8 0 -12 -3q-4 -4 -4 -11v-68q0 -6 4 -10t12 -4h72zM98 0h453v80h-351v254h326v80h-326v208h342v79h-444v-701z" />
    <glyph glyph-name="uni0117" unicode="&#x117;" 
d="M351 634q8 0 12 3t4 10v69q0 7 -4 10t-12 3h-72q-8 0 -11 -3q-4 -3 -4 -10v-69q0 -7 4 -10q3 -3 11 -3h72zM434 -3q24 5 49 12q25 8 52 18v86q-54 -27 -103 -40q-48 -14 -92 -14q-43 0 -77 12q-33 12 -57 35q-24 24 -36 57q-12 34 -12 77v3h398v42q0 59 -15 106
q-16 46 -46 80q-31 34 -74 51t-98 17q-40 0 -74 -9q-34 -8 -64 -25q-29 -17 -52 -41t-39 -55q-16 -32 -24 -69t-8 -79q0 -64 18 -114t55 -87q37 -36 88 -55q51 -18 116 -18q24 0 48 2q23 3 47 8zM162 309q4 38 17 67q12 29 34 49q21 20 49 30q28 11 62 11q33 0 59 -10
t44 -31t27 -49q10 -29 11 -66h-67h-51h-36h-30q-30 0 -55 -1h-64z" />
    <glyph glyph-name="uni0118" unicode="&#x118;" 
d="M551 0v80h-351v254h326v80h-326v208h342v79h-444v-701h319q-16 -16 -26 -31q-11 -14 -17 -26q-6 -13 -9 -24t-3 -22q0 -21 8 -37t22 -26q15 -10 36 -15q22 -4 49 -4h18q9 1 17 2q8 0 17 3q9 2 20 4v62q-15 -7 -31 -10q-15 -4 -31 -4q-27 0 -41 11q-14 10 -14 31q0 8 3 17
q2 9 7 19q6 10 14 22q8 13 20 28h75z" />
    <glyph glyph-name="uni0119" unicode="&#x119;" 
d="M556 243v42q0 59 -15 106q-16 46 -46 80q-31 34 -74 51t-98 17q-40 0 -74 -9q-34 -8 -64 -25q-29 -17 -52 -41t-39 -55q-16 -32 -24 -69t-8 -79q0 -64 18 -114t55 -87q37 -36 88 -55q51 -18 116 -18h19q10 1 19 2q-12 -14 -21 -27q-8 -13 -13 -23q-5 -11 -7 -22
q-2 -10 -2 -20q0 -21 7 -37t21 -26q15 -10 37 -15q22 -4 50 -4h18q9 1 16 2q8 0 17 3q9 2 20 4v62q-15 -7 -31 -10q-16 -4 -31 -4q-28 0 -41 11q-14 10 -14 31q0 8 2 16q2 9 8 19q5 10 13 23q9 13 20 28q11 2 22 5q12 3 22 6q11 3 22 7t23 9v86q-54 -27 -103 -40
q-48 -14 -92 -14q-43 0 -77 12q-33 12 -57 35q-24 24 -36 57q-12 34 -12 77v3h398zM427 425q18 -21 27 -49q10 -29 11 -66h-67h-51h-36h-30q-30 0 -55 -1h-64q4 38 17 67q12 29 34 49q21 20 49 30q28 11 62 11q33 0 59 -10t44 -31z" />
    <glyph glyph-name="uni011a" unicode="&#x11a;" 
d="M279 745h95q20 24 52 63q33 39 53 62h-70q-16 -15 -42 -42q-26 -26 -41 -42q-16 16 -41 42q-26 27 -41 42h-71q20 -23 53 -62t53 -63zM98 0h453v80h-351v254h326v80h-326v208h342v79h-444v-701z" />
    <glyph glyph-name="uni011b" unicode="&#x11b;" 
d="M290 609h72q24 33 62 89q39 55 62 88h-69q-17 -21 -46 -57q-28 -37 -45 -58q-17 21 -45 58q-29 36 -45 57h-69q23 -33 61 -88q39 -56 62 -89zM434 -3q24 5 49 12q25 8 52 18v86q-54 -27 -103 -40q-48 -14 -92 -14q-43 0 -77 12q-33 12 -57 35q-24 24 -36 57
q-12 34 -12 77v3h398v42q0 59 -15 106q-16 46 -46 80q-31 34 -74 51t-98 17q-40 0 -74 -9q-34 -8 -64 -25q-29 -17 -52 -41t-39 -55q-16 -32 -24 -69t-8 -79q0 -64 18 -114t55 -87q37 -36 88 -55q51 -18 116 -18q24 0 48 2q23 3 47 8zM162 309q4 38 17 67q12 29 34 49
q21 20 49 30q28 11 62 11q33 0 59 -10t44 -31t27 -49q10 -29 11 -66h-67h-51h-36h-30q-30 0 -55 -1h-64z" />
    <glyph glyph-name="uni011c" unicode="&#x11c;" 
d="M185 745h71q15 16 41 42q26 27 41 42q15 -15 41 -42q27 -26 42 -42h69q-19 24 -52 63t-53 62h-94q-20 -23 -53 -62t-53 -63zM86 155q18 -41 44 -72q26 -32 59 -53q33 -22 74 -33q40 -10 87 -10q60 0 111 17q50 17 91 53v303h-205v-78h109v-189q-20 -15 -46 -22
q-26 -8 -59 -8q-31 0 -56 6q-25 5 -43 17q-19 12 -32 26q-14 15 -23 33q-10 19 -17 38q-6 19 -11 40q-6 26 -9 58q-3 31 -3 68q0 73 12 127t37 90t62 54q37 17 85 17q24 0 46 -4q23 -4 44 -12q23 -10 43 -24q21 -13 40 -30v98q-39 25 -83 37q-44 13 -92 13q-70 0 -125 -25
q-55 -24 -95 -72t-60 -115q-20 -68 -20 -154q0 -57 9 -105q8 -49 26 -89z" />
    <glyph glyph-name="uni011d" unicode="&#x11d;" 
d="M164 609h69q17 22 45 58t45 58q16 -22 45 -58t46 -58h69q-23 33 -61 89q-39 55 -62 88h-73q-23 -33 -62 -88q-38 -56 -61 -89zM300 -207q58 0 101 16q44 15 74 46q30 30 45 75t15 104v490h-83q-2 -13 -4 -32q-2 -18 -5 -35q-23 41 -61 61q-38 21 -90 21q-49 0 -88 -19
q-40 -18 -70 -55q-29 -37 -44 -87q-14 -49 -14 -111q0 -40 7 -76q6 -35 19 -66t32 -55q19 -23 43 -40q25 -17 53 -26q29 -8 61 -8q54 0 93 22q38 22 59 66v-62q0 -42 -9 -72q-9 -31 -25 -49q-17 -20 -44 -29t-63 -9q-35 0 -76 10t-88 32v-86q43 -13 83 -20q41 -6 79 -6z
M410 119q-17 -26 -42 -38q-24 -12 -57 -12t-59 12q-25 13 -43 39t-27 63q-10 37 -10 84q0 49 9 86t27 63q18 25 43 38q25 12 59 12q66 0 100 -50q33 -50 33 -149q0 -48 -8 -85q-9 -38 -25 -63z" />
    <glyph glyph-name="Gbreve" unicode="&#x11e;" 
d="M485 860h-59q-8 -26 -32 -39q-25 -13 -65 -13q-43 0 -67 13t-31 39h-60q5 -57 45 -85q39 -29 112 -29t112 29q40 28 45 85zM461 5q25 9 48 22q22 13 43 30v303h-205v-78h109v-189q-20 -15 -46 -22q-27 -8 -59 -8q-24 0 -45 4t-40 13q-18 8 -34 22q-15 14 -27 32t-21 40
t-15 48t-9 58t-3 69q0 73 12 127t37 90q24 36 62 54q37 17 85 17q12 0 23 -1t22 -3q12 -2 23 -5q12 -3 22 -7t20 -10q10 -5 20 -12l22 -14q11 -8 21 -18v98q-38 25 -82 37q-44 13 -93 13q-36 0 -67 -7q-32 -7 -60 -19q-27 -12 -51 -30q-24 -17 -43 -41q-20 -24 -35 -53
q-14 -28 -24 -62t-15 -73t-5 -81q0 -85 20 -152q19 -67 58 -115q19 -24 43 -41t51 -30q28 -12 59 -18q32 -6 68 -6q30 0 58 4q27 5 53 14z" />
    <glyph glyph-name="gbreve" unicode="&#x11f;" 
d="M434 644q20 17 31 42t14 58h-59q-4 -17 -12 -30t-20 -22q-11 -8 -28 -13q-17 -4 -38 -4q-23 0 -39 4q-17 5 -28 13q-12 9 -19 22q-8 13 -11 30h-59q5 -67 44 -100q39 -34 112 -34q36 0 64 9q28 8 48 25zM475 -145q30 30 45 75t15 104v490h-83q-2 -13 -4 -32
q-2 -18 -5 -35q-12 21 -27 37q-16 15 -34 25q-19 10 -42 15q-22 5 -48 5q-49 0 -89 -19q-40 -18 -69 -55t-44 -87q-14 -49 -14 -111q0 -61 14 -111q15 -50 44 -86q29 -37 68 -56q40 -18 89 -18q27 0 50 5q23 6 42 16q19 11 34 28q16 17 26 39v-62q0 -22 -2 -40
q-2 -19 -7 -33q-4 -15 -11 -27q-6 -12 -14 -21q-17 -20 -44 -29t-63 -9q-18 0 -37 2q-18 3 -38 8q-9 2 -20 5q-10 3 -22 7q-11 4 -23 9q-11 5 -24 11v-86q22 -7 42 -12q21 -5 41 -8q11 -1 21 -2q9 -1 19 -2t20 -1q9 -1 19 -1q58 0 102 16q44 15 73 46zM209 120
q-18 25 -27 62q-10 37 -10 85q0 49 9 86t27 63q18 25 43 38q25 12 59 12q16 0 30 -3t27 -9q12 -7 23 -16t20 -22q16 -25 25 -62q8 -38 8 -87q0 -48 -8 -85q-9 -37 -25 -62q-17 -26 -42 -38q-24 -13 -57 -13t-59 13q-25 12 -43 38z" />
    <glyph glyph-name="uni0120" unicode="&#x120;" 
d="M382 774q8 0 11 4t3 10v68q0 7 -3 11q-3 3 -11 3h-73q-7 0 -11 -3q-4 -4 -4 -11v-68q0 -6 4 -10t11 -4h73zM552 57v303h-205v-78h109v-189q-20 -15 -46 -22q-26 -8 -58 -8q-50 0 -87 18q-36 18 -60 52q-24 35 -36 88q-12 54 -12 126q0 73 11 128q12 54 37 90q24 36 61 54
t87 18q24 0 46 -4q23 -4 44 -12q22 -9 43 -22q20 -13 40 -32v98q-20 13 -40 21q-21 9 -43 15q-21 7 -44 10q-23 4 -48 4q-47 0 -87 -12q-40 -11 -74 -32q-33 -22 -59 -53q-26 -32 -44 -72q-18 -41 -27 -90t-9 -107q0 -86 20 -153q20 -66 59 -114t94 -72q56 -23 126 -23
q60 0 111 17q50 17 91 53z" />
    <glyph glyph-name="uni0121" unicode="&#x121;" 
d="M358 634q8 0 11 3q4 3 4 10v69q0 7 -4 10q-3 3 -11 3h-72q-8 0 -12 -3t-4 -10v-69q0 -7 4 -10t12 -3h72zM535 34v490h-83q-2 -13 -4 -32q-2 -18 -5 -35q-22 41 -60 61q-38 21 -90 21q-34 0 -63 -8q-28 -8 -53 -25q-24 -17 -43 -40q-20 -24 -33 -54q-13 -31 -19 -67
q-6 -35 -6 -77q0 -41 7 -77q6 -36 19 -67t32 -54t43 -40q25 -17 54 -26q29 -8 62 -8q54 0 91 22q38 22 59 66v-62t-8 -72q-9 -30 -25 -49q-17 -20 -44 -29t-63 -9q-18 0 -37 2t-39 7t-42 14q-21 8 -47 19v-86q43 -13 83 -20q41 -6 79 -6q118 0 176 60q59 60 59 181zM208 119
q-18 25 -27 63q-9 37 -9 86t9 86q9 36 27 62q18 25 43 38q25 12 58 12q67 0 101 -50q33 -50 33 -149q0 -49 -8 -86q-9 -37 -25 -62q-17 -26 -42 -38t-58 -12t-59 12q-25 12 -43 38z" />
    <glyph glyph-name="uni0122" unicode="&#x122;" 
d="M552 57v303h-205v-78h109v-189q-20 -15 -46 -22q-26 -8 -58 -8q-50 0 -87 18q-36 18 -60 52q-24 35 -36 88q-12 54 -12 126q0 73 11 128q12 54 37 90q24 36 61 54t87 18q24 0 46 -4q23 -4 44 -12q22 -9 43 -22q20 -13 40 -32v98q-20 13 -40 21q-21 9 -43 15q-21 7 -44 10
q-23 4 -48 4q-47 0 -87 -12q-40 -11 -74 -32q-33 -22 -59 -53q-26 -32 -44 -72q-18 -41 -27 -90t-9 -107q0 -86 20 -153q20 -66 59 -114t94 -72q56 -23 126 -23q60 0 111 17q50 17 91 53zM268 -269h73q18 30 47 81q29 50 46 80h-119q-8 -30 -23 -80q-15 -51 -24 -81z" />
    <glyph glyph-name="uni0123" unicode="&#x123;" 
d="M257 609h120q8 31 23 82q15 50 24 81h-74q-17 -31 -46 -81q-29 -51 -47 -82zM535 34v490h-83q-2 -13 -4 -32q-2 -18 -5 -35q-22 41 -60 61q-38 21 -90 21q-34 0 -63 -8q-28 -8 -53 -25q-24 -17 -43 -40q-20 -24 -33 -54q-13 -31 -19 -67q-6 -35 -6 -77q0 -41 7 -77
q6 -36 19 -67t32 -54t43 -40q25 -17 54 -26q29 -8 62 -8q54 0 91 22q38 22 59 66v-62t-8 -72q-9 -30 -25 -49q-17 -20 -44 -29t-63 -9q-18 0 -37 2t-39 7t-42 14q-21 8 -47 19v-86q43 -13 83 -20q41 -6 79 -6q118 0 176 60q59 60 59 181zM208 119q-18 25 -27 63q-9 37 -9 86
t9 86q9 36 27 62q18 25 43 38q25 12 58 12q67 0 101 -50q33 -50 33 -149q0 -49 -8 -86q-9 -37 -25 -62q-17 -26 -42 -38t-58 -12t-59 12q-25 12 -43 38z" />
    <glyph glyph-name="uni0124" unicode="&#x124;" 
d="M156 745h69l42 42q26 27 41 42q16 -15 42 -42q26 -26 41 -42h70q-20 24 -53 63t-53 62h-94q-20 -23 -53 -62q-32 -39 -52 -63zM69 0h101v334h276v-334h102v701h-102v-287h-276v287h-101v-701z" />
    <glyph glyph-name="uni0125" unicode="&#x125;" 
d="M220 745h70q15 16 41 42q26 27 42 42q15 -15 41 -42l42 -42h69q-20 24 -52 63q-33 39 -53 62h-94q-20 -23 -53 -62t-53 -63zM97 0h92v298q0 41 9 71t26 52q17 21 42 32q24 11 57 11q28 0 49 -9q21 -8 35 -25q13 -17 19 -42q7 -26 7 -61v-327h92v327q0 53 -10 93
q-11 40 -32 66q-21 27 -53 40t-75 13q-57 0 -99 -23q-41 -22 -67 -69v284h-92v-731z" />
    <glyph glyph-name="uni0126" unicode="&#x126;" 
d="M69 0h101v334h276v-334h102v519h67v77h-67v105h-102v-105h-276v105h-101v-105h-68v-77h68v-519zM170 414v105h276v-105h-276z" />
    <glyph glyph-name="uni0127" unicode="&#x127;" 
d="M97 0h92v298q0 41 9 71t26 52q17 21 42 32t58 11q28 0 49 -9q20 -8 34 -25q13 -17 19 -42q7 -26 7 -61v-327h92v327q0 106 -42 159t-128 53q-58 0 -100 -23q-41 -22 -66 -69v150h177v77h-177v57h-92v-57h-62v-77h62v-597z" />
    <glyph glyph-name="uni0128" unicode="&#x128;" 
d="M206 768v2q0 10 2 18q3 9 8 15t11 9q7 3 16 3h7t7 -2q2 -1 5 -2l4 -2q3 -1 5 -3q3 -2 7 -3q14 -8 18 -10q3 -2 10 -6q8 -3 14 -6t11 -5q4 -1 8 -3l8 -2q9 -1 17 -2t15 -1q21 0 38 7q16 7 29 21q14 13 20 32t7 42h-62v-3q0 -9 -3 -17q-2 -7 -8 -13q-5 -7 -11 -10
q-7 -3 -14 -3q-4 0 -8 1l-8 2l-10 4l-10 6q-15 7 -18 8q-4 1 -11 5q-13 7 -22 11q-10 4 -17 5q-9 2 -18 3t-15 1q-22 0 -38 -7q-17 -6 -30 -20q-7 -8 -12 -16q-5 -9 -8 -18q-4 -9 -5 -19q-2 -10 -2 -22h63zM100 0h415v80h-157v542h157v79h-415v-79h157v-542h-157v-80z" />
    <glyph glyph-name="uni0129" unicode="&#x129;" 
d="M196 592q0 19 3 33q2 14 7 22q4 9 11 13q7 5 16 5q8 0 17 -5q8 -5 18 -14q15 -13 18 -16q4 -3 11 -9q17 -15 34 -22t35 -7q23 0 42 9q18 9 30 27q13 17 19 41q7 24 7 55h-63q0 -18 -2 -32q-3 -14 -8 -23q-4 -9 -11 -13q-6 -5 -15 -5q-4 0 -8 2l-8 2q-4 2 -8 6q-5 3 -11 9
q-15 13 -18 16q-4 3 -11 9q-17 15 -34 22q-18 7 -36 7q-23 0 -41 -9q-18 -8 -30 -26q-13 -18 -19 -42q-7 -24 -7 -55h62zM546 -4v74h-108q-22 0 -38 7q-17 8 -28 22q-12 15 -18 37q-6 21 -6 51v339h-214v-67h122v-272q0 -45 12 -81q11 -35 34 -60q12 -13 26 -22
q13 -10 29 -16q17 -6 34 -9q18 -3 38 -3h117z" />
    <glyph glyph-name="uni012a" unicode="&#x12a;" 
d="M168 776h299v70h-299v-70zM100 0h415v80h-157v542h157v79h-415v-79h157v-542h-157v-80z" />
    <glyph glyph-name="uni012b" unicode="&#x12b;" 
d="M134 621h299v69h-299v-69zM546 -4v74h-108q-22 0 -38 7q-17 8 -28 22q-12 15 -18 37q-6 21 -6 51v339h-214v-67h122v-272q0 -45 12 -81q11 -35 34 -60q12 -13 26 -22q13 -10 29 -16q17 -6 34 -9q18 -3 38 -3h117z" />
    <glyph glyph-name="uni012c" unicode="&#x12c;" 
d="M465 874h-59q-8 -26 -33 -39q-24 -13 -65 -13q-43 0 -67 13t-30 39h-60q5 -56 44 -85q40 -28 112 -28q73 0 113 28q40 29 45 85zM100 0h415v80h-157v542h157v79h-415v-79h157v-542h-157v-80z" />
    <glyph glyph-name="uni012d" unicode="&#x12d;" 
d="M415 644q20 17 31 42t14 58h-60q-3 -17 -11 -30t-20 -22q-12 -8 -29 -13q-16 -4 -38 -4t-39 4q-17 5 -29 13q-12 9 -18 22q-7 13 -10 30h-60q6 -67 45 -100q39 -34 111 -34q36 0 64 9q29 8 49 25zM546 -4v74h-108q-22 0 -38 7q-17 8 -28 22q-12 15 -18 37q-6 21 -6 51
v339h-214v-67h122v-272q0 -45 12 -81q11 -35 34 -60q12 -13 26 -22q13 -10 29 -16q17 -6 34 -9q18 -3 38 -3h117z" />
    <glyph glyph-name="uni012e" unicode="&#x12e;" 
d="M515 622v79h-415v-79h157v-542h-157v-80h199q-15 -16 -26 -31q-12 -14 -17 -26q-5 -13 -8 -24t-3 -22q0 -21 7 -37q8 -16 22 -26q15 -10 37 -15q22 -4 49 -4h18q9 1 16 2q8 0 17 3q9 2 20 4v62q-15 -7 -30 -10q-15 -4 -31 -4q-28 0 -42 11q-14 10 -14 31q0 8 3 17
q2 9 8 19q5 10 13 22q8 13 20 28h157v80h-157v542h157z" />
    <glyph glyph-name="uni012f" unicode="&#x12f;" 
d="M332 622q8 0 12 3q4 4 4 11v81q0 7 -4 10q-4 4 -12 4h-69q-8 0 -12 -4q-4 -3 -4 -10v-81q0 -7 4 -11q4 -3 12 -3h69zM431 -81q0 8 2 16t6 17q5 9 12 20t17 24h78v74h-108q-22 0 -38 7q-17 8 -28 22q-12 15 -18 37q-6 21 -6 51v339h-214v-67h122v-272q0 -45 12 -81
q11 -35 34 -60q20 -21 46 -34q27 -12 60 -15q-14 -15 -22 -28q-9 -13 -14 -23q-6 -11 -8 -22q-3 -12 -3 -22q0 -21 8 -37t22 -26q15 -10 36 -14q22 -5 49 -5h18q9 1 17 2t17 3t20 4v62q-16 -6 -31 -10t-31 -4q-27 0 -41 11q-14 10 -14 31z" />
    <glyph glyph-name="Idotaccent" unicode="&#x130;" 
d="M344 774q8 0 12 4q3 4 3 10v68q0 7 -3 11q-4 3 -12 3h-73q-7 0 -11 -3q-4 -4 -4 -11v-68q0 -6 4 -10t11 -4h73zM100 0h415v80h-157v542h157v79h-415v-79h157v-542h-157v-80z" />
    <glyph glyph-name="dotlessi" unicode="&#x131;" 
d="M546 -4v74h-108q-22 0 -38 7q-17 8 -28 22q-12 15 -18 37q-6 21 -6 51v339h-214v-67h122v-272q0 -45 12 -81q11 -35 34 -60q12 -13 26 -22q13 -10 29 -16q17 -6 34 -9q18 -3 38 -3h117z" />
    <glyph glyph-name="uni0132" unicode="&#x132;" 
d="M68 0h278q28 0 54 6q25 7 49 20q23 13 41 30t32 39t21 46q7 23 7 49v78v93q-1 91 -1 185v156h-40h-47h-94q-48 -1 -80 -1v-79h159q0 -81 1 -203q1 -121 1 -229q0 -13 -4 -24q-4 -12 -11 -23q-7 -10 -16 -19t-21 -15q-11 -7 -24 -11q-13 -3 -27 -3h-278v-95zM68 190h101
v511h-101v-511z" />
    <glyph glyph-name="uni0133" unicode="&#x133;" 
d="M103 622h72q8 0 12 3q3 4 3 11v81q0 7 -3 10q-4 4 -12 4h-72q-7 0 -11 -4q-4 -3 -4 -10v-81q0 -7 4 -11q4 -3 11 -3zM446 622h72q8 0 12 3q4 4 4 11v81q0 7 -4 10q-4 4 -12 4h-72q-7 0 -11 -4q-4 -3 -4 -10v-81q0 -7 4 -11q4 -3 11 -3zM93 0h92v526h-92v-526zM185 -201
h171q42 0 74 13t54 37q23 25 34 60q10 36 10 82v535h-225v-67h133v-468q0 -59 -22 -88q-23 -30 -68 -30h-161v-74z" />
    <glyph glyph-name="uni0134" unicode="&#x134;" 
d="M275 745h70q15 16 41 42q26 27 41 42l84 -84h70q-20 24 -53 63t-53 62h-94q-20 -23 -53 -62t-53 -63zM154 -3q23 -5 47 -8q25 -2 50 -2q60 0 103 14q44 13 71 41t40 74q13 47 13 113v472h-292v-79h191v-393q0 -32 -3 -57t-9 -43t-16 -31q-10 -12 -23 -20q-14 -8 -33 -11
q-19 -4 -43 -4q-52 0 -101 19t-95 57v-110q26 -11 51 -19t49 -13z" />
    <glyph glyph-name="uni0135" unicode="&#x135;" 
d="M213 598h69q22 29 90 115q17 -22 45 -58q29 -35 46 -57h69q-23 33 -61 88q-39 55 -62 88h-73q-31 -44 -123 -176zM119 -201h127q41 0 73 13t55 37q22 25 33 60q11 36 11 82v535h-250v-67h158v-468q0 -59 -23 -88q-22 -30 -67 -30h-117v-74z" />
    <glyph glyph-name="uni0136" unicode="&#x136;" 
d="M69 0h101v274q19 20 77 77q16 -23 37 -53t44 -64q43 -62 88 -127q45 -64 74 -107h122q-19 27 -45 63t-54 75q-53 74 -108 150t-92 127q97 95 291 286h-119q-20 -20 -48 -47q-27 -27 -57 -56l-114 -114q-58 -57 -96 -95v312h-101v-701zM257 -256h73q17 31 47 81
q29 51 47 82h-120q-8 -31 -23 -82q-16 -50 -24 -81z" />
    <glyph glyph-name="uni0137" unicode="&#x137;" 
d="M113 0h95v211q13 11 34 30t34 30q14 -17 32 -41q18 -23 37 -49q37 -48 75 -98t63 -83h113q-17 22 -39 50t-46 59q-45 58 -92 119q-47 60 -78 100q14 13 33 30t40 36q39 35 80 72q40 36 67 60h-111q-16 -14 -37 -33q-21 -18 -44 -39q-43 -39 -87 -79q-45 -40 -74 -67v423
h-95v-731zM266 -256h73q18 31 47 81q28 51 46 82h-119q-8 -31 -23 -82q-15 -50 -24 -81z" />
    <glyph glyph-name="uni0138" unicode="&#x138;" 
d="M93 0h95v211q13 11 34 30t34 30q14 -17 32 -41q18 -23 37 -49q37 -48 75 -98t64 -83h111q-16 22 -38 50t-46 59q-46 58 -93 119q-47 60 -77 100q14 13 33 30t40 36q39 35 80 72q41 36 68 60h-113q-16 -14 -36 -33q-21 -18 -44 -39q-43 -39 -87 -79t-74 -67v218h-95v-526z
" />
    <glyph glyph-name="uni0139" unicode="&#x139;" 
d="M108 749h76q22 23 58 61q36 39 57 62h-93q-19 -23 -49 -62q-31 -38 -49 -61zM108 0h461v80h-360v621h-101v-701z" />
    <glyph glyph-name="uni013a" unicode="&#x13a;" 
d="M190 760h77q22 23 58 62q35 39 57 62h-93q-19 -23 -49 -62q-31 -39 -50 -62zM517 -4v74h-107q-46 0 -68 29q-23 30 -23 88v544h-239v-67h147v-477q0 -46 12 -81q11 -35 33 -60q23 -24 55 -37t73 -13h117z" />
    <glyph glyph-name="uni013b" unicode="&#x13b;" 
d="M108 0h461v80h-360v621h-101v-701zM255 -256h73q17 31 47 81q29 51 47 82h-120q-8 -31 -23 -82q-16 -50 -24 -81z" />
    <glyph glyph-name="uni013c" unicode="&#x13c;" 
d="M517 -4v74h-107q-46 0 -68 29q-23 30 -23 88v544h-239v-67h147v-477q0 -46 12 -81q11 -35 33 -60q23 -24 55 -37t73 -13h117zM202 -256h72q18 31 47 81q29 51 47 82h-119q-9 -31 -24 -82q-15 -50 -23 -81z" />
    <glyph glyph-name="uni013d" unicode="&#x13d;" 
d="M108 0h461v80h-360v621h-101v-701zM325 524h76q11 33 29 88q17 55 28 88h-99q-6 -33 -17 -88t-17 -88z" />
    <glyph glyph-name="uni013e" unicode="&#x13e;" 
d="M517 -4v74h-107q-46 0 -68 29q-23 30 -23 88v544h-239v-67h147v-477q0 -46 12 -81q11 -35 33 -60q23 -24 55 -37t73 -13h117zM445 555h77q11 33 28 88q18 55 29 88h-100q-6 -33 -17 -88q-10 -55 -17 -88z" />
    <glyph glyph-name="uni013f" unicode="&#x13f;" 
d="M108 0h461v80h-360v621h-101v-701zM353 254h73q8 0 11 4q3 3 3 10v68q0 7 -3 10t-11 3h-73q-7 0 -11 -3t-4 -10v-68q0 -7 4 -10q4 -4 11 -4z" />
    <glyph glyph-name="uni0140" unicode="&#x140;" 
d="M411 -4h116v74h-107q-45 0 -68 29q-22 30 -22 88v544h-240v-67h148v-477q0 -45 11 -81q11 -35 34 -60q23 -24 55 -37t73 -13zM439 254h73q8 0 12 4q3 3 3 10v68q0 7 -3 10q-4 3 -12 3h-73q-7 0 -11 -3q-3 -3 -3 -10v-68q0 -7 3 -10q4 -4 11 -4z" />
    <glyph glyph-name="Lslash" unicode="&#x141;" 
d="M108 0h461v80h-360v254q24 15 60 39t71 47q19 12 36 23q17 12 30 20q-8 10 -20 26t-19 26q-30 -19 -79 -51q-50 -32 -79 -51v288h-101v-357q-21 -14 -57 -37q-35 -23 -56 -37q8 -10 20 -26t20 -26q14 9 36 25q23 16 37 25v-268z" />
    <glyph glyph-name="lslash" unicode="&#x142;" 
d="M517 -4v74h-107q-23 0 -40 7q-16 8 -28 22q-12 15 -17 37q-6 21 -6 51v196q13 9 30 20t36 23q35 23 72 46l60 40q-8 10 -20 26t-20 26q-29 -19 -79 -51q-49 -33 -79 -52v270h-239v-67h147v-262q-23 -15 -58 -37q-35 -23 -68 -45q-18 -12 -35 -23q-16 -10 -28 -18
q8 -10 20 -27q12 -16 20 -26q27 19 75 49q47 31 74 50v-138q0 -45 12 -81q11 -35 34 -60q13 -13 26 -22q14 -10 30 -16t34 -9q17 -3 37 -3h117z" />
    <glyph glyph-name="uni0143" unicode="&#x143;" 
d="M267 749h77q22 23 57 61q36 39 58 62h-93q-19 -23 -50 -62q-30 -38 -49 -61zM70 0h97v578q17 -38 38 -88q22 -49 46 -105q44 -102 91 -208q46 -107 77 -177h128v701h-97v-577q-31 70 -78 177q-46 106 -90 208q-24 55 -46 105t-38 87h-128v-701z" />
    <glyph glyph-name="uni0144" unicode="&#x144;" 
d="M248 609h77q20 22 49 54q30 33 59 65q16 16 30 32q14 15 24 26h-99q-9 -11 -21 -26q-12 -16 -26 -32q-24 -32 -50 -65q-26 -32 -43 -54zM97 0h92v298q0 41 9 71t26 52q17 21 42 32t58 11q28 0 49 -9q20 -8 34 -25q13 -17 19 -42q7 -26 7 -61v-327h92v327q0 106 -42 159
t-128 53q-58 0 -100 -23q-41 -22 -66 -69q-1 15 -4 40t-5 39h-83v-526z" />
    <glyph glyph-name="uni0145" unicode="&#x145;" 
d="M70 0h97v578q17 -38 38 -88q22 -49 46 -105q44 -102 91 -208q46 -107 77 -177h128v701h-97v-577q-31 70 -78 177q-46 106 -90 208q-24 55 -46 105t-38 87h-128v-701zM225 -256h73q18 31 47 81q29 51 46 82h-119q-8 -31 -23 -82q-15 -50 -24 -81z" />
    <glyph glyph-name="uni0146" unicode="&#x146;" 
d="M97 0h92v298q0 41 9 71t26 52q17 21 42 32t58 11q28 0 49 -9q20 -8 34 -25q13 -17 19 -42q7 -26 7 -61v-327h92v327q0 106 -42 159t-128 53q-58 0 -100 -23q-41 -22 -66 -69q-1 15 -4 40t-5 39h-83v-526zM228 -256h73q18 31 47 81q29 51 46 82h-119q-8 -31 -23 -82
q-15 -50 -24 -81z" />
    <glyph glyph-name="uni0147" unicode="&#x147;" 
d="M279 745h95q20 24 52 63q33 39 53 62h-70q-16 -15 -42 -42q-26 -26 -41 -42q-16 16 -41 42q-26 27 -41 42h-71q20 -23 53 -62t53 -63zM70 0h97v578q17 -38 38 -88q22 -49 46 -105q44 -102 91 -208q46 -107 77 -177h128v701h-97v-577q-31 70 -78 177q-46 106 -90 208
q-24 55 -46 105t-38 87h-128v-701z" />
    <glyph glyph-name="uni0148" unicode="&#x148;" 
d="M265 609h74q23 33 61 89q39 55 62 88h-70q-17 -21 -45 -57q-28 -37 -45 -58q-17 21 -45 58q-28 36 -45 57h-70q23 -33 62 -88q38 -56 61 -89zM97 0h92v298q0 41 9 71t26 52q17 21 42 32t58 11q28 0 49 -9q20 -8 34 -25q13 -17 19 -42q7 -26 7 -61v-327h92v327
q0 106 -42 159t-128 53q-58 0 -100 -23q-41 -22 -66 -69q-1 15 -4 40t-5 39h-83v-526z" />
    <glyph glyph-name="uni0149" unicode="&#x149;" 
d="M0 455h77q24 45 98 180v96h-126v-96q-12 -45 -49 -180zM186 0h92v298q0 41 8 71q9 30 26 52q17 21 42 32t58 11q28 0 49 -9q21 -8 34 -25t19 -42q7 -26 7 -61v-327h93v327q0 53 -10 93q-11 40 -32 66q-21 27 -53 40q-33 13 -76 13q-57 0 -99 -23q-41 -22 -66 -69
q-2 15 -5 40q-2 25 -4 39h-83v-526z" />
    <glyph glyph-name="uni014a" unicode="&#x14a;" 
d="M268 -201h103q41 0 73 13q31 13 54 37q22 25 33 60q12 36 12 82v479q0 123 -47 184q-47 62 -140 62q-63 0 -109 -27q-45 -28 -73 -81q-1 18 -4 47t-4 46h-92v-701h100v440q0 48 9 85q10 37 29 63q19 25 46 38q27 12 63 12q30 0 53 -10q23 -9 38 -29q14 -20 22 -51
q7 -32 7 -74v-474q0 -35 -6 -59q-5 -24 -16 -38q-11 -15 -28 -22q-17 -8 -40 -8h-83v-74z" />
    <glyph glyph-name="uni014b" unicode="&#x14b;" 
d="M251 -201h102q42 0 74 13t54 37q23 25 33 60q11 36 11 82v336q0 106 -42 159t-128 53q-58 0 -100 -23q-41 -22 -66 -69q-1 15 -4 40t-5 39h-83v-526h92v298q0 41 9 71t26 52q17 21 42 32t58 11q28 0 49 -9q20 -8 34 -25q13 -17 19 -42q7 -26 7 -61v-336q0 -59 -23 -88
q-22 -30 -67 -30h-92v-74z" />
    <glyph glyph-name="uni014c" unicode="&#x14c;" 
d="M159 776h299v70h-299v-70zM558 350q0 92 -15 161q-16 68 -46 114q-31 45 -78 67q-48 23 -111 23t-110 -23q-47 -22 -78 -67q-31 -46 -46 -115q-16 -69 -16 -161t16 -160q15 -69 46 -113q31 -45 77 -67q47 -22 110 -22q125 0 188 90q63 91 63 273zM198 130q-17 34 -26 89
q-8 55 -8 131q0 77 8 132q9 56 26 89t45 50q28 16 65 16q39 0 66 -16q28 -17 45 -50q17 -32 25 -87q9 -55 9 -134q0 -78 -9 -133q-8 -55 -25 -87q-17 -33 -45 -50q-27 -17 -66 -17q-37 0 -65 17t-45 50z" />
    <glyph glyph-name="uni014d" unicode="&#x14d;" 
d="M159 633h299v69h-299v-69zM486 57q31 36 46 87q16 51 16 118q0 68 -16 119q-15 52 -46 87q-30 35 -75 53q-44 18 -103 18q-58 0 -103 -18q-44 -18 -75 -53t-46 -87q-15 -51 -15 -119q0 -67 14 -119q15 -51 46 -87q31 -35 76 -52t103 -17q59 0 103 17q45 18 75 53z
M166 263q0 102 36 152q36 51 106 51q72 0 107 -51q36 -50 36 -152q0 -101 -36 -152q-35 -52 -107 -52q-70 0 -106 52q-36 51 -36 152z" />
    <glyph glyph-name="uni014e" unicode="&#x14e;" 
d="M465 860h-59q-8 -26 -32 -39t-65 -13q-43 0 -67 13q-25 13 -31 39h-59q6 -57 45 -85q39 -29 111 -29q73 0 112 29q40 28 45 85zM417 8q24 11 44 28t36 41q30 45 46 113q15 69 15 160q0 92 -15 161q-16 68 -46 114q-16 23 -36 40t-44 28t-51 16q-27 6 -58 6
q-62 0 -109 -23q-47 -22 -78 -67t-47 -114t-16 -161t16 -161q15 -69 46 -113q31 -45 78 -67t110 -22q31 0 58 5t51 16zM198 130q-17 34 -26 89q-8 55 -8 131q0 77 8 132q9 56 26 89t45 50q28 16 65 16q39 0 66 -16q28 -17 45 -50q17 -32 25 -87q9 -55 9 -134q0 -78 -9 -133
q-8 -55 -25 -87q-17 -33 -45 -50q-27 -17 -66 -17q-37 0 -65 17t-45 50z" />
    <glyph glyph-name="uni014f" unicode="&#x14f;" 
d="M420 644q20 17 31 42t14 58h-59q-4 -17 -12 -30q-7 -13 -19 -22q-12 -8 -29 -13q-16 -4 -38 -4t-39 4q-17 5 -28 13q-13 9 -20 22t-10 30h-59q5 -67 44 -100q39 -34 112 -34q36 0 64 9q28 8 48 25zM486 57q31 35 46 86q16 52 16 120q0 67 -16 118q-15 51 -46 87
q-30 35 -75 53q-44 18 -103 18q-58 0 -103 -18q-44 -18 -75 -53q-31 -36 -46 -87t-15 -118q0 -33 3 -62q4 -29 12 -56q8 -26 19 -47q11 -22 27 -41q31 -35 75 -53q45 -17 103 -17q59 0 104 17q44 18 74 53zM202 112q-18 25 -27 63t-9 88t9 88t27 64q17 25 44 38t62 13
q36 0 62 -13q27 -13 45 -38q17 -26 26 -64q10 -38 10 -88t-10 -88q-9 -38 -26 -63q-18 -26 -45 -40q-26 -13 -62 -13q-35 0 -62 13q-27 14 -44 40z" />
    <glyph glyph-name="uni0150" unicode="&#x150;" 
d="M172 750h77q21 23 57 62q36 38 58 61h-94q-18 -23 -49 -61q-31 -39 -49 -62zM332 750h77q21 23 57 62q36 38 57 61h-93q-18 -23 -49 -61q-31 -39 -49 -62zM558 350q0 92 -15 161q-16 68 -46 114q-31 45 -78 67q-48 23 -111 23t-110 -23q-47 -22 -78 -67q-31 -46 -46 -115
q-16 -69 -16 -161t16 -160q15 -69 46 -113q31 -45 77 -67q47 -22 110 -22q125 0 188 90q63 91 63 273zM198 130q-17 34 -26 89q-8 55 -8 131q0 77 8 132q9 56 26 89t45 50q28 16 65 16q39 0 66 -16q28 -17 45 -50q17 -32 25 -87q9 -55 9 -134q0 -78 -9 -133q-8 -55 -25 -87
q-17 -33 -45 -50q-27 -17 -66 -17q-37 0 -65 17t-45 50z" />
    <glyph glyph-name="uni0151" unicode="&#x151;" 
d="M172 609h69q20 33 55 89q36 55 56 88h-85q-17 -33 -47 -88q-30 -56 -48 -89zM332 609h67q23 33 62 89q39 55 62 88h-89q-19 -33 -51 -88q-32 -56 -51 -89zM486 57q31 36 46 87q16 51 16 118q0 68 -16 119q-15 52 -46 87q-30 35 -75 53q-44 18 -103 18q-58 0 -103 -18
q-44 -18 -75 -53t-46 -87q-15 -51 -15 -119q0 -67 14 -119q15 -51 46 -87q31 -35 76 -52t103 -17q59 0 103 17q45 18 75 53zM166 263q0 102 36 152q36 51 106 51q72 0 107 -51q36 -50 36 -152q0 -101 -36 -152q-35 -52 -107 -52q-70 0 -106 52q-36 51 -36 152z" />
    <glyph glyph-name="OE" unicode="&#x152;" 
d="M608 0v80h-184v254h164v80h-164v208h179v79h-297q-38 0 -70 -4q-32 -5 -58 -15q-25 -10 -45 -25q-20 -14 -36 -33q-14 -20 -26 -45q-11 -26 -19 -59q-7 -33 -12 -75q-4 -42 -4 -94q0 -97 16 -164q16 -68 46 -108q15 -19 35 -34t44 -25q25 -10 57 -15q33 -5 72 -5h302z
M295 80q-45 0 -75 14q-31 13 -48 40q-8 14 -15 33q-7 20 -12 46q-4 26 -6 61q-2 34 -2 76q0 43 3 78q2 34 6 60q5 27 11 46q7 20 15 33q17 27 48 41q30 14 75 14h31v-542h-31z" />
    <glyph glyph-name="oe" unicode="&#x153;" 
d="M260 2q8 4 15 8q8 5 15 10q7 6 14 13t14 16q24 -31 61 -47q36 -15 85 -15q20 0 37 2t33 7q6 1 13 4q8 3 16 7q9 4 16 9q7 4 15 10v80q-12 -12 -26 -20q-14 -9 -30 -15q-9 -3 -17 -6q-9 -3 -18 -5q-9 -1 -19 -2q-9 -1 -18 -1q-28 0 -49 9t-33 26q-12 18 -18 45
q-7 27 -7 65v40h246v42q0 72 -9 122t-27 77q-17 28 -48 42q-32 14 -75 14q-45 0 -77 -15t-51 -45q-11 16 -25 27t-30 18q-15 7 -34 11q-20 4 -43 4q-47 0 -81 -16t-56 -49q-10 -16 -18 -36q-7 -20 -13 -46q-5 -25 -8 -58q-3 -32 -3 -72q0 -73 11 -126t32 -85q10 -15 23 -27
t29 -21q17 -8 37 -12q21 -4 45 -4q23 0 42 4q19 3 34 11zM144 67q-9 4 -16 12t-12 18q-6 10 -10 24q-3 14 -6 34q-2 19 -3 46q-2 27 -2 61q0 36 1 64q1 27 4 46q3 18 7 33q4 14 9 24q4 9 11 16t15 13q9 5 20 8q11 2 24 2q17 0 31 -5q14 -4 24 -12q10 -9 17 -24q7 -16 11 -38
q5 -22 7 -55q3 -34 3 -76q0 -33 -2 -59q-1 -26 -4 -44q-2 -19 -6 -33q-4 -15 -9 -25q-10 -20 -28 -30t-44 -10q-12 0 -22 3q-10 2 -20 7zM359 309v20q0 37 5 63q5 27 15 43q9 16 25 25q16 8 37 8q22 0 38 -8t26 -24t15 -42q4 -25 4 -61v-10v-9q-1 -3 -1 -5h-164z" />
    <glyph glyph-name="uni0154" unicode="&#x154;" 
d="M217 749h77q21 23 57 61q36 39 58 62h-94q-18 -23 -49 -62q-30 -38 -49 -61zM72 0h101v297h96q16 0 30 -2q14 -3 26 -7q12 -5 23 -13q12 -8 23 -21q10 -13 23 -32q12 -20 25 -45q17 -33 44 -88q28 -56 45 -89h108q-19 36 -47 90q-29 54 -54 101q-14 26 -25 46
q-12 20 -22 33q-10 14 -21 25q-10 10 -20 16t-22 12q-11 5 -25 9q36 5 64 18q29 12 49 34t30 51q11 30 11 68q0 47 -17 84q-16 36 -49 62t-80 39t-108 13h-208v-701zM173 375v249h107q36 0 63 -8t46 -24t29 -40q9 -23 9 -55q0 -61 -36 -92q-36 -30 -107 -30h-111z" />
    <glyph glyph-name="uni0155" unicode="&#x155;" 
d="M270 610h77q11 12 25 27t29 32q29 31 59 64q30 32 50 53h-99q-17 -21 -43 -53q-26 -33 -51 -64q-13 -17 -25 -32t-22 -27zM151 0h93v262q0 49 11 85t34 62q22 25 55 37q34 13 77 13q34 0 66 -10t61 -31v88q-26 16 -56 24q-30 9 -64 9q-35 0 -64 -8q-29 -7 -52 -22
t-40 -37q-17 -21 -28 -48q-2 19 -5 51t-5 51h-83v-526z" />
    <glyph glyph-name="uni0156" unicode="&#x156;" 
d="M72 0h101v297h96q16 0 30 -2q14 -3 26 -7q12 -5 23 -13q12 -8 23 -21q10 -13 23 -32q12 -20 25 -45q17 -33 44 -88q28 -56 45 -89h108q-19 36 -47 90q-29 54 -54 101q-14 26 -25 46q-12 20 -22 33q-10 14 -21 25q-10 10 -20 16t-22 12q-11 5 -25 9q36 5 64 18
q29 12 49 34t30 51q11 30 11 68q0 47 -17 84q-16 36 -49 62t-80 39t-108 13h-208v-701zM173 375v249h107q36 0 63 -8t46 -24t29 -40q9 -23 9 -55q0 -61 -36 -92q-36 -30 -107 -30h-111zM261 -256h73q17 31 46 81q29 51 47 82h-119q-8 -31 -23 -82q-15 -50 -24 -81z" />
    <glyph glyph-name="uni0157" unicode="&#x157;" 
d="M151 0h93v262q0 49 11 85t34 62q22 25 55 37q34 13 77 13q34 0 66 -10t61 -31v88q-26 16 -56 24q-30 9 -64 9q-35 0 -64 -8q-29 -7 -52 -22t-40 -37q-17 -21 -28 -48q-2 19 -5 51t-5 51h-83v-526zM114 -256h73q18 31 47 81q29 51 47 82h-120q-9 -31 -24 -82
q-15 -50 -23 -81z" />
    <glyph glyph-name="uni0158" unicode="&#x158;" 
d="M234 745h95q20 24 52 63q33 39 53 62h-70q-16 -15 -42 -42q-26 -26 -41 -42q-16 16 -41 42q-26 27 -41 42h-71q20 -23 53 -62q34 -39 53 -63zM72 0h101v297h96q16 0 30 -2q14 -3 26 -7q12 -5 23 -13q12 -8 23 -21q10 -13 23 -32q12 -20 25 -45q17 -33 44 -88
q28 -56 45 -89h108q-19 36 -47 90q-29 54 -54 101q-14 26 -25 46q-12 20 -22 33q-10 14 -21 25q-10 10 -20 16t-22 12q-11 5 -25 9q36 5 64 18q29 12 49 34t30 51q11 30 11 68q0 47 -17 84q-16 36 -49 62t-80 39t-108 13h-208v-701zM173 375v249h107q36 0 63 -8t46 -24
t29 -40q9 -23 9 -55q0 -61 -36 -92q-36 -30 -107 -30h-111z" />
    <glyph glyph-name="uni0159" unicode="&#x159;" 
d="M292 609h73q23 33 61 89q39 55 62 88h-69q-17 -21 -46 -57q-28 -37 -45 -58q-17 21 -45 58q-29 36 -45 57h-69q23 -33 61 -88q39 -56 62 -89zM151 0h93v262q0 49 11 85t34 62q22 25 55 37q34 13 77 13q34 0 66 -10t61 -31v88q-26 16 -56 24q-30 9 -64 9q-35 0 -64 -8
q-29 -7 -52 -22t-40 -37q-17 -21 -28 -48q-2 19 -5 51t-5 51h-83v-526z" />
    <glyph glyph-name="uni015a" unicode="&#x15a;" 
d="M252 749h77q21 23 57 61q36 39 57 62h-93q-18 -23 -49 -62q-31 -38 -49 -61zM483 39q33 26 50 65q16 39 16 90q0 41 -12 74q-11 32 -35 58q-24 25 -62 43q-39 18 -92 29q-27 6 -33 7q-7 2 -20 5q-37 7 -62 17q-26 11 -39 24q-14 13 -21 29t-7 37q0 29 11 52q10 22 31 37
q21 16 48 23q28 8 63 8q47 0 94 -14t93 -41v96q-52 18 -100 28q-48 9 -91 9q-37 0 -70 -7q-32 -7 -60 -20q-27 -13 -48 -31t-37 -41q-15 -23 -23 -51q-7 -28 -7 -59q0 -37 11 -66q12 -30 35 -52t61 -39t90 -28q27 -7 34 -8t21 -4q36 -8 62 -19q25 -11 40 -25t22 -32
q7 -19 7 -43q0 -31 -11 -55q-10 -24 -31 -40q-22 -16 -51 -24q-30 -8 -68 -8q-51 0 -104 17q-54 17 -109 50v-101q27 -11 53 -19q27 -8 53 -13t53 -8q27 -2 55 -2q62 0 110 13q47 13 80 39z" />
    <glyph glyph-name="uni015b" unicode="&#x15b;" 
d="M251 609h77q20 22 50 54q29 33 58 65q16 16 30 32q14 15 24 26h-99q-9 -11 -21 -26q-12 -16 -25 -32q-25 -32 -51 -65q-26 -32 -43 -54zM456 31q29 22 44 52t15 70q0 59 -35 96q-35 36 -104 48q-12 2 -37 6q-22 4 -40 8q-18 5 -33 8q-14 4 -25 9q-11 4 -17 9
q-11 8 -17 21q-5 13 -5 31q0 39 30 58q30 20 91 20q22 0 43 -3t41 -8q19 -6 39 -14q20 -7 40 -18v84q-40 15 -82 23t-85 8q-51 0 -90 -10t-66 -30q-27 -21 -41 -50q-13 -30 -13 -68q0 -29 8 -52q9 -24 26 -41q18 -18 48 -30q29 -13 70 -20q6 -2 18 -4q11 -1 17 -3h1
q1 -1 2 -1q33 -7 57 -15t38 -18q14 -11 21 -24q7 -14 7 -30q0 -18 -9 -34q-8 -16 -25 -27q-17 -12 -40 -18t-54 -6q-42 0 -89 13t-99 38v-90q27 -8 52 -14t47 -10t45 -6q22 -2 44 -2q51 0 92 11q40 10 70 33z" />
    <glyph glyph-name="uni015c" unicode="&#x15c;" 
d="M165 745h69l42 42q26 27 41 42q16 -15 42 -42q26 -26 41 -42h70q-20 24 -53 63q-32 39 -52 62h-95q-20 -23 -52 -62q-33 -39 -53 -63zM186 -3q26 -5 52 -8q26 -2 54 -2q63 0 111 13q47 13 80 39t50 64q16 39 16 90q0 42 -12 75q-12 34 -36 59q-25 24 -63 42
q-38 19 -90 29q-27 6 -33 7q-7 2 -20 5q-37 7 -62 18t-39 24t-21 29q-7 17 -7 38q0 28 10 50t31 37q21 16 49 23q28 8 65 8q46 0 92 -14q47 -14 93 -41v96q-51 18 -98 28q-48 9 -93 9q-36 0 -69 -7q-32 -6 -60 -19q-27 -13 -49 -31q-21 -17 -37 -41q-15 -23 -23 -51
q-7 -28 -7 -59q0 -38 11 -68q12 -30 36 -52t61 -39t89 -27q27 -7 34 -8t21 -4q20 -4 36 -9t27 -9q12 -5 21 -11q10 -7 18 -15q15 -14 22 -32q7 -19 7 -45q0 -30 -11 -53q-11 -24 -32 -40q-22 -16 -51 -24q-30 -8 -68 -8q-50 0 -103 17t-109 50v-101q28 -11 55 -19t52 -13z
" />
    <glyph glyph-name="uni015d" unicode="&#x15d;" 
d="M151 609h69q17 22 45 58t45 58q17 -22 46 -58t45 -58h69q-23 33 -61 89q-39 55 -62 88h-73q-23 -33 -62 -88q-38 -56 -61 -89zM206 -5q23 -4 45 -6t44 -2q51 0 91 11q40 10 70 33q30 22 44 52q15 30 15 69q0 30 -9 54q-8 24 -26 42q-17 17 -43 30q-26 12 -61 19
q-12 2 -37 6q-25 5 -44 9t-32 9q-13 3 -22 7q-10 3 -16 8q-6 4 -10 10q-4 7 -7 13q-3 7 -5 15q-1 7 -1 15q0 39 30 58q31 20 92 20q42 0 83 -11q40 -11 79 -32v84q-40 15 -82 23t-85 8q-51 0 -90 -10t-66 -30t-41 -49q-13 -30 -13 -68q0 -30 9 -54t27 -41q19 -17 48 -29
q28 -13 68 -20q6 -2 18 -4q11 -1 17 -3h1q1 -1 2 -1q31 -6 55 -14t38 -18q15 -10 22 -24q8 -13 8 -30q0 -19 -9 -35q-8 -16 -25 -27q-17 -12 -40 -18q-24 -6 -54 -6q-20 0 -42 4q-23 4 -47 10q-22 6 -47 15t-52 22v-90q27 -8 52 -14t48 -10z" />
    <glyph glyph-name="Scedilla" unicode="&#x15e;" 
d="M435 371q-19 8 -41 15q-21 7 -46 12q-27 6 -33 7q-7 2 -20 5q-36 7 -62 18q-25 11 -39 24q-8 6 -14 14q-5 8 -8 16q-3 9 -5 18q-1 9 -1 19q0 28 10 49q10 22 31 38q9 7 21 13t27 10t31 6t35 2q23 0 46 -3q24 -3 47 -10q10 -3 21 -8q11 -4 23 -10q11 -5 23 -11
q13 -6 25 -13v96q-13 4 -26 9q-13 4 -25 7q-13 3 -25 6q-13 3 -24 6q-24 4 -47 6q-22 3 -44 3q-37 0 -70 -7q-32 -6 -60 -19q-27 -12 -48 -30t-37 -42q-15 -23 -23 -50q-7 -28 -7 -60q0 -20 3 -37t9 -32q6 -14 15 -27q8 -13 20 -24q12 -12 28 -22q15 -10 34 -18t41 -14
q22 -7 47 -12q27 -7 34 -8t21 -4q17 -4 32 -8q15 -5 28 -10q13 -6 24 -11q10 -6 18 -14q7 -7 12 -15t8 -18q4 -10 6 -21q3 -12 3 -25q0 -16 -3 -29t-9 -25q-5 -11 -13 -21q-8 -9 -18 -17q-22 -16 -52 -24t-67 -8q-12 0 -25 2q-12 1 -25 3q-13 1 -26 4t-27 8q-26 8 -53 21
q-28 12 -56 29v-101l26 -10q13 -4 27 -9q14 -4 27 -8q13 -3 26 -5q24 -5 51 -8q26 -2 56 -2h9q4 -6 7 -10l6 -10q3 -4 5 -8t5 -8q5 -10 8 -19t3 -17q0 -21 -16 -32q-15 -11 -46 -11q-20 0 -39 4t-36 11v-61q10 -3 21 -5q11 -3 23 -4q10 -2 21 -2h22q15 0 29 1q13 1 24 4
t20 6q10 4 17 9q15 11 22 26q7 16 7 36q0 6 -1 13t-3 13q-1 6 -3 12q-3 5 -6 11l-5 10q-4 6 -8 11q-5 6 -9 12q-5 6 -11 12q40 5 71 17t54 31q16 12 28 28q12 15 20 34q9 20 13 42q5 23 5 50q0 42 -12 75q-12 34 -36 59q-13 13 -30 24t-36 20z" />
    <glyph glyph-name="scedilla" unicode="&#x15f;" 
d="M376 297q-9 1 -37 6q-25 5 -44 9q-19 5 -32 9q-13 3 -23 7q-11 4 -17 9t-10 10t-5 11q-2 7 -3 14q-2 8 -3 17q0 20 7 34q8 15 23 24q16 10 39 15t53 5q21 0 42 -3t41 -8q19 -6 39 -14q20 -7 40 -18v84q-10 4 -21 7q-10 4 -21 7l-20 6q-9 2 -18 3q-20 4 -42 6t-45 2
q-24 0 -46 -3q-22 -2 -42 -7q-20 -4 -37 -12t-31 -18q-27 -20 -41 -49q-13 -30 -13 -68q0 -30 9 -54t27 -41q10 -9 23 -17q12 -7 27 -13q14 -6 31 -11t35 -8q6 -2 18 -4q11 -1 17 -3h1q1 -1 2 -1q31 -6 55 -14t38 -18q15 -10 22 -24q8 -13 8 -30q0 -8 -2 -17q-2 -8 -6 -16
q-4 -9 -11 -16q-6 -7 -15 -13q-17 -12 -40 -18q-24 -6 -54 -6q-12 0 -23 2q-10 1 -21 2l-22 4q-12 3 -23 6l-22 6t-22 7q-12 4 -25 10t-30 14v-90q14 -3 27 -7q14 -4 27 -7t24 -6q11 -4 21 -5q22 -4 44 -6q23 -1 46 -1h6q4 -6 7 -10l6 -10q3 -4 5 -8t5 -8q5 -10 8 -19t3 -17
q0 -21 -16 -32q-15 -11 -46 -11q-20 0 -39 4t-36 11v-61q10 -3 21 -5q11 -3 23 -4q10 -2 21 -2h22q15 0 29 1q13 1 24 4t20 6q10 4 17 9q15 11 22 26q7 16 7 36q0 6 -1 13t-3 13q-1 6 -3 12q-3 5 -6 11q-3 4 -6 10q-3 5 -7 11t-9 13q-5 6 -11 12q30 4 54 14t44 25
q14 10 25 23t19 28q7 15 11 32q4 18 4 38q0 30 -9 54q-8 24 -26 42q-17 17 -43 30q-26 12 -61 19z" />
    <glyph glyph-name="Scaron" unicode="&#x160;" 
d="M269 745h95q19 24 52 63t53 62h-70q-15 -15 -41 -42l-42 -42q-15 16 -41 42q-26 27 -42 42h-69q20 -23 53 -62q32 -39 52 -63zM401 -1q25 6 46 16q20 11 36 24q16 12 28 28q12 15 20 34q9 20 13 42q5 23 5 50q0 42 -12 75q-12 34 -36 59q-13 13 -30 24t-36 20
q-19 8 -41 15q-21 7 -46 12q-27 6 -33 7q-7 2 -20 5q-36 7 -62 18q-25 11 -39 24q-8 6 -14 14q-5 8 -8 16q-3 9 -5 18q-1 9 -1 19q0 28 10 49q10 22 31 38q9 7 21 13t27 10t31 6t35 2q23 0 46 -3q24 -3 47 -10q10 -3 21 -8q11 -4 23 -10q11 -5 23 -11q13 -6 25 -13v96
q-13 4 -26 9q-13 4 -25 7q-13 3 -25 6q-13 3 -24 6q-24 4 -47 6q-22 3 -44 3q-37 0 -70 -7q-32 -6 -60 -19q-27 -12 -48 -30t-37 -42q-15 -23 -23 -50q-7 -28 -7 -60q0 -20 3 -37t9 -32q6 -14 15 -27q8 -13 20 -24q12 -12 28 -22q15 -10 34 -18t41 -14q22 -7 47 -12
q27 -7 34 -8t21 -4q17 -4 32 -8q15 -5 28 -10q13 -6 24 -11q10 -6 18 -14q7 -7 12 -15t8 -18q4 -10 6 -21q3 -12 3 -25q0 -16 -3 -29t-9 -25q-5 -11 -13 -21q-8 -9 -18 -17q-22 -16 -52 -24t-67 -8q-12 0 -25 2q-12 1 -25 3q-13 1 -26 4t-27 8q-26 8 -53 21q-28 12 -56 29
v-101l26 -10q13 -4 27 -9q14 -4 27 -8q13 -3 26 -5q24 -5 51 -8q26 -2 56 -2q31 0 58 3t51 9z" />
    <glyph glyph-name="scaron" unicode="&#x161;" 
d="M271 609h74q23 33 62 89q38 55 61 88h-70q-17 -21 -45 -57q-28 -37 -45 -58q-17 21 -45 58q-28 36 -45 57h-70q24 -33 62 -88q38 -56 61 -89zM385 -3q21 5 38 14q17 8 33 20q14 10 25 23t19 28q7 15 11 32q4 18 4 38q0 30 -9 54q-8 24 -26 42q-17 17 -43 30
q-26 12 -61 19q-12 2 -37 6q-25 5 -44 9q-19 5 -32 9q-13 3 -23 7q-11 4 -17 9t-10 10t-5 11q-2 7 -3 14q-2 8 -3 17q0 20 7 34q8 15 23 24q16 10 39 15t53 5q21 0 42 -3t41 -8q19 -6 39 -14q20 -7 40 -18v84q-10 4 -21 7q-10 4 -21 7l-20 6q-9 2 -18 3q-20 4 -42 6t-45 2
q-24 0 -46 -3q-22 -2 -42 -7q-20 -4 -37 -12t-31 -18q-27 -20 -41 -49q-13 -30 -13 -68q0 -30 9 -54t27 -41q10 -9 23 -17q12 -7 27 -13q14 -6 31 -11t35 -8q6 -2 18 -4q11 -1 17 -3h1q1 -1 2 -1q31 -6 55 -14t38 -18q15 -10 22 -24q8 -13 8 -30q0 -8 -2 -17q-2 -8 -6 -16
q-4 -9 -11 -16q-6 -7 -15 -13q-17 -12 -40 -18q-24 -6 -54 -6q-12 0 -23 2q-10 1 -21 2l-22 4q-12 3 -23 6l-22 6t-22 7q-12 4 -25 10t-30 14v-90q14 -3 27 -7q14 -4 27 -7t24 -6q11 -4 21 -5q22 -4 44 -6q23 -1 46 -1q24 0 47 2q22 3 43 8z" />
    <glyph glyph-name="uni0162" unicode="&#x162;" 
d="M593 701h-569v-79h234v-622h27q9 -13 15 -25q6 -11 10 -21t6 -20t2 -19q0 -21 -15 -32q-16 -11 -47 -11q-12 0 -21 1l-18 2q-8 2 -17 5q-10 3 -19 7v-61q21 -5 43 -8q21 -3 44 -3q29 0 52 5q23 4 38 15q16 11 23 26q7 16 7 36q0 10 -3 23q-4 13 -10 26q-3 4 -5 7l-6 8
l-9 9l-12 12q-5 3 -8 6q-3 4 -5 6l-6 6h35v622h234v79z" />
    <glyph glyph-name="uni0163" unicode="&#x163;" 
d="M307 526v175q-17 -6 -46 -18t-46 -18v-139h-149v-67h149v-287q0 -38 7 -67q6 -28 19 -48q12 -19 33 -31q20 -13 49 -20q21 -29 31 -50q11 -21 11 -33q0 -21 -16 -32q-15 -11 -46 -11q-11 0 -21 1t-19 2q-8 2 -17 5t-19 8v-62q21 -5 43 -8t45 -3q30 0 52 5t37 15
q16 11 23 26q7 16 7 36q0 11 -3 23q-3 13 -9 26q-7 11 -15 23q-9 11 -18 21h127v70h-103q-20 0 -36 2t-27 8q-11 4 -19 12t-14 20q-5 11 -7 27q-3 15 -3 35v287h209v67h-209z" />
    <glyph glyph-name="uni0164" unicode="&#x164;" 
d="M264 745h94q20 24 53 63t53 62h-70q-15 -15 -41 -42l-42 -42q-15 16 -41 42q-26 27 -42 42h-69q20 -23 52 -62q33 -39 53 -63zM258 0h101v622h234v79h-569v-79h234v-622z" />
    <glyph glyph-name="uni0165" unicode="&#x165;" 
d="M376 613h77q10 33 28 89q17 56 28 89h-99q-7 -33 -17 -89q-11 -56 -17 -89zM516 -2v70h-103q-30 0 -50 5q-21 6 -32 17q-12 12 -18 32q-6 21 -6 50v287h209v67h-209v175q-17 -6 -46 -18t-46 -18v-139h-149v-67h149v-287q0 -48 10 -82q11 -34 32 -53q22 -19 58 -29
q37 -10 88 -10h113z" />
    <glyph glyph-name="uni0166" unicode="&#x166;" 
d="M258 0h101v271h133v80h-133v271h234v79h-569v-79h234v-271h-132v-80h132v-271z" />
    <glyph glyph-name="uni0167" unicode="&#x167;" 
d="M516 -2v70h-103q-30 0 -50 5q-21 6 -32 17q-12 12 -18 32q-6 21 -6 50v111h115v66h-115v110h209v67h-209v175q-17 -6 -46 -16t-46 -16v-143h-149v-67h149v-110h-115v-66h115v-111q0 -48 10 -82q11 -34 32 -53q22 -19 58 -29q37 -10 88 -10h113z" />
    <glyph glyph-name="uni0168" unicode="&#x168;" 
d="M206 768v2q0 11 2 19q3 8 8 14t12 9q6 3 15 3q6 0 15 -3t20 -9q14 -8 18 -10q3 -2 10 -6q12 -5 22 -9q9 -4 17 -6t16 -3t16 -1q23 0 41 7q17 6 29 21q13 14 19 33q6 18 7 41h-62v-3q0 -10 -3 -17q-2 -7 -8 -13q-5 -7 -11 -10q-7 -3 -14 -3t-16 3t-20 10q-15 7 -18 8
q-4 1 -11 5q-9 5 -17 8q-9 4 -17 7q-7 3 -16 4t-19 1q-24 0 -42 -7q-18 -6 -30 -20t-19 -33q-7 -18 -7 -42h63zM403 0q20 6 39 16q18 10 35 24t30 33q14 19 21 44q4 12 7 26q2 14 4 32q1 18 2 41q2 23 2 53v432h-102v-476v-43q-1 -19 -3 -29q0 -6 -1 -11q-1 -4 -3 -9
q-1 -4 -3 -7q-1 -3 -3 -6q-7 -13 -18 -24t-27 -18t-35 -11q-18 -4 -40 -4q-21 0 -40 4q-18 3 -34 10q-14 7 -24 15q-10 9 -16 20q-7 10 -10 21q-4 11 -6 21q-1 10 -2 29q-1 18 -1 43v475h-101v-432v-53q1 -23 3 -41q1 -18 4 -32t7 -25q4 -12 8 -22t10 -20q7 -10 14 -19
q8 -8 17 -16q16 -13 34 -23t40 -17q21 -7 46 -11q25 -3 52 -3q26 0 49 3t45 10z" />
    <glyph glyph-name="uni0169" unicode="&#x169;" 
d="M206 591q1 19 3 33q1 14 6 22q5 9 12 13q6 5 16 5q7 0 16 -5t19 -14q14 -13 18 -16q3 -3 10 -9q17 -15 35 -22q17 -7 35 -7q24 0 41 9q18 9 30 27q13 17 19 41q7 24 7 55h-62q0 -18 -3 -32q-2 -14 -7 -23q-4 -9 -11 -13q-7 -5 -16 -5q-4 0 -7 2l-8 2l-9 6q-5 3 -11 9
q-15 13 -18 16q-4 3 -11 9q-17 15 -34 22q-18 7 -35 7q-24 0 -42 -9q-18 -8 -30 -26t-19 -42t-7 -55h63zM433 79q2 -15 5 -40q3 -24 4 -39h83v525h-92v-297q0 -40 -9 -71t-26 -53q-17 -21 -41 -32q-25 -11 -58 -11q-28 0 -49 9q-21 8 -34 25t-20 43t-7 62v325h-92v-325
q0 -107 43 -160t127 -53q59 0 100 23q42 23 66 69z" />
    <glyph glyph-name="uni016a" unicode="&#x16a;" 
d="M159 776h299v70h-299v-70zM403 0q20 6 39 16q18 10 35 24t30 33q14 19 21 44q4 12 7 26q2 14 4 32q1 18 2 41q2 23 2 53v432h-102v-476v-43q-1 -19 -3 -29q0 -6 -1 -11q-1 -4 -3 -9q-1 -4 -3 -7q-1 -3 -3 -6q-7 -13 -18 -24t-27 -18t-35 -11q-18 -4 -40 -4q-21 0 -40 4
q-18 3 -34 10q-14 7 -24 15q-10 9 -16 20q-7 10 -10 21q-4 11 -6 21q-1 10 -2 29q-1 18 -1 43v475h-101v-432v-53q1 -23 3 -41q1 -18 4 -32t7 -25q4 -12 8 -22t10 -20q7 -10 14 -19q8 -8 17 -16q16 -13 34 -23t40 -17q21 -7 46 -11q25 -3 52 -3q26 0 49 3t45 10z" />
    <glyph glyph-name="uni016b" unicode="&#x16b;" 
d="M159 620h299v69h-299v-69zM433 79q2 -15 5 -40q3 -24 4 -39h83v525h-92v-297q0 -40 -9 -71t-26 -53q-17 -21 -41 -32q-25 -11 -58 -11q-28 0 -49 9q-21 8 -34 25t-20 43t-7 62v325h-92v-325q0 -107 43 -160t127 -53q59 0 100 23q42 23 66 69z" />
    <glyph glyph-name="uni016c" unicode="&#x16c;" 
d="M406 860q-8 -26 -32 -39t-65 -13q-43 0 -67 13q-25 13 -31 39h-59q5 -57 44 -85q40 -29 112 -29q73 0 112 29q40 28 45 85h-59zM480 41q16 13 26 28q11 15 17 31t9 33q4 17 7 36q2 19 3 44q1 26 1 56v432h-102v-476v-43q-1 -19 -3 -29q-3 -24 -14 -41q-10 -17 -29 -28
q-18 -11 -40 -16q-21 -5 -47 -5q-21 0 -39 4q-18 3 -31 10q-14 6 -25 14q-11 7 -17 17q-7 9 -12 19q-4 11 -6 24q-1 10 -2 29t-1 46v475h-101v-432q0 -54 3 -92q3 -39 11 -60q9 -25 20 -44q12 -19 28 -32t34 -23q19 -10 43 -18q22 -7 46 -10q25 -3 49 -3q27 0 52 3
q24 4 46 11t40 17q19 10 34 23z" />
    <glyph glyph-name="uni016d" unicode="&#x16d;" 
d="M409 744q-7 -35 -31 -52t-67 -17t-68 17q-24 17 -29 52h-59q5 -67 45 -100q39 -34 111 -34q73 0 113 34q40 33 45 100h-60zM442 0h83v525h-92v-297q0 -40 -9 -71t-26 -53q-17 -21 -42 -32t-57 -11q-28 0 -49 9q-21 8 -34 25q-14 16 -20 42q-7 27 -7 63v325h-92v-325
q0 -107 43 -160t127 -53q58 0 99 23q42 23 67 69q2 -15 5 -40q3 -24 4 -39z" />
    <glyph glyph-name="uni016e" unicode="&#x16e;" 
d="M383 653q16 9 28 20q12 12 21 26q9 15 14 31t5 35q0 18 -5 34t-14 30q-9 15 -21 27q-13 12 -28 21q-15 8 -33 12q-17 5 -37 5q-19 0 -36 -5q-17 -4 -33 -12q-16 -9 -28 -21t-21 -27q-10 -14 -14 -30q-5 -16 -5 -34q0 -19 4 -35t14 -31q9 -14 22 -26q12 -11 28 -20
q15 -8 33 -13q17 -4 36 -4q20 0 37 4q18 5 33 13zM259 714q-11 10 -16 23t-5 28t5 28q5 12 16 22t25 15q13 6 29 6t30 -6q13 -5 24 -15q10 -10 16 -23q6 -12 6 -27t-6 -28t-16 -23q-11 -11 -24 -16q-14 -5 -30 -5t-29 5q-14 6 -25 16zM403 0q20 6 39 16q18 10 35 24t30 33
q14 19 21 44q4 12 7 26q2 14 4 32q1 18 2 41q2 23 2 53v432h-102v-476v-43q-1 -19 -3 -29q0 -6 -1 -11q-1 -4 -3 -9q-1 -4 -3 -7q-1 -3 -3 -6q-7 -13 -18 -24t-27 -18t-35 -11q-18 -4 -40 -4q-21 0 -40 4q-18 3 -34 10q-14 7 -24 15q-10 9 -16 20q-7 10 -10 21q-4 11 -6 21
q-1 10 -2 29q-1 18 -1 43v475h-101v-432v-53q1 -23 3 -41q1 -18 4 -32t7 -25q4 -12 8 -22t10 -20q7 -10 14 -19q8 -8 17 -16q16 -13 34 -23t40 -17q21 -7 46 -11q25 -3 52 -3q26 0 49 3t45 10z" />
    <glyph glyph-name="uni016f" unicode="&#x16f;" 
d="M386 584q15 8 28 20q12 11 21 26q9 14 14 31q4 16 4 34t-4 34q-5 16 -14 31q-9 14 -21 26q-13 12 -28 21q-15 8 -33 13q-17 4 -37 4q-19 0 -36 -4q-18 -5 -34 -13q-16 -9 -28 -21t-21 -26q-10 -15 -14 -31q-5 -16 -5 -34t5 -34q4 -17 14 -31q9 -15 21 -26q12 -12 28 -20
q15 -9 33 -13q18 -5 37 -5q20 0 37 5q18 4 33 13zM262 644q-11 10 -16 23q-6 13 -6 28q0 16 6 28q5 12 16 22t24 16q13 5 29 5q17 0 30 -5q14 -6 25 -16q10 -10 16 -22q5 -13 5 -28q0 -14 -5 -27q-6 -13 -16 -24q-11 -11 -25 -16q-13 -4 -30 -4q-16 0 -29 5t-24 15zM433 79
q2 -15 5 -40q3 -24 4 -39h83v525h-92v-297q0 -40 -9 -71t-26 -53q-17 -21 -41 -32q-25 -11 -58 -11q-28 0 -49 9q-21 8 -34 25t-20 43t-7 62v325h-92v-325q0 -107 43 -160t127 -53q59 0 100 23q42 23 66 69z" />
    <glyph glyph-name="uni0170" unicode="&#x170;" 
d="M172 746h77q21 24 57 62q36 39 58 62h-94q-18 -23 -49 -62q-31 -38 -49 -62zM332 746h77q21 24 57 62q36 39 57 62h-93q-18 -23 -49 -62q-31 -38 -49 -62zM403 0q20 6 39 16q18 10 35 24t30 33q14 19 21 44q4 12 7 26q2 14 4 32q1 18 2 41q2 23 2 53v432h-102v-476v-43
q-1 -19 -3 -29q0 -6 -1 -11q-1 -4 -3 -9q-1 -4 -3 -7q-1 -3 -3 -6q-7 -13 -18 -24t-27 -18t-35 -11q-18 -4 -40 -4q-21 0 -40 4q-18 3 -34 10q-14 7 -24 15q-10 9 -16 20q-7 10 -10 21q-4 11 -6 21q-1 10 -2 29q-1 18 -1 43v475h-101v-432v-53q1 -23 3 -41q1 -18 4 -32
t7 -25q4 -12 8 -22t10 -20q7 -10 14 -19q8 -8 17 -16q16 -13 34 -23t40 -17q21 -7 46 -11q25 -3 52 -3q26 0 49 3t45 10z" />
    <glyph glyph-name="uni0171" unicode="&#x171;" 
d="M172 596h69q20 33 55 89q36 55 56 88h-85q-17 -33 -47 -88q-30 -56 -48 -89zM332 596h67q23 33 62 89q39 55 62 88h-89q-19 -33 -51 -88q-32 -56 -51 -89zM433 79q2 -15 5 -40q3 -24 4 -39h83v525h-92v-297q0 -40 -9 -71t-26 -53q-17 -21 -41 -32q-25 -11 -58 -11
q-28 0 -49 9q-21 8 -34 25t-20 43t-7 62v325h-92v-325q0 -107 43 -160t127 -53q59 0 100 23q42 23 66 69z" />
    <glyph glyph-name="uni0172" unicode="&#x172;" 
d="M441 701v-476v-43q-1 -19 -3 -29q0 -6 -1 -11q-1 -4 -3 -9q-1 -4 -3 -7q-1 -3 -3 -6q-7 -13 -18 -24t-27 -18t-35 -11q-18 -4 -40 -4q-21 0 -40 4q-18 3 -34 10q-14 7 -24 15q-10 9 -16 20q-7 10 -10 21q-4 11 -6 21q-1 10 -2 29q-1 18 -1 43v475h-101v-432v-53
q1 -23 3 -41q1 -18 4 -32t7 -25q4 -12 8 -22t10 -20q7 -10 14 -19q8 -8 17 -16q13 -11 28 -19q15 -9 32 -16t36 -11q20 -5 41 -6q-14 -16 -24 -29q-10 -14 -16 -26q-5 -11 -7 -23q-3 -12 -3 -23q0 -20 8 -36q7 -15 22 -25t36 -15q21 -6 49 -6q9 0 18 1t17 2q7 0 17 3
q9 2 20 5v62q-16 -7 -31 -10q-16 -4 -32 -4q-27 0 -41 10q-13 10 -13 31q0 7 2 16q1 8 6 18q5 9 13 21t19 27q18 0 36 4q17 3 33 8q20 6 39 16q18 10 35 24t30 33q14 19 21 44q4 12 7 26q2 14 4 32q1 18 2 41q2 23 2 53v432h-102z" />
    <glyph glyph-name="uni0173" unicode="&#x173;" 
d="M483 -86q0 8 2 17t8 19q5 10 13 22q9 13 21 28l-2 -1v525h-92v-297q0 -40 -9 -71t-26 -53q-17 -21 -41 -32q-25 -11 -58 -11q-28 0 -49 9q-21 8 -34 25t-20 43t-7 62v325h-92v-325q0 -107 43 -160t127 -53q59 0 100 23q42 23 66 69v-79h35q-15 -16 -26 -30t-17 -26
q-6 -13 -9 -24q-2 -12 -2 -23q0 -21 7 -37q8 -16 22 -26q15 -10 36 -15q22 -4 49 -4h19q9 1 16 2q8 0 17 2q9 3 20 5v62q-15 -7 -31 -10q-16 -4 -31 -4q-28 0 -41 11q-14 10 -14 31v1z" />
    <glyph glyph-name="uni0174" unicode="&#x174;" 
d="M156 745h69l42 42q26 27 41 42q16 -15 42 -42q26 -26 41 -42h70q-20 24 -53 63t-53 62h-94q-20 -23 -53 -62q-32 -39 -52 -63zM112 0h95q7 27 15 63l19 76q18 73 36 150q19 77 31 128q13 -51 31 -128q19 -77 37 -150q9 -40 18 -76t16 -63h95q13 85 34 214q20 129 40 254
q11 67 21 127q9 60 16 106h-98q-8 -69 -22 -174q-13 -105 -26 -206q-7 -55 -13 -104t-11 -86q-5 25 -13 57q-7 33 -15 69q-15 67 -31 136q-16 70 -27 116h-105q-11 -46 -26 -115q-16 -70 -31 -136q-8 -36 -15 -69q-7 -32 -13 -57q-5 37 -11 86t-13 104q-13 101 -26 205
q-13 105 -22 174h-98q7 -46 17 -106q9 -60 20 -127q20 -125 41 -254q20 -129 34 -214z" />
    <glyph glyph-name="uni0175" unicode="&#x175;" 
d="M148 597h70q17 21 45 58q28 36 45 58q17 -22 45 -58q28 -37 45 -58h70q-23 33 -61 89q-39 55 -62 88h-74q-23 -33 -61 -88q-38 -56 -62 -89zM131 0h88q6 19 14 44q7 24 16 52q16 51 32 104q16 54 27 89q6 -19 14 -44q7 -25 16 -52q16 -51 32 -105q16 -53 27 -88h88
q9 35 20 80t24 95q23 93 47 190t40 161h-91q-6 -28 -15 -64q-8 -37 -17 -77q-17 -76 -35 -154l-30 -130q-5 18 -12 42q-7 23 -15 49q-14 48 -29 98t-25 83h-79q-5 -18 -12 -41q-7 -24 -14 -50q-15 -48 -29 -98q-15 -50 -25 -83q-12 52 -29 130q-18 78 -35 154q-10 40 -18 77
q-8 36 -15 64h-91q9 -34 20 -80q11 -45 24 -95q23 -93 47 -190t40 -161z" />
    <glyph glyph-name="uni0176" unicode="&#x176;" 
d="M156 745h69l42 42q26 27 41 42q16 -15 42 -42q26 -26 41 -42h70q-20 24 -53 63t-53 62h-94q-20 -23 -53 -62q-32 -39 -52 -63zM257 0h101v315q16 26 37 59q20 33 43 70q43 68 87 139q44 72 73 118h-109q-11 -20 -27 -46q-15 -27 -33 -57q-32 -54 -65 -111
q-34 -57 -56 -95q-12 21 -27 47q-16 27 -33 56q-33 55 -66 112q-34 56 -56 94h-108q16 -25 37 -58q20 -33 43 -70q42 -69 86 -140t73 -118v-315z" />
    <glyph glyph-name="uni0177" unicode="&#x177;" 
d="M155 597h69q17 21 45 58q28 36 45 58q17 -22 45 -58q29 -37 45 -58h70q-23 33 -61 89q-39 55 -62 88h-73q-24 -33 -62 -88q-38 -56 -61 -89zM92 -201h74q25 0 46 5q21 6 37 15t30 23q13 13 24 31q6 9 13 22t14 30t17 42q11 25 24 58q5 13 9 24q5 10 7 17q2 6 5 13
q2 7 4 12q3 6 5 12q3 7 7 16q3 8 9 21q5 12 12 29q10 23 22 54q13 31 27 65q26 63 53 129q28 66 46 109h-98q-11 -27 -25 -62t-29 -75q-29 -73 -59 -148q-31 -76 -51 -126q-11 27 -25 62q-14 36 -30 75q-29 73 -60 149l-50 125h-98q14 -34 32 -75q17 -41 36 -87
q36 -84 74 -178q39 -93 74 -178q-10 -25 -18 -44q-9 -20 -16 -33q-6 -13 -13 -22q-6 -9 -11 -14t-12 -9q-6 -5 -14 -8q-7 -3 -17 -4q-9 -2 -21 -2h-54v-73z" />
    <glyph glyph-name="Ydieresis" unicode="&#x178;" 
d="M246 775q7 0 11 4t4 11v66q0 7 -4 11q-4 3 -11 3h-72q-8 0 -11 -3q-3 -4 -3 -11v-66q0 -7 3 -11t11 -4h72zM441 775q8 0 12 4t4 11v66q0 7 -4 11q-4 3 -12 3h-70q-8 0 -12 -3q-4 -4 -4 -11v-66q0 -7 4 -11t12 -4h70zM257 0h101v315q16 26 37 59q20 33 43 70q43 68 87 139
q44 72 73 118h-109q-11 -20 -27 -46q-15 -27 -33 -57q-32 -54 -65 -111q-34 -57 -56 -95q-12 21 -27 47q-16 27 -33 56q-33 55 -66 112q-34 56 -56 94h-108q16 -25 37 -58q20 -33 43 -70q42 -69 86 -140t73 -118v-315z" />
    <glyph glyph-name="uni0179" unicode="&#x179;" 
d="M228 746h77q22 24 57 62q36 39 58 62h-93q-19 -23 -49 -62q-31 -38 -50 -62zM55 0h506v80h-400q47 67 119 168t141 199q37 52 71 100q33 47 59 83v71h-485v-79h368q-25 -36 -57 -84q-33 -47 -69 -99q-67 -98 -137 -199q-69 -100 -116 -167v-73z" />
    <glyph glyph-name="uni017a" unicode="&#x17a;" 
d="M281 598h76q20 21 50 54t59 64q15 17 29 32q14 16 25 27h-99q-9 -11 -21 -27q-12 -15 -26 -32q-25 -31 -51 -64q-25 -33 -42 -54zM101 0h419v71h-321q21 24 48 57q28 32 59 68q57 67 116 137t98 116v78h-406v-68h309q-21 -25 -49 -58q-27 -32 -58 -68q-57 -68 -116 -137
q-60 -70 -99 -116v-80z" />
    <glyph glyph-name="uni017b" unicode="&#x17b;" 
d="M346 774q8 0 12 4q3 4 3 10v68q0 7 -3 11q-4 3 -12 3h-73q-7 0 -11 -3q-4 -4 -4 -11v-68q0 -6 4 -10t11 -4h73zM55 0h506v80h-400q47 67 119 168t141 199q37 52 71 100q33 47 59 83v71h-485v-79h368q-25 -36 -57 -84q-33 -47 -69 -99q-67 -98 -137 -199
q-69 -100 -116 -167v-73z" />
    <glyph glyph-name="uni017c" unicode="&#x17c;" 
d="M344 622q8 0 12 3q3 4 3 11v67q0 7 -3 11q-4 3 -12 3h-73q-7 0 -11 -3q-4 -4 -4 -11v-67q0 -7 4 -11q4 -3 11 -3h73zM101 0h419v71h-321q21 24 48 57q28 32 59 68q57 67 116 137t98 116v78h-406v-68h309q-21 -25 -49 -58q-27 -32 -58 -68q-57 -68 -116 -137
q-60 -70 -99 -116v-80z" />
    <glyph glyph-name="Zcaron" unicode="&#x17d;" 
d="M238 745h95q20 24 53 63q32 39 52 62h-70q-16 -15 -42 -42q-26 -26 -41 -42q-16 16 -41 42q-26 27 -41 42h-71q20 -23 53 -62t53 -63zM55 0h506v80h-400q47 67 119 168t141 199q37 52 71 100q33 47 59 83v71h-485v-79h368q-25 -36 -57 -84q-33 -47 -69 -99
q-67 -98 -137 -199q-69 -100 -116 -167v-73z" />
    <glyph glyph-name="zcaron" unicode="&#x17e;" 
d="M271 598h74q23 33 62 89q38 55 61 88h-70q-17 -21 -45 -58q-28 -36 -45 -58q-17 22 -45 58q-28 37 -45 58h-70q24 -33 62 -88q38 -56 61 -89zM101 0h419v71h-321q21 24 48 57q28 32 59 68q57 67 116 137t98 116v78h-406v-68h309q-21 -25 -49 -58q-27 -32 -58 -68
q-57 -68 -116 -137q-60 -70 -99 -116v-80z" />
    <glyph glyph-name="uni017f" unicode="&#x17f;" 
d="M283 -127h92v700q0 25 5 42q4 16 14 26q5 5 11 8q5 3 14 5q8 3 19 4t25 1h104v72h-110q-44 0 -77 -10q-34 -10 -55 -31q-22 -20 -32 -51q-10 -32 -10 -76v-37h-170v-67h170v-586z" />
    <glyph glyph-name="florin" unicode="&#x192;" 
d="M246 -146q13 13 23 32q11 19 20 42t16 49q6 27 11 56q4 19 8 45t9 54q9 54 18 109q10 54 16 91h163v66h-151q4 28 10 69q7 41 12 78q5 30 14 53q10 22 24 37q7 7 16 12q8 6 18 9q10 4 21 6q10 3 23 3q6 0 13 -1q6 -1 12 -1q5 -1 10 -3q5 -1 9 -3q6 -1 10 -3q5 -3 11 -6
q5 -3 10 -5l8 -6v78q-13 4 -26 7t-24 5q-12 2 -25 3q-12 1 -24 1q-38 0 -69 -12q-31 -11 -55 -35q-12 -11 -22 -25t-18 -30t-13 -35q-6 -19 -10 -40l-24 -156h-137v-66h126q-11 -61 -28 -152q-16 -91 -31 -172q-7 -36 -18 -63q-10 -26 -25 -43q-14 -17 -34 -26t-46 -9
q-12 0 -24 2q-12 1 -24 5l-12 4q-5 2 -11 5q-7 3 -13 7q-6 3 -13 7v-77q12 -6 23 -9q12 -4 25 -7q12 -2 26 -3q14 -2 27 -2q48 0 84 14t61 41z" />
    <glyph glyph-name="uni01a0" unicode="&#x1a0;" 
d="M519 732q8 -14 11 -29q4 -15 4 -29q0 -26 -11 -39q-10 -13 -33 -13q-6 0 -14 1q-8 2 -15 5q-8 3 -17 8q-10 4 -21 11q-30 34 -72 51q-43 17 -98 17q-63 0 -110 -23q-48 -22 -78 -67q-31 -46 -47 -115q-15 -69 -15 -161t15 -160q16 -69 47 -113q30 -45 77 -67t110 -22
q125 0 188 90q63 91 63 273q0 65 -8 118t-23 94q9 -3 19 -4q9 -2 18 -2q22 0 38 7q17 8 27 22q11 14 17 33q5 20 5 47q0 8 -1 16q-1 9 -2 16q-1 8 -3 17q-1 8 -4 18h-67zM253 63q-38 0 -66 17t-45 50q-17 34 -25 89t-8 131q0 77 8 132q8 56 25 89t45 50q28 16 66 16t66 -16
q28 -17 45 -50q16 -32 25 -87q8 -55 8 -134q0 -78 -8 -133q-9 -55 -25 -87q-17 -33 -45 -50t-66 -17z" />
    <glyph glyph-name="uni01a1" unicode="&#x1a1;" 
d="M524 535q8 -15 12 -30q4 -14 4 -29q0 -26 -11 -39t-33 -13q-9 0 -19 2q-9 3 -19 7q-30 53 -80 79q-51 27 -122 27q-58 0 -103 -18q-44 -18 -75 -53t-46 -87q-16 -51 -16 -119q0 -67 15 -119q15 -51 46 -87q31 -35 76 -52t103 -17t103 17q44 18 75 53q31 36 46 87
q16 51 16 118q0 28 -3 53q-2 25 -8 47l8 -2q3 -1 7 -1h14q22 0 39 7q16 7 27 21q10 14 16 34q5 20 5 46q0 8 -1 17q0 8 -1 16q-1 7 -3 16t-5 19h-67zM114 263q0 102 36 152q35 51 106 51t107 -51q35 -50 35 -152q0 -101 -35 -152q-36 -52 -107 -52t-106 52q-36 51 -36 152z
" />
    <glyph glyph-name="uni01a4" unicode="&#x1a4;" 
d="M142 0h101v282h117q63 0 111 13q47 13 79 40t48 66t16 91t-16 91t-48 65q-33 27 -80 40t-110 13h-218q-20 0 -39 -3q-18 -4 -34 -11q-33 -15 -50 -42t-17 -65v-54h88q0 49 13 73q13 25 39 25v-624zM243 360v264h117q36 0 63 -9t46 -26t30 -41q10 -25 10 -55
q0 -32 -10 -56t-30 -42q-20 -17 -47 -26q-26 -9 -62 -9h-117z" />
    <glyph glyph-name="uni01af" unicode="&#x1af;" 
d="M536 733q7 -14 11 -28q4 -15 4 -29q0 -26 -11 -39t-33 -13q-7 0 -16 1q-9 2 -18 6v70h-100v-476q0 -25 -1 -43q-1 -19 -2 -29q-1 -6 -2 -11q-1 -4 -2 -9q-2 -4 -4 -7q-1 -3 -3 -6q-6 -13 -18 -24t-28 -18t-34 -11q-19 -4 -40 -4q-22 0 -40 4q-18 3 -33 10t-25 15
q-11 9 -17 20q-6 10 -10 21t-5 21q-2 10 -2 29q-1 18 -1 43v475h-102v-432q0 -29 1 -53q2 -23 3 -41q2 -18 5 -32t6 -25q4 -12 9 -22q4 -10 10 -20t13 -19q7 -8 17 -16q15 -13 33 -23q19 -10 40 -17q22 -7 47 -11q25 -3 52 -3q25 0 49 3t46 10q20 6 38 16q19 10 36 24
q16 14 29 33t21 44q4 12 7 26q2 14 4 32t2 41q1 23 1 53v301q7 -3 14 -5t13 -4q6 -1 13 -2q6 -1 12 -1q23 0 39 7t27 21t16 34q5 21 5 47q0 8 -1 16q-1 9 -2 16q0 8 -2 16t-5 18h-66z" />
    <glyph glyph-name="uni01b0" unicode="&#x1b0;" 
d="M520 535q8 -15 12 -30q4 -14 4 -29q0 -26 -11 -39t-33 -13q-10 0 -21 3q-10 3 -24 9v89h-92v-297q0 -40 -9 -71t-25 -53q-17 -21 -42 -32t-58 -11q-27 0 -49 9q-21 8 -34 25t-20 43q-6 26 -6 62v325h-93v-325q0 -107 43 -160t127 -53q59 0 100 23q42 23 66 69
q2 -15 4 -40q3 -24 5 -39h83v377q17 -9 32 -13q16 -5 31 -5q22 0 38 7q17 7 27 21q11 14 17 34q5 20 5 46q0 8 -1 17q0 8 -1 16q-1 7 -3 16t-5 19h-67z" />
    <glyph glyph-name="uni01e6" unicode="&#x1e6;" 
d="M306 745h94q20 24 53 63t53 62h-70q-15 -15 -41 -42l-42 -42q-15 16 -41 42q-26 27 -42 42h-69q20 -23 52 -62q33 -39 53 -63zM552 57v303h-205v-78h109v-189q-20 -15 -46 -22q-26 -8 -58 -8q-50 0 -87 18q-36 18 -60 52q-24 35 -36 88q-12 54 -12 126q0 73 11 128
q12 54 37 90q24 36 61 54t87 18q24 0 46 -4q23 -4 44 -12q22 -9 43 -22q20 -13 40 -32v98q-20 13 -40 21q-21 9 -43 15q-21 7 -44 10q-23 4 -48 4q-47 0 -87 -12q-40 -11 -74 -32q-33 -22 -59 -53q-26 -32 -44 -72q-18 -41 -27 -90t-9 -107q0 -86 20 -153q20 -66 59 -114
t94 -72q56 -23 126 -23q60 0 111 17q50 17 91 53z" />
    <glyph glyph-name="uni01e7" unicode="&#x1e7;" 
d="M286 609h73q23 33 62 89q38 55 61 88h-69q-17 -21 -46 -57q-29 -37 -45 -58q-17 21 -45 58q-28 36 -45 57h-69q23 -33 61 -88q39 -56 62 -89zM535 34v490h-83q-2 -13 -4 -32q-2 -18 -5 -35q-22 41 -60 61q-38 21 -90 21q-34 0 -63 -8q-28 -8 -53 -25q-24 -17 -43 -40
q-20 -24 -33 -54q-13 -31 -19 -67q-6 -35 -6 -77q0 -41 7 -77q6 -36 19 -67t32 -54t43 -40q25 -17 54 -26q29 -8 62 -8q54 0 91 22q38 22 59 66v-62t-8 -72q-9 -30 -25 -49q-17 -20 -44 -29t-63 -9q-18 0 -37 2t-39 7t-42 14q-21 8 -47 19v-86q43 -13 83 -20q41 -6 79 -6
q118 0 176 60q59 60 59 181zM208 119q-18 25 -27 63q-9 37 -9 86t9 86q9 36 27 62q18 25 43 38q25 12 58 12q67 0 101 -50q33 -50 33 -149q0 -49 -8 -86q-9 -37 -25 -62q-17 -26 -42 -38t-58 -12t-59 12q-25 12 -43 38z" />
    <glyph glyph-name="uni01fe" unicode="&#x1fe;" 
d="M247 749h77q21 23 57 61q36 39 57 62h-93q-18 -23 -49 -62q-31 -38 -49 -61zM55 -33q13 18 34 45q20 27 38 50q31 -38 75 -57q45 -18 104 -18q64 0 111 22q48 22 79 68q30 45 46 113t16 159q0 39 -2 74q-3 34 -8 64q-6 30 -13 55q-8 25 -19 44q16 20 42 56t42 56
q-9 7 -25 18t-25 17q-13 -17 -33 -44q-19 -27 -37 -51q-28 38 -71 58q-43 19 -102 19q-124 0 -186 -92q-63 -92 -63 -274q0 -37 3 -70q2 -34 7 -65q4 -31 11 -55q7 -23 14 -40q-17 -22 -44 -60q-28 -37 -45 -59q10 -6 26 -16q15 -11 25 -17zM169 221q-2 16 -4 40
q-1 25 -1 60q0 43 2 80q1 37 5 68t11 55q6 25 16 44q7 16 18 29t24 23q13 9 29 13q17 4 38 4q23 0 42 -5q18 -6 32 -16t24 -24t16 -33q-84 -113 -252 -338zM185 142q32 43 57 76t44 59q17 23 30 41q14 18 25 33q26 36 47 63q21 28 54 73q3 -10 4 -24q2 -13 4 -29
q1 -16 2 -35q1 -20 1 -44q0 -44 -3 -80q-2 -35 -7 -61q-4 -26 -10 -47q-7 -21 -14 -37q-17 -33 -45 -50q-27 -17 -65 -17q-45 0 -76 20t-48 59z" />
    <glyph glyph-name="uni01ff" unicode="&#x1ff;" 
d="M238 609h76q20 22 50 54q30 33 59 65q15 16 29 32q14 15 25 26h-99q-9 -11 -21 -26q-12 -16 -26 -32q-25 -32 -51 -65q-25 -32 -42 -54zM70 -45q15 16 37 41q23 24 43 46q28 -28 68 -41q40 -14 90 -14q59 0 103 17q45 17 75 52q31 36 46 87q16 52 16 120q0 58 -11 102
q-11 45 -32 76q15 17 41 46q25 30 41 47q-9 6 -23 17q-15 11 -23 18q-14 -15 -35 -38t-39 -44q-29 27 -69 39q-39 13 -89 13q-58 0 -103 -18t-76 -53t-46 -86t-15 -118q0 -55 10 -100q10 -44 30 -79q-17 -18 -43 -47q-26 -30 -42 -47q8 -7 23 -18q14 -11 23 -18zM178 160
q-4 17 -6 31q-3 15 -4 29q-2 14 -3 28q-1 13 -1 26q0 46 10 81q9 35 28 61q18 25 45 38q27 12 62 12q16 0 30 -3q14 -2 27 -7q12 -6 23 -14q10 -9 20 -20q-29 -33 -51 -58t-39 -44q-16 -18 -28 -32q-12 -13 -22 -25q-24 -27 -42 -48q-19 -21 -49 -55zM207 103q29 33 51 59
q22 25 39 44q16 17 28 31t22 26q24 26 42 48q19 21 49 56q3 -14 6 -27q2 -14 3 -27q2 -13 3 -26q1 -14 1 -28q0 -48 -10 -85q-9 -36 -26 -62q-18 -26 -45 -40q-27 -13 -63 -13q-32 0 -57 11t-43 33z" />
    <glyph glyph-name="uni0218" unicode="&#x218;" 
d="M483 39q33 26 50 65q16 39 16 90q0 41 -12 74q-11 32 -35 58q-24 25 -62 43q-39 18 -92 29q-27 6 -33 7q-7 2 -20 5q-37 7 -62 17q-26 11 -39 24q-14 13 -21 29t-7 37q0 29 11 52q10 22 31 37q21 16 48 23q28 8 63 8q47 0 94 -14t93 -41v96q-52 18 -100 28q-48 9 -91 9
q-37 0 -70 -7q-32 -7 -60 -20q-27 -13 -48 -31t-37 -41q-15 -23 -23 -51q-7 -28 -7 -59q0 -37 11 -66q12 -30 35 -52t61 -39t90 -28q27 -7 34 -8t21 -4q36 -8 62 -19q25 -11 40 -25t22 -32q7 -19 7 -43q0 -31 -11 -55q-10 -24 -31 -40q-22 -16 -51 -24q-30 -8 -68 -8
q-51 0 -104 17q-54 17 -109 50v-101q27 -11 53 -19q27 -8 53 -13t53 -8q27 -2 55 -2q62 0 110 13q47 13 80 39zM204 -255h74q17 31 46 81q29 51 47 82h-120q-9 -31 -24 -82q-15 -50 -23 -81z" />
    <glyph glyph-name="uni0219" unicode="&#x219;" 
d="M456 31q29 22 44 52t15 70q0 59 -35 96q-35 36 -104 48q-12 2 -37 6q-22 4 -40 8q-18 5 -33 8q-14 4 -25 9q-11 4 -17 9q-11 8 -17 21q-5 13 -5 31q0 39 30 58q30 20 91 20q22 0 43 -3t41 -8q19 -6 39 -14q20 -7 40 -18v84q-40 15 -82 23t-85 8q-51 0 -90 -10t-66 -30
q-27 -21 -41 -50q-13 -30 -13 -68q0 -29 8 -52q9 -24 26 -41q18 -18 48 -30q29 -13 70 -20q6 -2 18 -4q11 -1 17 -3h1q1 -1 2 -1q33 -7 57 -15t38 -18q14 -11 21 -24q7 -14 7 -30q0 -18 -9 -34q-8 -16 -25 -27q-17 -12 -40 -18t-54 -6q-42 0 -89 13t-99 38v-90q27 -8 52 -14
t47 -10t45 -6q22 -2 44 -2q51 0 92 11q40 10 70 33zM204 -255h74q17 31 46 81q29 51 47 82h-120q-9 -31 -24 -82q-15 -50 -23 -81z" />
    <glyph glyph-name="uni021a" unicode="&#x21a;" 
d="M359 622h234v79h-569v-79h234v-622h33q12 -16 21 -29q9 -12 14 -22q4 -10 7 -19q2 -9 2 -16q0 -22 -16 -32q-15 -10 -48 -10q-9 0 -19 1q-10 2 -20 3q-10 2 -18 5q-9 3 -16 6v-61q22 -5 44 -8q21 -3 43 -3q60 0 90 20q29 20 29 62q0 13 -3 25q-4 12 -10 25q-6 12 -16 25
t-25 28h9v622z" />
    <glyph glyph-name="uni021b" unicode="&#x21b;" 
d="M516 459v67h-209v175q-17 -6 -46 -18t-46 -18v-139h-149v-67h149v-287q0 -48 10 -82q11 -34 32 -53q16 -15 41 -24q26 -9 59 -13q11 -15 18 -26q7 -12 12 -20q5 -9 6 -17q2 -8 2 -15q0 -21 -15 -32q-16 -10 -48 -10q-9 0 -19 1l-20 2q-10 2 -19 5q-8 3 -16 7v-62
q22 -5 44 -8t43 -3q60 0 90 20t30 62q0 12 -3 24q-3 11 -8 22q-6 11 -14 23q-9 12 -21 25h97v70h-103q-30 0 -50 5q-21 6 -32 17q-12 12 -18 32q-6 21 -6 50v287h209z" />
    <glyph glyph-name="circumflex" unicode="&#x2c6;" 
d="M345 770h-74q-23 -33 -61 -89q-38 -55 -62 -88h70q17 21 45 58q28 36 45 58q17 -22 45 -58q28 -37 45 -58h70q-23 33 -61 88q-39 56 -62 89z" />
    <glyph glyph-name="caron" unicode="&#x2c7;" 
d="M148 770q24 -33 62 -89q38 -55 61 -88h74q23 33 62 88q38 56 61 89h-70q-17 -21 -45 -58q-28 -36 -45 -58q-17 22 -45 58q-28 37 -45 58h-70z" />
    <glyph glyph-name="breve" unicode="&#x2d8;" 
d="M152 756q5 -68 44 -102q40 -33 112 -33q36 0 64 8t48 25t31 43q11 25 14 59h-59q-4 -18 -12 -32q-7 -13 -19 -22q-12 -8 -29 -12q-16 -5 -38 -5t-39 5q-17 4 -28 12q-13 9 -20 22q-7 14 -10 32h-59z" />
    <glyph glyph-name="dotaccent" unicode="&#x2d9;" 
d="M272 729q-7 0 -11 -3t-4 -10v-69q0 -7 4 -10t11 -3h72q8 0 12 3q3 3 3 10v69q0 7 -3 10q-4 3 -12 3h-72z" />
    <glyph glyph-name="ring" unicode="&#x2da;" 
d="M406 808q-20 18 -45 28q-24 9 -53 9q-28 0 -53 -9q-24 -10 -44 -28t-30 -42q-10 -23 -10 -50t10 -50t30 -41q20 -19 44 -29q25 -9 53 -9q29 0 53 9q25 10 45 29q19 18 29 41t10 50t-10 50q-10 24 -29 42zM362 666q-10 -10 -24 -16q-14 -5 -30 -5t-29 5q-13 6 -24 16
t-17 22t-6 28q0 15 6 28t17 23t23 15q13 5 29 5t31 -5q14 -5 24 -15q11 -10 17 -23q5 -14 5 -28q0 -16 -5 -28q-6 -12 -17 -22z" />
    <glyph glyph-name="ogonek" unicode="&#x2db;" 
d="M264 0q-14 -14 -24 -28q-10 -13 -17 -26t-10 -25t-3 -22q0 -23 7 -39t22 -26q13 -10 36 -15q23 -4 54 -4h14t17 2q9 0 18 3l18 4v62q-7 -4 -14 -6q-8 -3 -16 -5q-7 -1 -15 -2t-17 -1q-13 0 -23 3t-17 8q-7 6 -11 13q-3 8 -3 19q0 8 2 17q3 9 9 19q5 10 13 22t20 27h-60z
" />
    <glyph glyph-name="tilde" unicode="&#x2dc;" 
d="M306 644q9 -8 18 -13q9 -6 17 -9q8 -4 17 -5q9 -2 18 -2q23 0 41 9q17 9 30 26q14 18 20 42t6 56h-62q0 -19 -3 -33q-2 -14 -7 -23q-4 -8 -11 -13q-7 -4 -17 -4q-3 0 -7 1l-8 4l-4 2q-3 2 -5 3q-2 2 -5 4q-2 2 -5 4q-15 13 -18 17q-4 3 -11 9q-9 8 -17 13q-9 6 -17 9
t-17 5t-18 2q-23 0 -41 -9q-17 -9 -30 -26q-13 -18 -20 -42t-7 -56h63q1 20 3 33q1 14 6 23q5 8 12 13q7 4 17 4q4 0 7 -1q4 -1 8 -3t9 -5q4 -4 10 -9q14 -13 18 -17q3 -3 10 -9z" />
    <glyph glyph-name="hungarumlaut" unicode="&#x2dd;" 
d="M352 770h-85q-17 -33 -47 -89l-48 -88h69q20 33 55 88q36 56 56 89zM523 770h-89q-19 -33 -51 -89q-32 -55 -51 -88h67q23 33 62 88q39 56 62 89z" />
    <glyph glyph-name="uni0300" unicode="&#x300;" horiz-adv-x="0" 
d="M-314 593h76q-17 21 -42 54q-26 33 -51 64q-14 17 -26 32t-21 27h-99q11 -12 25 -27t29 -32q29 -31 59 -64t50 -54z" />
    <glyph glyph-name="uni0301" unicode="&#x301;" horiz-adv-x="0" 
d="M-302 593q20 21 50 54t58 64q16 17 30 32t25 27h-100q-9 -12 -21 -27t-25 -32q-25 -31 -51 -64t-43 -54h77z" />
    <glyph glyph-name="uni0303" unicode="&#x303;" horiz-adv-x="0" 
d="M-241 615q23 0 41 9q17 9 30 26t20 42q7 24 7 56h-63q0 -19 -2 -33t-7 -23q-5 -8 -12 -13q-7 -4 -17 -4q-6 0 -15 4q-9 5 -19 14q-14 13 -18 17q-3 3 -10 9q-17 14 -35 21q-17 8 -35 8q-23 0 -41 -9q-17 -8 -30 -25q-14 -17 -20 -42t-6 -57h62q1 20 3 33q2 14 7 23
q4 8 12 13q7 4 16 4q7 0 16 -4q8 -5 18 -14q5 -5 14 -13t15 -13q17 -14 34 -22q18 -7 35 -7z" />
    <glyph glyph-name="uni0309" unicode="&#x309;" horiz-adv-x="0" 
d="M-412 804v-62q17 8 36 11q20 4 41 4q30 0 45 -11q16 -11 16 -33q0 -13 -3 -21t-9 -13q-12 -12 -26 -20q-14 -7 -31 -13v-51h74v41q13 8 24 18t21 22t14 26q5 14 5 28v5q-2 40 -32 60q-29 20 -87 20q-23 0 -44 -3q-22 -3 -44 -8z" />
    <glyph glyph-name="uni0323" unicode="&#x323;" horiz-adv-x="0" 
d="M-257 -195v97h-103v-97h103z" />
    <glyph glyph-name="uni0384" unicode="&#x384;" 
d="M238 593h76q20 21 50 54t59 64q15 17 29 32t25 27h-99q-9 -12 -21 -27t-26 -32q-25 -31 -51 -64q-25 -33 -42 -54z" />
    <glyph glyph-name="uni0385" unicode="&#x385;" 
d="M243 714h76q20 21 50 54q30 32 59 63q16 17 30 32t24 27h-99q-9 -12 -21 -27t-26 -32q-25 -31 -51 -64q-25 -32 -42 -53zM208 624q8 0 11 3t3 10v68q0 6 -3 10q-3 3 -11 3h-72q-7 0 -11 -3q-4 -4 -4 -10v-68q0 -7 4 -10t11 -3h72zM445 624q8 0 12 3t4 10v68q0 6 -4 10
q-4 3 -12 3h-70q-8 0 -12 -3q-4 -4 -4 -10v-68q0 -7 4 -10t12 -3h70z" />
    <glyph glyph-name="uni0386" unicode="&#x386;" 
d="M47 525q20 22 50 54q30 33 59 64q15 17 29 32t25 26h-99q-10 -11 -22 -26q-12 -16 -25 -32q-25 -32 -51 -64t-43 -54h77zM123 0q10 35 27 92t27 91h261q10 -34 28 -91t28 -92h104q-15 46 -35 106q-19 60 -41 127q-41 125 -82 254q-42 129 -70 214h-123q-15 -46 -35 -106
t-41 -127q-41 -124 -83 -254q-42 -129 -70 -214h105zM202 259q7 24 16 55q9 30 19 65q19 63 39 129q19 67 32 110q7 -23 16 -54t20 -65q19 -64 38 -130q20 -66 33 -110h-213z" />
    <glyph glyph-name="uni0388" unicode="&#x388;" 
d="M-113 525h77q11 12 25 27t29 32q29 31 59 64q30 32 50 53h-99q-10 -11 -22 -26q-12 -16 -25 -32q-25 -32 -51 -64t-43 -54zM164 0h452v80h-351v254h327v80h-327v208h342v79h-443v-701z" />
    <glyph glyph-name="uni0389" unicode="&#x389;" 
d="M-148 525h76q11 12 25 27t30 32q28 31 58 64q30 32 50 53h-99q-9 -11 -21 -26l-26 -32q-25 -32 -51 -64t-42 -54zM128 0h102v334h277v-334h101v701h-101v-287h-277v287h-102v-701z" />
    <glyph glyph-name="uni038a" unicode="&#x38a;" 
d="M-112 525h77q20 22 50 54q30 33 59 64q15 17 29 32t25 26h-99q-10 -11 -22 -26q-12 -16 -25 -32q-25 -32 -51 -64t-43 -54zM166 0h414v80h-156v542h156v79h-414v-79h156v-542h-156v-80z" />
    <glyph glyph-name="uni038c" unicode="&#x38c;" 
d="M588 350q0 92 -16 161q-15 68 -46 114q-30 45 -78 67q-47 23 -110 23t-110 -23q-47 -22 -77 -67q-31 -46 -47 -114q-16 -69 -16 -161t15 -161q16 -69 47 -113q30 -45 78 -67q47 -22 110 -22q125 0 187 90q63 91 63 273zM-89 525h77q20 22 50 54q29 33 58 64q16 17 30 32
t25 26h-100q-9 -11 -21 -26q-12 -16 -25 -32q-26 -32 -51 -64q-26 -32 -43 -54zM228 130q-17 34 -26 89q-8 55 -8 131q0 77 8 132q9 56 26 89t45 50q27 16 65 16t66 -16q28 -17 45 -50q16 -32 25 -87q8 -55 8 -134q0 -78 -8 -133q-9 -55 -25 -87q-17 -33 -45 -50t-66 -17
t-65 17q-28 17 -45 50z" />
    <glyph glyph-name="uni038e" unicode="&#x38e;" 
d="M259 0h102v305q0 19 2 41q2 21 6 43q3 22 9 45q6 22 13 43q8 22 17 42q9 19 20 37t23 31q13 13 27 22q3 -16 9 -28q6 -11 18 -20q11 -8 24 -13q12 -4 24 -4q7 0 14 2t14 5t12 9q6 6 10 15q3 7 5 12q2 6 2 12q1 6 2 11v10q0 19 -7 35q-8 16 -23 27q-16 11 -33 16t-37 5
h-12h-8q-4 -1 -10 -3q-27 -6 -52 -22q-24 -16 -46 -41t-40 -62t-34 -85q-10 50 -25 87q-16 36 -37 61q-22 25 -49 40q-27 16 -61 22q-8 2 -17 3q-9 2 -19 3h-18q-9 1 -16 1q-13 0 -24 -2q-11 -1 -19 -4v-79q5 1 10 1l10 2q5 0 10 1h8q10 0 21 -1t22 -3q12 -3 21 -6
q9 -4 15 -7q13 -6 24 -17t21 -27q11 -16 21 -36q10 -19 17 -42q9 -22 15 -45t11 -47q4 -24 6 -46t2 -44v-305zM-234 525h76q11 12 25 27t30 32q28 31 58 64q30 32 50 53h-99q-9 -11 -21 -26l-26 -32q-25 -32 -51 -64t-42 -54z" />
    <glyph glyph-name="uni038f" unicode="&#x38f;" 
d="M-95 510h77q10 12 24 27t30 32q29 31 59 63q29 33 49 54h-99q-9 -12 -21 -27t-26 -32q-25 -31 -50 -63q-26 -33 -43 -54zM59 0h232v81q-21 11 -38 28t-32 39q-14 23 -24 48t-18 54q-7 28 -11 59q-4 30 -4 62q0 57 11 101q12 44 34 75t53 46q30 15 69 15q38 0 69 -15
q30 -15 53 -46q22 -31 33 -75q12 -44 12 -101q0 -50 -9 -95q-9 -44 -26 -83q-17 -40 -40 -67q-23 -28 -52 -45v-81h231v81h-124q31 31 53 64q22 32 36 66t21 73t7 82q0 49 -8 92q-9 42 -25 79q-16 36 -39 63q-23 28 -53 47t-65 29t-75 10t-75 -10t-65 -29q-29 -19 -53 -47
q-23 -27 -39 -63q-16 -37 -24 -79q-8 -43 -8 -92q0 -45 7 -84q7 -38 21 -72t36 -66t52 -63h-123v-81z" />
    <glyph glyph-name="uni0390" unicode="&#x390;" 
d="M243 713h76q20 21 50 54q30 32 59 63q16 17 30 32t24 27h-99q-9 -12 -21 -27t-26 -32q-25 -31 -51 -64q-25 -32 -42 -53zM208 621q8 0 11 3q3 4 3 11v66q0 7 -3 11t-11 4h-72q-7 0 -11 -4t-4 -11v-66q0 -7 4 -11q4 -3 11 -3h72zM445 621q8 0 12 3q4 4 4 11v66q0 7 -4 11
t-12 4h-70q-8 0 -12 -4t-4 -11v-66q0 -7 4 -11q4 -3 12 -3h70zM487 -4v74h-44q-17 0 -32 2q-14 2 -24 7q-9 4 -15 12q-7 8 -11 21q-3 12 -5 30q-2 17 -2 40v344h-199v-67h105v-272q0 -50 10 -86q10 -37 31 -60q21 -22 53 -34q33 -11 78 -11h55z" />
    <glyph glyph-name="uni0391" unicode="&#x391;" 
d="M18 0h105q10 35 27 92t27 91h261q10 -34 28 -91t28 -92h104q-15 46 -35 106q-19 60 -41 127q-41 125 -82 254q-42 129 -70 214h-123q-15 -46 -35 -106t-41 -127q-41 -124 -83 -254q-42 -129 -70 -214zM202 259q7 24 16 55q9 30 19 65q19 63 39 129q19 67 32 110
q7 -23 16 -54t20 -65q19 -64 38 -130q20 -66 33 -110h-213z" />
    <glyph glyph-name="uni0392" unicode="&#x392;" 
d="M83 0h221q132 0 198 48q66 47 66 143q0 39 -10 70t-32 55q-21 25 -50 40q-28 14 -64 20q65 9 98 45t33 100q0 44 -16 78q-16 33 -47 56q-30 23 -74 35q-44 11 -102 11h-221v-701zM184 413v211h118q38 0 64 -6t43 -18q16 -11 24 -32q7 -20 7 -47q0 -28 -8 -49t-24 -34
q-17 -13 -44 -19q-26 -6 -62 -6h-118zM184 78v257h120q42 0 73 -8t51 -24t29 -41q10 -26 10 -60q0 -33 -10 -57t-28 -39q-18 -14 -50 -21q-31 -7 -75 -7h-120z" />
    <glyph glyph-name="uni0393" unicode="&#x393;" 
d="M108 0h101v622h360v79h-461v-701z" />
    <glyph glyph-name="uni0394" unicode="&#x394;" 
d="M18 0h580q-15 46 -35 106q-19 60 -41 127q-41 125 -82 254q-42 129 -70 214h-123q-15 -46 -35 -106t-41 -127q-41 -124 -83 -254q-42 -129 -70 -214zM147 80q11 35 25 81q14 47 29 98q29 96 58 195q30 99 49 164q11 -35 25 -81q13 -46 29 -98q28 -95 58 -195
q30 -99 49 -164h-322z" />
    <glyph glyph-name="uni0395" unicode="&#x395;" 
d="M98 0h453v80h-351v254h326v80h-326v208h342v79h-444v-701z" />
    <glyph glyph-name="uni0396" unicode="&#x396;" 
d="M55 0h506v80h-400q47 67 119 168t141 199q37 52 71 100q33 47 59 83v71h-485v-79h368q-25 -36 -57 -84q-33 -47 -69 -99q-67 -98 -137 -199q-69 -100 -116 -167v-73z" />
    <glyph glyph-name="uni0397" unicode="&#x397;" 
d="M69 0h101v334h276v-334h102v701h-102v-287h-276v287h-101v-701z" />
    <glyph glyph-name="uni0398" unicode="&#x398;" 
d="M19 311q0 -32 6 -63q5 -30 15 -59q11 -30 26 -56q15 -27 34 -50q20 -23 42 -41q23 -18 49 -31q27 -13 55 -19q24 -5 52 -5h6h7q28 0 54 6t52 17q27 13 50 30q24 17 44 40q21 23 36 50q16 28 27 58q12 31 18 64q5 29 5 61v9v6q0 32 -5 62q-6 30 -15 60q-11 29 -25 57
q-15 27 -34 50t-41 41q-23 19 -49 32t-55 19q-26 5 -53 5h-7h-6q-29 0 -57 -6q-27 -6 -52 -18q-27 -13 -51 -32q-24 -18 -44 -42t-35 -51q-16 -27 -27 -58q-11 -30 -16 -63q-5 -32 -5 -67v-3q-1 -1 -1 -3zM474 198q-10 -29 -25 -51q-16 -23 -36 -39q-21 -17 -47 -26
q-26 -8 -58 -8q-31 0 -57 8t-47 24q-21 17 -36 40q-16 23 -26 51q-10 27 -15 58t-5 64q0 34 5 64q4 30 14 58q10 29 26 51q15 23 36 40q20 18 47 27q26 8 59 8t60 -8q27 -9 47 -27q20 -16 35 -39q15 -22 25 -51q10 -28 14 -58q5 -30 5 -62q0 -34 -6 -65q-5 -31 -15 -59z
M191 280h234v79h-234v-79z" />
    <glyph glyph-name="uni0399" unicode="&#x399;" 
d="M100 0h415v80h-157v542h157v79h-415v-79h157v-542h-157v-80z" />
    <glyph glyph-name="uni039a" unicode="&#x39a;" 
d="M69 0h101v274q19 20 77 77q16 -23 37 -53t44 -64q43 -62 88 -127q45 -64 74 -107h122q-19 27 -45 63t-54 75q-53 74 -108 150t-92 127q97 95 291 286h-119q-20 -20 -48 -47q-27 -27 -57 -56l-114 -114q-58 -57 -96 -95v312h-101v-701z" />
    <glyph glyph-name="uni039b" unicode="&#x39b;" 
d="M18 0h105q12 40 28 94q16 53 34 112q32 109 67 223q34 114 56 189q12 -40 28 -93t34 -112q33 -110 67 -224t57 -189h104q-15 46 -35 106q-19 60 -41 127q-41 125 -82 254q-42 129 -70 214h-123q-15 -46 -35 -106t-41 -127q-41 -124 -83 -254q-42 -129 -70 -214z" />
    <glyph glyph-name="uni039c" unicode="&#x39c;" 
d="M43 0h93v620q9 -25 21 -56q11 -32 24 -68q24 -65 48 -133q25 -68 41 -113h76q16 45 41 113q24 68 48 133q13 36 24 68q12 31 20 56v-620h94v701h-136q-8 -23 -20 -54q-11 -30 -23 -64q-23 -64 -47 -130t-40 -109q-15 43 -39 109t-47 130q-12 34 -23 64q-11 31 -20 54
h-135v-701z" />
    <glyph glyph-name="uni039d" unicode="&#x39d;" 
d="M70 0h97v578q17 -38 38 -88q22 -49 46 -105q44 -102 91 -208q46 -107 77 -177h128v701h-97v-577q-31 70 -78 177q-46 106 -90 208q-24 55 -46 105t-38 87h-128v-701z" />
    <glyph glyph-name="uni039e" unicode="&#x39e;" 
d="M69 622h479v79h-479v-79zM170 334h276v80h-276v-80zM69 0h479v80h-479v-80z" />
    <glyph glyph-name="uni039f" unicode="&#x39f;" 
d="M558 350q0 92 -15 161q-16 68 -46 114q-31 45 -78 67q-48 23 -111 23t-110 -23q-47 -22 -78 -67q-31 -46 -46 -115q-16 -69 -16 -161t16 -160q15 -69 46 -113q31 -45 77 -67q47 -22 110 -22q125 0 188 90q63 91 63 273zM242 80q-13 8 -25 21q-11 13 -19 29q-17 33 -26 88
q-8 55 -8 132q0 76 8 131q9 56 26 89t44 50q28 17 66 17t66 -16q28 -17 45 -50q7 -16 14 -37q6 -20 10 -47q5 -26 7 -60q3 -34 3 -76t-3 -76q-2 -35 -7 -61q-4 -26 -10 -47q-7 -22 -14 -37q-8 -16 -19 -28q-11 -13 -24 -21q-13 -9 -30 -13q-17 -5 -38 -5q-20 0 -37 4
q-16 4 -29 13z" />
    <glyph glyph-name="uni03a0" unicode="&#x3a0;" 
d="M69 0h101v622h276v-622h102v701h-479v-701z" />
    <glyph glyph-name="uni03a1" unicode="&#x3a1;" 
d="M86 0h101v282h117q127 0 190 52q64 53 64 158t-64 157q-63 52 -190 52h-218v-701zM187 360v264h117q35 0 63 -9q27 -8 47 -25q19 -17 29 -42q10 -24 10 -55q0 -32 -10 -57t-29 -42q-20 -17 -47 -25q-28 -9 -63 -9h-117z" />
    <glyph glyph-name="uni03a3" unicode="&#x3a3;" 
d="M60 0h506v80h-400q15 18 35 41q19 23 41 49q40 48 82 98q41 50 69 83q-28 33 -70 83q-41 50 -81 98q-22 26 -42 49q-19 23 -34 41h400v79h-506v-79q28 -33 70 -83q41 -50 81 -98q22 -26 42 -49q19 -23 34 -41q-15 -18 -35 -41q-19 -23 -41 -49q-40 -48 -82 -98
q-41 -50 -69 -83v-80z" />
    <glyph glyph-name="uni03a4" unicode="&#x3a4;" 
d="M258 0h101v622h234v79h-569v-79h234v-622z" />
    <glyph glyph-name="uni03a5" unicode="&#x3a5;" 
d="M252 0h101v305q0 19 2 41q3 21 6 43q4 22 10 45q6 22 13 43q8 22 16 42q9 19 20 37t23 31t27 22q2 -16 9 -28q7 -11 19 -20q11 -8 23 -13q11 -4 24 -4q7 0 14 2q8 2 14 5q7 3 13 9q5 6 10 15q3 7 5 12l2 12t1 11v10q0 19 -7 35t-23 27q-15 11 -33 16q-17 5 -37 5h-12h-8
q-5 -1 -10 -3q-28 -6 -52 -22q-25 -16 -46 -41q-22 -25 -40 -62t-33 -85q-10 50 -25 87q-16 36 -37 61q-22 25 -50 40q-27 16 -61 22q-8 2 -17 3q-8 2 -18 3h-18q-9 1 -17 1q-13 0 -23 -2q-11 -1 -20 -4v-79q6 1 10 1q4 1 10 2q5 0 10 1h9q10 0 21 -1t22 -3q12 -3 21 -6
q9 -4 15 -7q12 -6 23 -17t22 -27t20 -36q9 -19 17 -42q9 -22 15 -45t11 -47q4 -24 7 -46q2 -22 2 -44v-305z" />
    <glyph glyph-name="uni03a6" unicode="&#x3a6;" 
d="M184 0h248v80h-73v54q30 3 56 10t48 19q22 11 40 28q17 17 29 40q13 23 19 53q6 29 6 66t-6 67q-5 29 -19 52q-12 23 -29 40q-18 17 -40 29q-22 11 -48 18t-56 10v56h73v79h-248v-79h73v-56q-29 -3 -55 -10t-48 -18q-23 -12 -40 -29q-18 -17 -30 -40t-18 -52
q-7 -30 -7 -67t7 -66q6 -30 18 -53t30 -40q17 -17 40 -28q22 -12 48 -19t55 -10v-54h-73v-80zM257 217q-19 4 -34 11q-14 7 -24 17q-17 16 -26 42q-8 26 -8 63t8 64q9 27 26 43q10 10 24 16q15 6 34 10v-266zM359 483q20 -4 34 -10q15 -6 26 -16q17 -16 25 -43q8 -26 8 -64
q0 -37 -8 -63t-25 -42l-10 -8q-6 -4 -14 -8q-7 -3 -16 -7q-9 -3 -20 -5v266z" />
    <glyph glyph-name="uni03a7" unicode="&#x3a7;" 
d="M9 0h109q13 20 30 46t36 55q35 53 71 109q36 55 60 92q23 -37 56 -92q34 -56 67 -109q17 -29 33 -55t28 -46h108q-15 24 -36 56t-43 68q-43 66 -87 134t-73 114q14 22 34 50q19 28 40 60q40 58 81 119q40 60 68 100h-109q-11 -17 -25 -40t-30 -48q-30 -47 -61 -95
q-30 -48 -51 -81q-20 33 -50 81q-30 49 -59 95q-16 26 -30 48q-14 23 -24 40h-109q27 -40 66 -101q40 -60 78 -118q21 -32 39 -60q19 -29 33 -50q-30 -46 -76 -114t-91 -134q-23 -36 -45 -68q-21 -32 -38 -56z" />
    <glyph glyph-name="uni03a8" unicode="&#x3a8;" 
d="M183 0h249v80h-74v100q44 7 79 29q34 21 59 57q30 45 46 114q15 69 15 161v160h-101v-160q0 -76 -10 -132q-10 -55 -28 -88q-12 -21 -26 -36q-15 -14 -34 -22v438h-101v-438q-18 8 -33 22q-15 15 -26 36q-10 16 -16 37q-7 22 -12 49q-5 26 -8 60q-2 33 -2 74v160h-102
v-160q0 -92 16 -161q15 -69 46 -114q24 -36 59 -57q34 -22 78 -29v-100h-74v-80z" />
    <glyph glyph-name="uni03a9" unicode="&#x3a9;" 
d="M37 0h231v81q-29 18 -52 46q-24 28 -41 68q-17 38 -25 82q-9 45 -9 95q0 57 12 100q11 43 33 74q10 14 23 25q12 11 28 20q15 8 33 13q17 4 38 4q19 0 37 -4q17 -4 33 -12q15 -9 28 -20q13 -12 24 -26q12 -16 20 -35t14 -41q5 -22 8 -47q3 -24 3 -51q0 -50 -8 -95
q-9 -44 -26 -82q-17 -39 -40 -68q-23 -28 -53 -46v-81h232v81h-124q30 31 52 64t37 67q14 33 21 72q6 38 6 84q0 73 -17 131q-18 58 -54 101q-18 21 -39 37q-20 17 -44 28q-24 10 -52 16q-27 5 -59 5q-60 0 -108 -21q-48 -22 -84 -65q-36 -44 -54 -102q-18 -57 -18 -130
q0 -46 7 -84q7 -39 21 -72q13 -34 36 -67q22 -33 53 -64h-123v-81z" />
    <glyph glyph-name="uni03aa" unicode="&#x3aa;" 
d="M246 775q7 0 11 4t4 11v66q0 7 -4 11q-4 3 -11 3h-72q-8 0 -11 -3q-3 -4 -3 -11v-66q0 -7 3 -11t11 -4h72zM441 775q8 0 12 4t4 11v66q0 7 -4 11q-4 3 -12 3h-70q-8 0 -12 -3q-4 -4 -4 -11v-66q0 -7 4 -11t12 -4h70zM101 0h414v80h-156v542h156v79h-414v-79h156v-542
h-156v-80z" />
    <glyph glyph-name="uni03ab" unicode="&#x3ab;" 
d="M246 775q7 0 11 4t4 11v66q0 7 -4 11q-4 3 -11 3h-72q-8 0 -11 -3q-3 -4 -3 -11v-66q0 -7 3 -11t11 -4h72zM441 775q8 0 12 4t4 11v66q0 7 -4 11q-4 3 -12 3h-70q-8 0 -12 -3q-4 -4 -4 -11v-66q0 -7 4 -11t12 -4h70zM252 0h101v305q0 19 2 41q3 21 6 43q4 22 10 45
q6 22 13 43q8 22 16 42q9 19 20 37t23 31t27 22q2 -16 9 -28q7 -11 19 -20q11 -8 23 -13q11 -4 24 -4q7 0 14 2q8 2 14 5q7 3 13 9q5 6 10 15q3 7 5 12l2 12t1 11v10q0 19 -7 35t-23 27q-15 11 -33 16q-17 5 -37 5h-12h-8q-5 -1 -10 -3q-28 -6 -52 -22q-25 -16 -46 -41
q-22 -25 -40 -62t-33 -85q-10 50 -25 87q-16 36 -37 61q-22 25 -50 40q-27 16 -61 22q-8 2 -17 3q-8 2 -18 3h-18q-9 1 -17 1q-13 0 -23 -2q-11 -1 -20 -4v-79q6 1 10 1q4 1 10 2q5 0 10 1h9q10 0 21 -1t22 -3q12 -3 21 -6q9 -4 15 -7q12 -6 23 -17t22 -27t20 -36
q9 -19 17 -42q9 -22 15 -45t11 -47q4 -24 7 -46q2 -22 2 -44v-305z" />
    <glyph glyph-name="uni03ac" unicode="&#x3ac;" 
d="M238 609h76q20 22 50 54q30 33 59 65q15 16 29 32q14 15 25 26h-99q-9 -11 -21 -26q-12 -16 -26 -32q-25 -32 -51 -65q-25 -32 -42 -54zM356 19q17 16 31 36t26 45q4 -20 14 -38t26 -32q15 -15 35 -22q20 -8 43 -8h55v74h-44q-8 0 -17 5q-8 4 -18 15t-16 22q-5 11 -8 22
q-4 19 -9 51q-6 32 -10 52q12 35 31 87t37 103q10 27 19 52q9 24 15 43h-82q-9 -26 -23 -64q-15 -38 -27 -73q-7 38 -22 66q-15 27 -38 46q-23 18 -52 28q-28 10 -62 10q-30 0 -58 -8q-27 -8 -54 -23q-25 -15 -45 -38q-21 -23 -36 -53q-16 -31 -24 -71q-8 -39 -8 -87
q0 -64 15 -114t44 -86t69 -53t91 -17q34 0 60 7q25 8 42 23zM195 82q-14 11 -25 27t-20 38q-10 23 -14 50t-4 60q0 23 2 45q3 21 7 41q5 20 13 38q8 17 17 32q8 13 18 23t22 17q11 6 23 9q11 4 23 4q16 0 32 -6q16 -7 30 -20q15 -13 26 -34q10 -22 16 -53q4 -20 11 -54
t11 -54q-5 -16 -14 -40t-17 -45q-17 -50 -43 -75q-25 -26 -57 -26q-15 0 -29 6q-15 6 -28 17z" />
    <glyph glyph-name="uni03ad" unicode="&#x3ad;" 
d="M238 610h76q20 22 50 54q30 33 59 65q15 16 29 32q14 15 25 26h-99q-9 -11 -21 -26q-12 -16 -26 -32q-25 -32 -51 -65q-25 -32 -42 -54zM438 -4q23 3 46 8q24 5 48 12v81q-39 -16 -85 -24q-45 -8 -94 -8q-43 0 -77 6q-33 6 -55 18t-33 29q-12 17 -12 39q0 21 11 38
q10 16 31 29t50 20q29 6 67 6h80v67h-83q-34 0 -61 6q-26 5 -44 15q-17 10 -26 23q-8 13 -8 29t9 29t27 23q19 10 46 16q27 5 62 5q18 0 37 -2q20 -1 42 -4q21 -3 46 -8q24 -5 50 -11v78q-52 12 -99 17q-46 6 -85 6q-53 0 -94 -10q-41 -9 -72 -27q-31 -19 -46 -43
q-16 -25 -16 -57q0 -22 8 -41t24 -34q16 -16 39 -25q23 -10 53 -16q-32 -6 -57 -17q-26 -11 -45 -28t-28 -40t-9 -50q0 -37 17 -67t52 -51q34 -22 82 -32q48 -11 110 -11q24 0 47 1q23 2 45 5z" />
    <glyph glyph-name="uni03ae" unicode="&#x3ae;" 
d="M238 610h76q20 22 50 54q30 33 59 65q15 16 29 32q14 15 25 26h-99q-9 -11 -21 -26q-12 -16 -26 -32q-25 -32 -51 -65q-25 -32 -42 -54zM433 -201h92v528q0 106 -42 159t-128 53q-58 0 -100 -23q-41 -22 -66 -69q-1 15 -4 40t-5 39h-83v-526h92v298q0 41 9 71t26 52
q17 21 42 32t58 11q28 0 49 -9q20 -8 34 -25q13 -17 19 -42q7 -26 7 -61v-528z" />
    <glyph glyph-name="uni03af" unicode="&#x3af;" 
d="M238 598h76q11 12 25 27t30 32q28 31 58 63q30 33 50 54h-99q-17 -21 -43 -54q-26 -32 -51 -63q-13 -17 -25 -32t-21 -27zM487 -4v74h-44q-17 0 -32 2q-14 2 -24 7q-9 4 -15 12q-7 8 -11 21q-3 12 -5 30q-2 17 -2 40v344h-199v-67h105v-272q0 -24 3 -46q2 -21 7 -40
q6 -18 13 -33q8 -16 18 -27q9 -11 22 -19t29 -14t36 -9t44 -3h55z" />
    <glyph glyph-name="uni03b0" unicode="&#x3b0;" 
d="M243 714h76q20 21 50 54q30 32 59 63q16 17 30 32t24 27h-99q-9 -12 -21 -27t-26 -32q-25 -31 -51 -64q-25 -32 -42 -53zM208 624q8 0 11 3t3 10v68q0 6 -3 10q-3 3 -11 3h-72q-7 0 -11 -3q-4 -4 -4 -10v-68q0 -7 4 -10t11 -3h72zM445 624q8 0 12 3t4 10v68q0 6 -4 10
q-4 3 -12 3h-70q-8 0 -12 -3q-4 -4 -4 -10v-68q0 -7 4 -10t12 -3h70zM418 24q24 13 45 31t37 39q16 22 28 47q11 24 20 50q8 27 12 54q4 26 4 52q0 36 -5 68q-6 32 -16 60q-11 28 -25 52q-14 25 -32 46h-93q23 -27 39 -53q15 -26 24 -51q8 -26 12 -49q4 -24 4 -46v-13v-6
q-1 -4 -1 -7q-2 -29 -8 -57q-5 -27 -14 -54q-10 -26 -23 -47q-13 -20 -29 -37q-16 -16 -37 -24q-20 -8 -46 -8q-17 0 -32 2q-14 2 -24 7q-9 4 -15 12q-7 8 -11 21q-3 12 -5 30q-2 17 -2 40v340h-199v-66h104q0 -51 1 -126v-143q0 -50 10 -86t31 -59t54 -35q33 -11 78 -11
q32 0 61 7q28 6 53 20z" />
    <glyph glyph-name="uni03b1" unicode="&#x3b1;" 
d="M356 19q17 16 31 36t26 45q4 -20 14 -38t26 -32q15 -15 35 -22q20 -8 43 -8h55v74h-44q-8 0 -17 5q-8 4 -18 15t-16 22q-5 11 -8 22q-4 19 -9 51q-6 32 -10 52q12 35 31 87t37 103q10 27 19 52q9 24 15 43h-82q-9 -26 -23 -64q-15 -38 -27 -73q-7 38 -22 66
q-15 27 -38 46q-23 18 -52 28q-28 10 -62 10q-30 0 -58 -8q-27 -8 -54 -23q-25 -15 -45 -38q-21 -23 -36 -53q-16 -31 -24 -71q-8 -39 -8 -87q0 -64 15 -114t44 -86t69 -53t91 -17q34 0 60 7q25 8 42 23zM195 82q-14 11 -25 27t-20 38q-10 23 -14 50t-4 60q0 23 2 45
q3 21 7 41q5 20 13 38q8 17 17 32q8 13 18 23t22 17q11 6 23 9q11 4 23 4q16 0 32 -6q16 -7 30 -20q15 -13 26 -34q10 -22 16 -53q4 -20 11 -54t11 -54q-5 -16 -14 -40t-17 -45q-17 -50 -43 -75q-25 -26 -57 -26q-15 0 -29 6q-15 6 -28 17z" />
    <glyph glyph-name="uni03b2" unicode="&#x3b2;" 
d="M76 -201h93v234q23 -13 42 -21q20 -8 37 -13t35 -7t36 -2q36 0 67 7t57 20q28 13 50 32q21 18 37 41q17 23 24 49q7 27 7 57q0 21 -4 42q-5 20 -13 40q-9 19 -21 36t-28 31q-17 14 -35 23q-19 8 -40 13q21 11 37 28q17 17 27 41q11 23 16 47q6 24 6 50q0 25 -5 47
q-5 21 -15 40q-10 18 -23 33t-29 26q-16 12 -34 20q-18 9 -38 14q-19 5 -38 8t-37 3q-27 0 -52 -5q-25 -6 -50 -17q-24 -12 -44 -29q-19 -17 -35 -41q-15 -24 -23 -54q-7 -31 -7 -69v-724zM169 520q0 23 4 42q4 18 13 32q10 15 22 25t26 17q15 7 30 10t31 3q13 0 26 -3
q13 -2 27 -7q15 -5 27 -13q11 -8 21 -20q10 -11 15 -27t5 -36q0 -29 -12 -53q-11 -24 -34 -43q-23 -18 -57 -26q-34 -9 -79 -7v-80h9q4 1 9 1h18q99 0 148 -32t49 -96q0 -22 -5 -39q-4 -18 -13 -32q-10 -14 -22 -24q-13 -10 -28 -16q-14 -6 -30 -9t-34 -3q-16 0 -33 2
q-17 3 -34 7q-16 6 -31 13t-28 16q-13 8 -23 18t-17 21v359z" />
    <glyph glyph-name="uni03b3" unicode="&#x3b3;" 
d="M278 -201h95v201q13 35 32 80l38 95q37 94 76 190q39 97 65 161h-96q-10 -26 -24 -61t-30 -73q-29 -72 -59 -146q-30 -75 -50 -124q-24 61 -60 151q-35 90 -67 170q-16 42 -49 63q-33 20 -81 20h-35v-73h24q24 0 41 -15t29 -45q10 -26 23 -59q13 -34 27 -72
q27 -70 54 -142q28 -72 47 -120v-201z" />
    <glyph glyph-name="uni03b4" unicode="&#x3b4;" 
d="M487 56q31 36 46 87q15 52 15 120q0 135 -60 204t-180 72q-25 0 -41 2t-23 5q-10 4 -18 9q-7 5 -11 10q-4 6 -5 12q-2 6 -2 14q0 11 3 19q3 9 10 15q10 7 13 8q2 1 7 4l16 10q8 4 16 6q9 3 17 4q9 1 17 1h17q20 1 40 0q20 -2 39 -6q20 -4 38 -8q18 -5 34 -10v81
q-14 3 -35 8t-41 9q-6 2 -14 3q-7 0 -17 1t-20 1h-19q-53 0 -94 -9t-70 -29q-29 -19 -44 -45t-15 -58q0 -10 2 -20q2 -9 6 -18q4 -8 9 -17q6 -8 14 -17q5 -4 9 -7q4 -4 9 -7q4 -3 7 -5t5 -3q-12 -9 -21 -17q-9 -9 -16 -17q-15 -16 -26 -37q-11 -22 -19 -47t-12 -55
q-4 -31 -4 -66q0 -67 15 -119t46 -88q31 -35 75 -52q45 -17 103 -17q59 0 104 17t75 52zM166 263q0 102 36 152q36 51 106 51q72 0 107 -51q36 -50 36 -152q0 -101 -36 -152q-35 -52 -107 -52q-70 0 -106 52q-36 51 -36 152z" />
    <glyph glyph-name="uni03b5" unicode="&#x3b5;" 
d="M438 -4q23 3 46 8q24 5 48 12v81q-39 -16 -85 -24q-45 -8 -94 -8q-43 0 -77 6q-33 6 -55 18t-33 29q-12 17 -12 39q0 21 11 38q10 16 31 29t50 20q29 6 67 6h80v67h-83q-34 0 -61 6q-26 5 -44 15q-17 10 -26 23q-8 13 -8 29t9 29t27 23q19 10 46 16q27 5 62 5q18 0 37 -2
q20 -1 42 -4q21 -3 46 -8q24 -5 50 -11v78q-52 12 -99 17q-46 6 -85 6q-53 0 -94 -10q-41 -9 -72 -27q-31 -19 -46 -43q-16 -25 -16 -57q0 -22 8 -41t24 -34q16 -16 39 -25q23 -10 53 -16q-32 -6 -57 -17q-26 -11 -45 -28t-28 -40t-9 -50q0 -37 17 -67t52 -51q34 -22 82 -32
q48 -11 110 -11q24 0 47 1q23 2 45 5z" />
    <glyph glyph-name="uni03b6" unicode="&#x3b6;" 
d="M369 -202q40 0 71 10q30 9 49 29q20 20 29 44t9 51q0 30 -9 52t-29 39q-19 16 -46 25q-28 9 -63 11l-30 4q-16 2 -33 5q-16 3 -33 8q-16 6 -31 15t-29 23q-13 13 -24 32q-12 20 -20 46q-7 26 -11 59q-1 5 -1 12v12q0 48 23 94t68 92t114 91q68 46 158 92v87h-435v-87h266
q-47 -28 -87 -58q-41 -31 -72 -65q-32 -34 -55 -68q-24 -35 -39 -72q-16 -37 -24 -74q-8 -36 -8 -73q0 -35 6 -64q7 -30 19 -52q13 -23 29 -40t35 -30t40 -22q20 -10 42 -16q21 -6 41 -10q19 -4 37 -6q17 -2 31 -4t23 -3q16 -3 28 -8q11 -6 18 -14q7 -7 11 -17q3 -9 3 -21
q0 -16 -5 -27q-6 -12 -17 -19q-12 -7 -24 -10t-25 -2v-71z" />
    <glyph glyph-name="uni03b7" unicode="&#x3b7;" 
d="M433 -201h92v528q0 106 -42 159t-128 53q-58 0 -100 -23q-41 -22 -66 -69q-1 15 -4 40t-5 39h-83v-526h92v298q0 41 9 71t26 52q17 21 42 32t58 11q28 0 49 -9q20 -8 34 -25q13 -17 19 -42q7 -26 7 -61v-528z" />
    <glyph glyph-name="uni03b8" unicode="&#x3b8;" 
d="M486 78q31 46 46 113q16 67 16 154q0 88 -16 155q-15 67 -46 113q-30 46 -75 69q-44 23 -103 23q-58 0 -103 -23q-44 -23 -75 -69t-46 -113t-15 -155q0 -87 15 -154t46 -113t75 -69q45 -22 103 -22q59 0 103 22q45 23 75 69zM167 389q1 35 5 67q5 31 12 58q8 27 20 49
t27 37q16 15 35 23t42 8q24 0 43 -8t34 -23t27 -37t20 -49t12 -58q5 -32 6 -67h-283zM230 92q-15 16 -26 37q-12 22 -20 49q-7 28 -12 59q-4 31 -5 66h283q-1 -35 -6 -67q-5 -31 -13 -59q-8 -27 -19 -48q-12 -21 -27 -37q-15 -15 -34 -23q-19 -9 -43 -9t-43 9q-19 8 -35 23z
" />
    <glyph glyph-name="uni03b9" unicode="&#x3b9;" 
d="M487 -4v74h-44q-17 0 -32 2q-14 2 -24 7q-9 4 -15 12q-7 8 -11 21q-3 12 -5 30q-2 17 -2 40v344h-199v-67h105v-272q0 -24 3 -46q2 -21 7 -40q6 -18 13 -33q8 -16 18 -27q9 -11 22 -19t29 -14t36 -9t44 -3h55z" />
    <glyph glyph-name="uni03ba" unicode="&#x3ba;" 
d="M93 0h95v211q13 11 34 30t34 30q14 -17 32 -41q18 -23 37 -49q37 -48 75 -98t64 -83h111q-16 22 -38 50t-46 59q-46 58 -93 119q-47 60 -77 100q14 13 33 30t40 36q39 35 80 72q41 36 68 60h-113q-16 -14 -36 -33q-21 -18 -44 -39q-43 -39 -87 -79t-74 -67v218h-95v-526z
" />
    <glyph glyph-name="uni03bb" unicode="&#x3bb;" 
d="M34 0h97q24 47 59 119q36 72 70 141q19 37 35 70q17 34 30 59q10 -25 23 -59q14 -33 29 -70q28 -69 56 -141q29 -72 48 -119h98q-32 79 -75 187t-88 222q-24 62 -49 122q-24 61 -46 118q-8 21 -23 36q-14 15 -36 25q-21 10 -49 14q-27 5 -60 6q-7 0 -18 1h-17v-74h24
q20 0 35 -3q16 -4 28 -11t22 -18t16 -27q7 -18 18 -47q12 -29 19 -46q-30 -62 -76 -154q-45 -93 -88 -183q-24 -48 -45 -92q-21 -43 -37 -76z" />
    <glyph glyph-name="uni03bc" unicode="&#x3bc;" 
d="M97 -201h84v260q12 -19 25 -33q13 -13 28 -22q16 -8 36 -13q19 -4 42 -4q45 0 79 18q33 19 55 55q7 -36 25 -55q19 -18 50 -18q16 0 34 5q17 4 36 15v70q-7 -3 -12 -5q-5 -3 -9 -3q-4 -2 -7 -2h-5q-16 0 -24 13q-9 14 -9 41v405h-92v-307q0 -79 -32 -118q-32 -40 -96 -40
q-27 0 -49 10q-22 9 -37 26q-14 18 -22 43q-8 26 -8 60v326h-92v-727z" />
    <glyph glyph-name="uni03bd" unicode="&#x3bd;" 
d="M229 0h98q15 13 32 30q18 16 36 36q19 19 37 40t35 44q17 22 31 45q15 23 25 47q11 23 16 46q6 23 6 45q0 14 -3 30q-2 15 -7 32q-6 18 -13 35q-7 18 -16 35t-19 32q-9 16 -20 29h-93q15 -17 26 -33q11 -15 18 -29t13 -28q5 -14 9 -27q3 -11 5 -21t4 -19q1 -10 2 -17
q1 -8 1 -13q0 -16 -6 -35q-5 -20 -15 -42t-24 -45q-13 -23 -30 -46t-36 -45q-19 -21 -40 -41q-9 29 -22 67q-12 38 -26 80q-26 78 -52 159q-27 82 -44 135h-99q21 -64 53 -161q31 -96 61 -190q17 -50 31 -95q15 -45 26 -80z" />
    <glyph glyph-name="uni03be" unicode="&#x3be;" 
d="M382 -202q41 0 71 10t49 29t28 44q10 25 10 54q0 27 -9 47q-8 21 -24 36q-16 16 -45 26t-70 15q-14 2 -30 5q-16 2 -34 5q-19 2 -37 6q-17 5 -35 10q-18 6 -33 14t-26 19q-12 11 -18 26t-6 33q0 29 18 54q17 25 52 48q34 22 88 36q54 13 127 19v80q-69 1 -120 8t-82 18
q-31 12 -47 30q-15 19 -15 45q0 30 19 54q20 24 59 41q40 17 98 26q59 8 138 8v87h-394v-87h103q-28 -10 -49 -23t-34 -29t-20 -37q-6 -20 -6 -45q0 -28 8 -52q9 -23 26 -40q18 -18 44 -29t62 -15q-39 -13 -70 -33t-53 -48t-34 -59q-11 -31 -11 -64q0 -27 7 -49
q6 -22 19 -39q14 -17 30 -30q17 -13 38 -22q21 -10 41 -16q21 -6 43 -11t42 -7q21 -3 39 -4q18 -2 32 -3q13 -1 21 -2q16 -3 28 -8q11 -5 18 -14q7 -8 11 -18t4 -21q0 -14 -5 -24t-15 -19q-10 -8 -22 -12q-13 -3 -29 -2v-71z" />
    <glyph glyph-name="uni03bf" unicode="&#x3bf;" 
d="M486 57q31 36 46 87q16 51 16 118q0 68 -16 119q-15 52 -46 87q-30 35 -75 53q-44 18 -103 18q-58 0 -103 -18q-44 -18 -75 -53t-46 -87q-15 -51 -15 -119q0 -67 14 -119q15 -51 46 -87q31 -35 76 -52t103 -17q59 0 103 17q45 18 75 53zM166 263q0 102 36 152
q36 51 106 51q72 0 107 -51q36 -50 36 -152q0 -101 -36 -152q-35 -52 -107 -52q-70 0 -106 52q-36 51 -36 152z" />
    <glyph glyph-name="pi" unicode="&#x3c0;" 
d="M555 -15q11 1 19 3q9 3 17 6v62q-2 0 -3 -1h-1h-3q-3 0 -7 -1q-6 0 -11 -1h-10q-13 0 -22 4q-10 4 -16 12q-6 7 -9 19t-3 29v330h71v70h-537v-70h72v-447h90v447h214v-321q0 -22 1 -39q1 -18 4 -32t7 -24q5 -11 10 -19q12 -15 32 -23q20 -7 48 -7h18q10 1 19 3z" />
    <glyph glyph-name="uni03c1" unicode="&#x3c1;" 
d="M90 -201h92v268q23 -40 61 -60t90 -20q50 0 89 18t68 54q30 37 44 88q15 51 15 117q0 64 -15 114q-14 51 -44 88q-29 37 -72 55t-102 18q-53 0 -94 -17q-42 -16 -71 -51q-30 -35 -46 -89q-15 -54 -15 -128v-455zM182 263q0 102 34 152q34 51 102 51q67 0 101 -51
q34 -50 34 -152q0 -101 -34 -152q-34 -52 -101 -52q-68 0 -102 52q-34 51 -34 152z" />
    <glyph glyph-name="uni03c2" unicode="&#x3c2;" 
d="M348 -202q41 0 71 10q30 9 49 29t29 43q10 24 10 51t-9 50q-10 22 -28 39q-18 18 -46 28q-28 9 -65 11q-6 0 -16 2q-9 1 -20 2q-12 2 -24 5q-11 3 -24 9q-12 5 -24 13t-23 19q-10 10 -19 25q-9 16 -15 34q-7 18 -11 42t-4 52q0 49 12 87q11 38 34 64t58 39q34 14 78 14
q24 0 44 -4q21 -4 39 -10q19 -7 37 -19q17 -11 34 -25v91q-38 20 -78 30t-82 10q-63 0 -113 -18t-86 -55t-55 -89q-18 -52 -18 -120q0 -39 5 -71q6 -33 17 -58q12 -25 27 -44q14 -20 32 -34t36 -24q19 -11 39 -17q19 -6 37 -10t34 -6t29 -4q13 -1 20 -2q17 -3 28 -9
q12 -5 19 -14q6 -8 10 -18q4 -9 4 -19q0 -14 -5 -25q-6 -11 -16 -19q-10 -7 -23 -11q-12 -4 -28 -3v-71z" />
    <glyph glyph-name="uni03c3" unicode="&#x3c3;" 
d="M425 17q28 17 49 38q21 22 36 49q15 28 22 60q7 31 7 67q0 66 -26 119q-25 52 -77 90h120v86h-257q-60 0 -105 -17q-45 -18 -75 -52q-30 -35 -45 -84t-15 -113q0 -67 16 -118q15 -50 47 -86q31 -35 74 -52q44 -17 99 -17q38 0 70 7t60 23zM157 263q0 50 9 85q9 34 27 53
q17 20 43 29t60 9q15 -4 30 -12q14 -8 29 -18q43 -30 65 -74q21 -44 21 -101q0 -24 -4 -46q-4 -23 -12 -43t-20 -35q-12 -16 -28 -27q-16 -12 -36 -18t-44 -6q-70 0 -105 52q-35 51 -35 152z" />
    <glyph glyph-name="uni03c4" unicode="&#x3c4;" 
d="M487 0v74h-44q-26 0 -45 5q-18 6 -27 17t-13 33q-4 23 -4 56v255h183v85h-457v-85h180v-250q0 -49 10 -86q10 -36 31 -59t53 -34q33 -11 78 -11h55z" />
    <glyph glyph-name="uni03c5" unicode="&#x3c5;" 
d="M418 27q25 13 46 30q21 18 37 40q16 23 28 47q12 25 20 52q8 26 11 53q4 27 4 54q0 33 -5 64t-15 59q-11 28 -25 53t-33 47h-93q23 -27 39 -53q15 -26 24 -51q8 -25 12 -49t4 -45v-15v-6q-1 -3 -1 -6q-2 -30 -8 -58q-5 -28 -14 -55q-10 -26 -23 -46q-14 -20 -32 -37
q-17 -16 -40 -23q-24 -8 -52 -8q-24 0 -39 7q-16 6 -23 19q-8 13 -11 34q-4 21 -4 51v341h-199v-67h104q0 -51 1 -126v-143q0 -49 11 -86q10 -36 31 -59t52 -34q32 -11 73 -11q35 0 64 7q30 7 56 20z" />
    <glyph glyph-name="uni03c6" unicode="&#x3c6;" 
d="M262 -201h92v190q33 0 61 8q29 7 54 23q25 17 45 40t35 54q14 30 22 68t8 83q0 46 -7 83q-8 38 -22 67q-15 29 -33 51q-19 22 -41 36t-46 21q-23 7 -48 7q-28 0 -51 -9q-22 -9 -37 -26q-15 -18 -24 -44q-8 -27 -8 -63v-322q-25 0 -47 12q-23 12 -42 36q-19 23 -28 61
q-10 37 -10 87q0 45 10 82q9 36 28 63q12 17 27 29q14 11 30 18v76q-25 -4 -49 -13q-24 -10 -46 -23q-21 -14 -39 -34q-18 -21 -31 -48q-14 -28 -20 -64q-7 -35 -7 -80q0 -67 15 -119q16 -52 47 -89q32 -36 72 -53q40 -18 90 -18v-190zM354 388q0 34 8 51q7 18 22 18
q5 0 12 -3q6 -3 15 -9q8 -5 16 -13q9 -8 16 -18q9 -12 16 -26q7 -15 12 -33q5 -17 8 -39q2 -22 2 -48q0 -37 -4 -66q-5 -30 -14 -52q-9 -23 -22 -38q-12 -16 -26 -26q-15 -10 -30 -15t-31 -5v322z" />
    <glyph glyph-name="uni03c7" unicode="&#x3c7;" 
d="M76 -201h95q9 17 20 40q11 22 24 47q24 46 49 94l40 80q13 -33 33 -83l38 -95q8 -21 23 -37q14 -15 35 -25t46 -15q26 -6 58 -6h35v75h-24q-39 0 -65 15q-26 14 -38 44q-5 15 -13 35q-8 19 -17 41q-16 40 -33 81q-17 42 -28 70q23 45 57 112q35 67 68 132q17 35 33 67
q16 31 29 55h-96q-8 -17 -20 -39q-11 -23 -24 -48q-23 -46 -48 -94t-41 -80q-13 34 -33 84q-21 50 -38 94q-16 42 -57 63q-40 20 -104 20h-36v-73h25q39 0 65 -15q25 -15 37 -45q6 -15 14 -34q8 -20 16 -42q17 -40 33 -82q17 -42 28 -70q-22 -45 -57 -112q-34 -67 -67 -132
q-18 -35 -34 -66z" />
    <glyph glyph-name="uni03c8" unicode="&#x3c8;" 
d="M262 -201h92v190q24 0 48 7q23 7 45 22q24 16 42 37q19 20 33 46q15 26 22 57q7 30 7 64v304h-92v-301q0 -20 -3 -39q-3 -18 -9 -31q-5 -14 -13 -26q-7 -13 -17 -23q-7 -7 -15 -13q-9 -7 -17 -12t-16 -9t-15 -6v460h-92v-460q-17 6 -33 16q-15 10 -29 24q-10 10 -18 23
q-8 12 -13 26q-5 13 -8 31q-3 19 -3 39v301h-92v-304q0 -34 7 -64q7 -31 21 -57q15 -26 34 -46q19 -21 41 -37q22 -15 46 -22q23 -7 47 -7v-190z" />
    </font>
</defs>
</svg>
